<svg width="18" height="18" viewBox="0 0 18 18" fill="none" xmlns="http://www.w3.org/2000/svg"><path d="M8.64886 9.56179L8.64888 9.5618L10.8989 10.968L10.8989 10.9681C11.2092 11.1619 11.6179 11.0677 11.8118 10.7574C12.0057 10.4471 11.9115 10.0384 11.6011 9.84445C11.6011 9.84445 11.6011 9.84445 11.6011 9.84444L9.6625 8.6328V5.25C9.6625 4.88411 9.36588 4.5875 9 4.5875C8.63412 4.5875 8.3375 4.88411 8.3375 5.25V9C8.3375 9.22844 8.45517 9.4407 8.64886 9.56179Z" fill="white" stroke="white" stroke-width="0.2"/><path d="M9 2.3375C5.3204 2.3375 2.3375 5.3204 2.3375 9C2.3375 12.6796 5.3204 15.6625 9 15.6625C12.6796 15.6625 15.6625 12.6796 15.6625 9C15.6625 5.3204 12.6796 2.3375 9 2.3375ZM3.6625 9C3.6625 6.05218 6.05218 3.6625 9 3.6625C11.9478 3.6625 14.3375 6.05218 14.3375 9C14.3375 11.9478 11.9478 14.3375 9 14.3375C6.05218 14.3375 3.6625 11.9478 3.6625 9Z" fill="white" stroke="white" stroke-width="0.2"/></svg>