<svg width="190" height="30" viewBox="0 0 190 30" fill="none" xmlns="http://www.w3.org/2000/svg"><path d="M64.2763 9.88147C64.9717 9.88147 65.6713 9.91513 66.3751 9.98246C67.0789 10.0498 67.7532 10.1581 68.3991 10.3096C69.044 10.4601 69.6478 10.6494 70.2086 10.8756C70.7703 11.1018 71.2585 11.3743 71.6729 11.693C72.0874 12.0118 72.4125 12.3779 72.6471 12.7924C72.8817 13.2068 72.9995 13.6708 72.9995 14.181L69.7815 14.6586C69.7815 14.2978 69.6258 13.9738 69.3165 13.6845C69.0061 13.3952 68.5958 13.1521 68.0846 12.9554C67.5733 12.7587 66.9863 12.6083 66.3246 12.5031C65.6629 12.3979 64.9801 12.3463 64.2753 12.3463C63.6052 12.3463 62.9434 12.3947 62.2891 12.4904C61.6358 12.5872 61.0509 12.7313 60.5354 12.9239C60.0199 13.1174 59.6002 13.3573 59.2783 13.6466C58.9553 13.9359 58.7943 14.2736 58.7943 14.6586V19.8881C58.7943 20.2731 58.9553 20.6066 59.2783 20.8875C59.6012 21.1684 60.0199 21.403 60.5354 21.5913C61.0509 21.7796 61.6347 21.9195 62.2891 22.0121C62.9434 22.1047 63.6052 22.1499 64.2753 22.1499C64.9791 22.1499 65.6618 22.1005 66.3246 21.9995C66.9863 21.8995 67.5733 21.7544 68.0846 21.5661C68.5958 21.3777 69.0061 21.1432 69.3165 20.8623C69.6268 20.5814 69.7815 20.2563 69.7815 19.8881L72.9995 20.6918C72.9995 21.1442 72.8817 21.5597 72.6471 21.9364C72.4125 22.313 72.0885 22.6507 71.6729 22.9484C71.2585 23.2461 70.7703 23.5038 70.2086 23.7216C69.6478 23.9394 69.044 24.1193 68.3991 24.2623C67.7542 24.4044 67.0789 24.5117 66.3751 24.5832C65.6713 24.6537 64.9717 24.6895 64.2763 24.6895C63.5809 24.6895 62.8824 24.6537 62.1839 24.5832C61.4843 24.5117 60.811 24.4044 60.1662 24.2623C59.5213 24.1193 58.9195 23.9394 58.362 23.7216C57.8044 23.5038 57.3184 23.2461 56.9039 22.9484C56.4894 22.6517 56.1643 22.3161 55.9297 21.9427C55.6951 21.5703 55.5784 21.1537 55.5784 20.6918V14.181C55.5784 13.6708 55.6951 13.2068 55.9297 12.7924C56.1643 12.3779 56.4894 12.0107 56.9039 11.693C57.3184 11.3743 57.8044 11.1028 58.362 10.8756C58.9195 10.6494 59.5202 10.4611 60.1662 10.3096C60.811 10.1592 61.4843 10.0498 62.1839 9.98246C62.8824 9.91513 63.5799 9.88147 64.2763 9.88147Z" fill="white"/><path d="M75.8157 10.8619C76.0503 10.7956 76.3953 10.7114 76.853 10.6104C77.3095 10.5105 77.8524 10.4158 78.4804 10.3275C79.1084 10.2391 79.8101 10.1633 80.5855 10.1013C81.3597 10.0382 82.1919 10.0066 83.0798 10.0066C84.6546 10.0066 86.0443 10.1244 87.2467 10.359C88.4492 10.5936 89.457 10.9913 90.2702 11.553C91.0834 12.1148 91.6967 12.8607 92.1112 13.7906C92.5257 14.7206 92.734 15.882 92.734 17.2728C92.734 18.6383 92.5078 19.7807 92.0554 20.6981C91.6031 21.6154 90.9824 22.3508 90.1955 22.9041C89.4075 23.4575 88.486 23.8509 87.4298 24.0855C86.3736 24.3201 85.2427 24.438 84.036 24.438C83.0471 24.438 82.1298 24.379 81.2829 24.2623C80.4361 24.1455 79.686 23.9519 79.0327 23.6837V29.214H75.8157V10.8619ZM83.2312 12.6966C82.6863 12.6966 82.2024 12.7134 81.7795 12.7471C81.3555 12.7807 80.9747 12.8249 80.6349 12.8786C80.2951 12.9322 79.9953 12.9953 79.7365 13.0669C79.4766 13.1384 79.242 13.2152 79.0327 13.2994V21.344C79.3935 21.444 79.7302 21.526 80.0447 21.5891C80.3593 21.6523 80.6991 21.7006 81.0631 21.7333C81.4271 21.7669 81.8468 21.7901 82.3202 21.8027C82.7936 21.8153 83.3659 21.8216 84.036 21.8216C85.0249 21.8216 85.8697 21.707 86.5692 21.4766C87.2688 21.2462 87.8432 20.9295 88.2914 20.5277C88.7395 20.1247 89.0677 19.645 89.2781 19.0885C89.4875 18.531 89.5916 17.925 89.5916 17.2717C89.5916 16.3838 89.4486 15.6464 89.1645 15.0594C88.8794 14.4723 88.4649 14.0031 87.92 13.6518C87.3751 13.2994 86.7092 13.0521 85.9212 12.9101C85.1343 12.7681 84.237 12.6966 83.2312 12.6966Z" fill="white"/><path d="M104.123 10.1077C104.542 10.1077 105.049 10.1287 105.644 10.1708C106.24 10.2129 106.859 10.2855 107.505 10.3907C108.15 10.4959 108.789 10.6379 109.422 10.8178C110.054 10.9977 110.624 11.2323 111.131 11.5216C111.638 11.8109 112.047 12.157 112.357 12.5588C112.667 12.9607 112.822 13.4341 112.822 13.979V23.7079C112.118 23.85 111.322 23.9709 110.434 24.0719C109.671 24.1645 108.762 24.2476 107.706 24.3234C106.65 24.3991 105.473 24.437 104.175 24.437C102.884 24.437 101.512 24.3823 100.058 24.2729C98.6042 24.1645 97.0851 23.9762 95.5018 23.7079V19.1822C95.5018 18.6962 95.6165 18.2701 95.8469 17.9062C96.0773 17.5422 96.3939 17.2297 96.7958 16.9699C97.1976 16.71 97.671 16.4965 98.216 16.3292C98.7609 16.1619 99.3479 16.0273 99.976 15.9273C100.604 15.8263 101.258 15.758 101.937 15.7201C102.615 15.6822 103.294 15.6633 103.973 15.6633C105.003 15.6633 105.881 15.7285 106.606 15.8579C107.331 15.9884 107.932 16.1283 108.409 16.2787C108.962 16.4628 109.419 16.669 109.78 16.8952V14.8585C109.78 14.5145 109.695 14.2199 109.528 13.9727C109.361 13.7255 109.135 13.5162 108.85 13.3436C108.565 13.1721 108.237 13.0333 107.869 12.9291C107.5 12.825 107.115 12.7429 106.713 12.684C106.311 12.6262 105.902 12.5883 105.487 12.5715C105.073 12.5546 104.685 12.5462 104.325 12.5462C103.947 12.5462 103.545 12.5567 103.118 12.5778C102.691 12.5988 102.265 12.6388 101.842 12.6966C101.418 12.7556 101.012 12.8376 100.623 12.9418C100.234 13.047 99.8876 13.1869 99.5867 13.3626C99.2848 13.5393 99.0439 13.7507 98.864 13.998C98.6841 14.2452 98.5936 14.5408 98.5936 14.8838L95.4766 14.079C95.4766 13.5183 95.6144 13.0291 95.8911 12.6146C96.1677 12.2001 96.5338 11.8456 96.9904 11.5521C97.447 11.2586 97.973 11.0176 98.5684 10.8293C99.1628 10.641 99.7814 10.4938 100.422 10.3886C101.063 10.2844 101.701 10.2108 102.339 10.1687C102.974 10.1287 103.57 10.1077 104.123 10.1077ZM109.78 19.3085C109.57 19.1244 109.31 18.9445 109 18.7677C108.69 18.591 108.309 18.4343 107.855 18.2965C107.402 18.1586 106.864 18.045 106.241 17.9567C105.617 17.8683 104.885 17.8252 104.047 17.8252C103.301 17.8252 102.595 17.8399 101.93 17.8693C101.264 17.8988 100.679 17.983 100.176 18.1208C99.673 18.2586 99.2743 18.4784 98.9818 18.7804C98.6883 19.0823 98.541 19.502 98.541 20.0375V21.646C99.2785 21.7628 100.092 21.8596 100.98 21.9353C101.867 22.0111 102.856 22.0489 103.946 22.0489C104.817 22.0489 105.746 22.0174 106.731 21.9543C107.716 21.8911 108.732 21.7639 109.78 21.5713V19.3085Z" fill="white"/><path d="M119.433 20.2142C119.735 20.2142 120.035 20.2395 120.332 20.29C120.629 20.3405 120.895 20.4162 121.131 20.5162C121.365 20.6161 121.556 20.7465 121.703 20.9065C121.849 21.0653 121.923 21.2536 121.923 21.4714V23.3071C121.923 23.5081 121.849 23.6806 121.703 23.8226C121.556 23.9657 121.365 24.0824 121.131 24.175C120.896 24.2676 120.63 24.3349 120.332 24.376C120.035 24.418 119.735 24.4391 119.433 24.4391C119.131 24.4391 118.833 24.418 118.541 24.376C118.247 24.3339 117.983 24.2665 117.749 24.175C117.514 24.0824 117.326 23.9657 117.183 23.8226C117.041 23.6806 116.969 23.5091 116.969 23.3071V21.4714C116.969 21.2536 117.041 21.0653 117.183 20.9065C117.326 20.7465 117.514 20.6172 117.749 20.5162C117.983 20.4162 118.247 20.3405 118.541 20.29C118.833 20.2384 119.131 20.2142 119.433 20.2142Z" fill="white"/><path d="M133.687 9.88147C134.383 9.88147 135.082 9.91513 135.786 9.98246C136.49 10.0498 137.164 10.1581 137.81 10.3096C138.455 10.4601 139.059 10.6494 139.62 10.8756C140.181 11.1018 140.67 11.3743 141.084 11.693C141.499 12.0118 141.824 12.3779 142.058 12.7924C142.293 13.2068 142.411 13.6708 142.411 14.181L139.193 14.6586C139.193 14.2978 139.037 13.9738 138.728 13.6845C138.417 13.3952 138.007 13.1521 137.496 12.9554C136.984 12.7587 136.397 12.6083 135.736 12.5031C135.074 12.3979 134.391 12.3463 133.686 12.3463C133.016 12.3463 132.355 12.3947 131.7 12.4904C131.047 12.5872 130.462 12.7313 129.947 12.9239C129.431 13.1174 129.012 13.3573 128.689 13.6466C128.366 13.9359 128.205 14.2736 128.205 14.6586V19.8881C128.205 20.2731 128.366 20.6066 128.689 20.8875C129.012 21.1684 129.431 21.403 129.947 21.5913C130.462 21.7796 131.046 21.9195 131.7 22.0121C132.355 22.1047 133.016 22.1499 133.686 22.1499C134.39 22.1499 135.073 22.1005 135.736 21.9995C136.397 21.8995 136.984 21.7544 137.496 21.5661C138.007 21.3777 138.417 21.1432 138.728 20.8623C139.038 20.5814 139.193 20.2563 139.193 19.8881L142.411 20.6918C142.411 21.1442 142.293 21.5597 142.058 21.9364C141.824 22.313 141.5 22.6507 141.084 22.9484C140.67 23.2461 140.181 23.5038 139.62 23.7216C139.059 23.9394 138.455 24.1193 137.81 24.2623C137.165 24.4044 136.49 24.5117 135.786 24.5832C135.082 24.6537 134.383 24.6895 133.687 24.6895C132.992 24.6895 132.294 24.6537 131.595 24.5832C130.895 24.5117 130.222 24.4044 129.577 24.2623C128.932 24.1193 128.331 23.9394 127.773 23.7216C127.216 23.5038 126.73 23.2461 126.315 22.9484C125.901 22.6517 125.575 22.3161 125.341 21.9427C125.106 21.5703 124.99 21.1537 124.99 20.6918V14.181C124.99 13.6708 125.106 13.2068 125.341 12.7924C125.575 12.3779 125.901 12.0107 126.315 11.693C126.73 11.3743 127.216 11.1028 127.773 10.8756C128.331 10.6494 128.931 10.4611 129.577 10.3096C130.222 10.1592 130.895 10.0498 131.595 9.98246C132.294 9.91513 132.991 9.88147 133.687 9.88147Z" fill="white"/><path d="M148.721 24.437H145.855V5.55774H148.721V24.437Z" fill="white"/><path d="M156.262 19.8871C156.262 20.2721 156.403 20.5951 156.684 20.8549C156.964 21.1148 157.342 21.3262 157.815 21.4893C158.289 21.6534 158.836 21.7702 159.455 21.8417C160.076 21.9132 160.721 21.949 161.391 21.949C162.095 21.949 162.756 21.909 163.377 21.8291C163.998 21.7491 164.537 21.6281 164.999 21.4651C165.46 21.301 165.824 21.0895 166.092 20.8307C166.361 20.5709 166.495 20.2563 166.495 19.8881V10.1077L169.838 10.3591V20.6908C169.838 21.1432 169.727 21.5587 169.506 21.9353C169.284 22.3119 168.976 22.6496 168.582 22.9474C168.189 23.2451 167.723 23.5028 167.187 23.7206C166.651 23.9383 166.071 24.1182 165.446 24.2613C164.823 24.4033 164.165 24.5106 163.473 24.5822C162.782 24.6526 162.088 24.6884 161.392 24.6884C160.688 24.6884 159.993 24.6526 159.306 24.5822C158.619 24.5106 157.962 24.4033 157.339 24.2613C156.715 24.1182 156.134 23.9383 155.598 23.7206C155.061 23.5028 154.596 23.2451 154.203 22.9474C153.809 22.6507 153.5 22.3151 153.279 21.9416C153.057 21.5692 152.945 21.1526 152.945 20.6908V10.3591L156.263 10.1077V19.8871H156.262Z" fill="white"/><path d="M181.805 10.1076C183.095 10.1076 184.25 10.1981 185.267 10.378C186.285 10.5579 187.144 10.8366 187.843 11.2143C188.543 11.5909 189.077 12.0685 189.447 12.6471C189.815 13.2247 190 13.9117 190 14.708V19.8365C190 20.6329 189.816 21.3199 189.447 21.8985C189.077 22.476 188.544 22.9547 187.843 23.3313C187.144 23.7079 186.285 23.9867 185.267 24.1676C184.25 24.3475 183.095 24.438 181.805 24.438C181.083 24.438 180.341 24.4001 179.575 24.3244C178.809 24.2486 178.066 24.176 177.345 24.1045C176.626 24.034 175.968 23.932 175.371 23.7994C174.774 23.6669 174.262 23.5533 173.835 23.4575V5.30627H177.129V11.0123C177.875 10.7441 178.655 10.5263 179.473 10.359C180.29 10.1918 181.066 10.1076 181.805 10.1076ZM180.899 12.4462C180.464 12.4462 180.065 12.4757 179.705 12.5346C179.344 12.5935 179.012 12.6682 178.706 12.7608C178.4 12.8533 178.117 12.9564 177.857 13.069C177.597 13.1826 177.354 13.2931 177.128 13.4014V21.322C177.354 21.3977 177.471 21.4356 177.477 21.4366C177.483 21.4377 177.488 21.4387 177.486 21.4377C177.485 21.4377 178.104 21.5187 179.342 21.6807C180.58 21.8427 181.348 21.9237 181.648 21.9237C182.101 21.9237 182.542 21.9174 182.973 21.9048C183.403 21.8921 183.805 21.8564 184.177 21.7985C184.55 21.7396 184.89 21.6512 185.201 21.5345C185.511 21.4177 185.777 21.2515 186 21.0379C186.223 20.8244 186.396 20.5603 186.52 20.2468C186.644 19.9323 186.706 19.5451 186.706 19.0833V15.3876C186.706 14.7259 186.552 14.1999 186.241 13.8107C185.931 13.4204 185.512 13.1258 184.984 12.9249C184.457 12.7239 183.841 12.5945 183.137 12.5356C182.433 12.4757 181.687 12.4462 180.899 12.4462Z" fill="white"/><path d="M7.18307 18.4595L3.79773 7.03263L13.7644 10.0635L22.2751 4.11754L30.9583 10.0635L40.4253 7.23883L37.9888 14.2199H40.8051L44.4103 3.76512L43.1984 3.31275L34.0407 0L33.097 2.54269L39.287 4.7824L30.9583 7.09049L22.2751 1.01308L13.7644 7.09049L0 2.75204L4.52677 18.4595H7.18307Z" fill="white"/><path d="M6.01537 24.4379L6.35201 25.3942H37.3829L37.6869 24.4379L38.2456 22.699H5.47253L6.01537 24.4379Z" fill="white"/></svg>