<svg width="14" height="14" viewBox="0 0 14 14" fill="none" xmlns="http://www.w3.org/2000/svg"><path fill-rule="evenodd" clip-rule="evenodd" d="M7.25 0.546875C3.54796 0.546875 0.546875 3.54796 0.546875 7.25C0.546875 10.9516 3.54724 13.9524 7.24863 13.9531H7.25137C10.9527 13.9524 13.9531 10.9516 13.9531 7.25C13.9531 3.54796 10.9521 0.546875 7.25 0.546875ZM1.70599 6.04688C1.62223 6.43463 1.57812 6.83716 1.57812 7.25C1.57812 7.66284 1.62223 8.06537 1.70599 8.45312H4.0635C4.01253 8.06345 3.98438 7.66133 3.98438 7.25C3.98438 6.83867 4.01253 6.43655 4.0635 6.04688H1.70599ZM2.03519 5.01562H4.25545C4.47448 4.10941 4.80443 3.2981 5.16296 2.63075C5.32682 2.32575 5.49856 2.04723 5.67124 1.80075C4.03267 2.27464 2.69936 3.46757 2.03519 5.01562ZM5.10464 6.04688C5.04756 6.43552 5.01562 6.83798 5.01562 7.25C5.01562 7.66202 5.04756 8.06448 5.10464 8.45312H9.39534C9.45241 8.06448 9.48438 7.66202 9.48438 7.25C9.48438 6.83798 9.45241 6.43552 9.39534 6.04688H5.10464ZM9.18002 5.01562H5.31996C5.5136 4.30151 5.78182 3.65783 6.07142 3.11881C6.35604 2.58904 6.65407 2.17382 6.90852 1.89915C7.03646 1.76108 7.14357 1.66912 7.22277 1.61568C7.23295 1.60884 7.24196 1.60305 7.25 1.59815C7.25804 1.60305 7.26705 1.60884 7.27723 1.61568C7.35643 1.66912 7.46354 1.76108 7.59148 1.89915C7.84593 2.17382 8.14396 2.58904 8.42858 3.11881C8.71816 3.65783 8.98642 4.30151 9.18002 5.01562ZM10.4365 6.04688C10.4874 6.43655 10.5156 6.83867 10.5156 7.25C10.5156 7.66133 10.4874 8.06345 10.4365 8.45312H12.794C12.8777 8.06537 12.9219 7.66284 12.9219 7.25C12.9219 6.83716 12.8777 6.43463 12.794 6.04688H10.4365ZM12.4648 5.01562H10.2445C10.0255 4.10941 9.69557 3.2981 9.33704 2.63075C9.17321 2.32575 9.00141 2.04723 8.82878 1.80075C10.4674 2.27464 11.8006 3.46757 12.4648 5.01562ZM5.67124 12.6993C4.03267 12.2254 2.69936 11.0324 2.03519 9.48438H4.25545C4.47448 10.3906 4.80443 11.2019 5.16296 11.8692C5.32682 12.1742 5.49856 12.4528 5.67124 12.6993ZM6.07142 11.3812C5.78182 10.8422 5.5136 10.1985 5.31996 9.48438H9.18002C8.98642 10.1985 8.71816 10.8422 8.42858 11.3812C8.14396 11.911 7.84593 12.3262 7.59148 12.6009C7.46354 12.7389 7.35643 12.8309 7.27723 12.8843C7.26705 12.8911 7.25804 12.897 7.25 12.9019C7.24196 12.897 7.23295 12.8911 7.22277 12.8843C7.14357 12.8309 7.03646 12.7389 6.90852 12.6009C6.65407 12.3262 6.35604 11.911 6.07142 11.3812ZM9.33704 11.8692C9.69557 11.2019 10.0255 10.3906 10.2445 9.48438H12.4648C11.8006 11.0324 10.4674 12.2254 8.82878 12.6993C9.00141 12.4528 9.17321 12.1742 9.33704 11.8692Z" fill="white"/></svg>