<svg width="158" height="25" viewBox="0 0 158 25" fill="none" xmlns="http://www.w3.org/2000/svg"><path d="M53.4509 8.67731C54.0291 8.67731 54.6109 8.7053 55.1961 8.76129C55.7814 8.81728 56.3422 8.90739 56.8793 9.03336C57.4156 9.15846 57.9177 9.31593 58.384 9.50401C58.8511 9.6921 59.2571 9.91868 59.6017 10.1838C59.9464 10.4488 60.2167 10.7533 60.4118 11.0979C60.6069 11.4426 60.7049 11.8284 60.7049 12.2527L58.0288 12.6499C58.0288 12.3498 57.8993 12.0804 57.6421 11.8398C57.3841 11.5992 57.0429 11.3971 56.6177 11.2335C56.1926 11.0699 55.7044 10.9448 55.1541 10.8574C54.6039 10.7699 54.0361 10.727 53.45 10.727C52.8927 10.727 52.3425 10.7673 51.7983 10.8469C51.2551 10.9274 50.7687 11.0472 50.34 11.2073C49.9113 11.3683 49.5623 11.5677 49.2946 11.8083C49.026 12.0489 48.8922 12.3297 48.8922 12.6499V16.9986C48.8922 17.3188 49.026 17.5961 49.2946 17.8297C49.5632 18.0633 49.9113 18.2584 50.34 18.415C50.7687 18.5716 51.2542 18.6879 51.7983 18.7649C52.3425 18.8419 52.8927 18.8795 53.45 18.8795C54.0353 18.8795 54.603 18.8384 55.1541 18.7544C55.7044 18.6713 56.1926 18.5506 56.6177 18.394C57.0429 18.2374 57.3841 18.0423 57.6421 17.8087C57.9002 17.5751 58.0288 17.3048 58.0288 16.9986L60.7049 17.667C60.7049 18.0432 60.6069 18.3887 60.4118 18.7019C60.2167 19.0151 59.9473 19.2959 59.6017 19.5435C59.2571 19.7911 58.8511 20.0054 58.384 20.1865C57.9177 20.3676 57.4156 20.5172 56.8793 20.6361C56.343 20.7542 55.7814 20.8435 55.1961 20.903C54.6109 20.9616 54.0291 20.9913 53.4509 20.9913C52.8726 20.9913 52.2917 20.9616 51.7108 20.903C51.1291 20.8435 50.5692 20.7542 50.0329 20.6361C49.4967 20.5172 48.9963 20.3676 48.5326 20.1865C48.069 20.0054 47.6648 19.7911 47.3201 19.5435C46.9754 19.2968 46.7051 19.0177 46.51 18.7071C46.3149 18.3975 46.2178 18.051 46.2178 17.667V12.2527C46.2178 11.8284 46.3149 11.4426 46.51 11.0979C46.7051 10.7533 46.9754 10.4479 47.3201 10.1838C47.6648 9.91868 48.069 9.69298 48.5326 9.50401C48.9963 9.31593 49.4958 9.15933 50.0329 9.03336C50.5692 8.90826 51.1291 8.81728 51.7108 8.76129C52.2917 8.7053 52.8717 8.67731 53.4509 8.67731Z" fill="white"/><path d="M63.0468 9.49266C63.2418 9.43755 63.5288 9.36756 63.9093 9.28358C64.289 9.20047 64.7404 9.12174 65.2627 9.04825C65.7849 8.97477 66.3685 8.91178 67.0132 8.86017C67.6571 8.80768 68.3491 8.78143 69.0874 8.78143C70.397 8.78143 71.5527 8.87941 72.5526 9.0745C73.5525 9.26958 74.3906 9.60027 75.0668 10.0674C75.7431 10.5346 76.2531 11.1548 76.5978 11.9282C76.9424 12.7015 77.1156 13.6673 77.1156 14.8238C77.1156 15.9594 76.9276 16.9094 76.5514 17.6723C76.1752 18.4351 75.6591 19.0466 75.0047 19.5068C74.3495 19.9669 73.5831 20.2941 72.7048 20.4892C71.8265 20.6843 70.886 20.7822 69.8826 20.7822C69.0603 20.7822 68.2974 20.7333 67.5932 20.6362C66.889 20.539 66.2652 20.3781 65.722 20.155V24.7539H63.0468V9.49266ZM69.2134 11.0184C68.7602 11.0184 68.3578 11.0324 68.0061 11.0603C67.6536 11.0883 67.3369 11.1251 67.0543 11.1697C66.7717 11.2143 66.5224 11.2668 66.3072 11.3263C66.0911 11.3858 65.8961 11.4496 65.722 11.5196V18.2094C66.022 18.2925 66.302 18.3607 66.5635 18.4132C66.8251 18.4657 67.1077 18.506 67.4104 18.5331C67.7131 18.5611 68.0621 18.5803 68.4558 18.5908C68.8495 18.6013 69.3254 18.6066 69.8826 18.6066C70.705 18.6066 71.4074 18.5112 71.9892 18.3196C72.5709 18.128 73.0486 17.8647 73.4213 17.5305C73.794 17.1955 74.0669 16.7966 74.2419 16.3338C74.4159 15.8701 74.5026 15.3662 74.5026 14.823C74.5026 14.0846 74.3836 13.4714 74.1474 12.9832C73.9103 12.4951 73.5656 12.1049 73.1125 11.8127C72.6593 11.5196 72.1055 11.314 71.4503 11.1959C70.7959 11.0778 70.0497 11.0184 69.2134 11.0184Z" fill="white"/><path d="M86.5865 8.86542C86.9347 8.86542 87.3564 8.88291 87.8515 8.91791C88.3467 8.9529 88.8619 9.01326 89.3991 9.10074C89.9354 9.18823 90.4664 9.30633 90.993 9.45592C91.5188 9.60552 91.9929 9.8006 92.4146 10.0412C92.8363 10.2818 93.1757 10.5696 93.4338 10.9038C93.6918 11.2379 93.8204 11.6316 93.8204 12.0848V20.1751C93.2352 20.2932 92.5729 20.3938 91.8346 20.4778C91.2003 20.5548 90.4445 20.6239 89.5662 20.6869C88.6879 20.7499 87.7089 20.7814 86.6294 20.7814C85.556 20.7814 84.4152 20.7359 83.2062 20.6449C81.9972 20.5548 80.734 20.3982 79.4174 20.1751V16.4116C79.4174 16.0075 79.5127 15.6532 79.7043 15.3505C79.8959 15.0478 80.1592 14.788 80.4934 14.5719C80.8276 14.3558 81.2212 14.1782 81.6744 14.0391C82.1276 13.9 82.6157 13.788 83.138 13.7049C83.6602 13.621 84.2044 13.5641 84.7687 13.5326C85.3329 13.5011 85.8972 13.4854 86.4614 13.4854C87.3188 13.4854 88.0484 13.5396 88.6511 13.6472C89.2539 13.7557 89.7543 13.872 90.1506 13.9971C90.6107 14.1502 90.9904 14.3217 91.2904 14.5098V12.8161C91.2904 12.53 91.2205 12.2851 91.0814 12.0795C90.9423 11.8739 90.7542 11.6998 90.5171 11.5564C90.28 11.4138 90.008 11.2983 89.7018 11.2117C89.3947 11.1251 89.0745 11.0568 88.7403 11.0079C88.4062 10.9597 88.0659 10.9282 87.7212 10.9143C87.3765 10.9003 87.0537 10.8933 86.7545 10.8933C86.4404 10.8933 86.1063 10.902 85.7511 10.9195C85.3959 10.937 85.0416 10.9702 84.6899 11.0184C84.3374 11.0673 83.9997 11.1356 83.676 11.2222C83.3523 11.3097 83.0645 11.426 82.8143 11.5721C82.5632 11.7191 82.3629 11.8949 82.2133 12.1005C82.0637 12.3061 81.9885 12.5519 81.9885 12.8371L79.3964 12.1679C79.3964 11.7016 79.511 11.2948 79.741 10.9501C79.9711 10.6054 80.2756 10.3106 80.6552 10.0665C81.0349 9.82247 81.4723 9.62214 81.9675 9.46555C82.4617 9.30895 82.9761 9.18648 83.5089 9.09899C84.0417 9.01239 84.5727 8.95115 85.1028 8.91616C85.6312 8.88291 86.1264 8.86542 86.5865 8.86542ZM91.2904 16.5166C91.1164 16.3635 90.9003 16.2139 90.6422 16.067C90.3841 15.92 90.0675 15.7896 89.6904 15.675C89.3134 15.5604 88.8663 15.466 88.3475 15.3925C87.8288 15.319 87.2199 15.2831 86.5235 15.2831C85.9033 15.2831 85.3163 15.2954 84.7625 15.3199C84.2088 15.3444 83.7224 15.4143 83.3042 15.5289C82.886 15.6435 82.5545 15.8264 82.3113 16.0775C82.0672 16.3285 81.9447 16.6776 81.9447 17.1229V18.4605C82.558 18.5576 83.2342 18.6381 83.9726 18.701C84.7109 18.764 85.5332 18.7955 86.4396 18.7955C87.1639 18.7955 87.9364 18.7693 88.7552 18.7168C89.574 18.6643 90.4191 18.5585 91.2904 18.3984V16.5166Z" fill="white"/><path d="M99.3177 17.2698C99.5688 17.2698 99.8182 17.2908 100.066 17.3328C100.312 17.3748 100.534 17.4378 100.73 17.5209C100.925 17.604 101.083 17.7125 101.206 17.8455C101.327 17.9776 101.388 18.1342 101.388 18.3153V19.8418C101.388 20.0089 101.327 20.1524 101.206 20.2705C101.083 20.3895 100.925 20.4866 100.73 20.5635C100.535 20.6405 100.313 20.6965 100.066 20.7306C99.8182 20.7656 99.5688 20.7831 99.3177 20.7831C99.0667 20.7831 98.8191 20.7656 98.5759 20.7306C98.3318 20.6956 98.1122 20.6397 97.9172 20.5635C97.7221 20.4866 97.5655 20.3895 97.4465 20.2705C97.3284 20.1524 97.2689 20.0098 97.2689 19.8418V18.3153C97.2689 18.1342 97.3284 17.9776 97.4465 17.8455C97.5655 17.7125 97.7221 17.6049 97.9172 17.5209C98.1122 17.4378 98.3318 17.3748 98.5759 17.3328C98.8191 17.29 99.0667 17.2698 99.3177 17.2698Z" fill="white"/><path d="M111.172 8.67731C111.75 8.67731 112.332 8.7053 112.917 8.76129C113.502 8.81728 114.063 8.90739 114.6 9.03336C115.136 9.15846 115.639 9.31593 116.105 9.50401C116.572 9.6921 116.978 9.91868 117.323 10.1838C117.667 10.4488 117.938 10.7533 118.133 11.0979C118.328 11.4426 118.426 11.8284 118.426 12.2527L115.75 12.6499C115.75 12.3498 115.62 12.0804 115.363 11.8398C115.105 11.5992 114.764 11.3971 114.339 11.2335C113.913 11.0699 113.425 10.9448 112.875 10.8574C112.325 10.7699 111.757 10.727 111.171 10.727C110.614 10.727 110.063 10.7673 109.519 10.8469C108.976 10.9274 108.489 11.0472 108.061 11.2073C107.632 11.3683 107.284 11.5677 107.015 11.8083C106.747 12.0489 106.613 12.3297 106.613 12.6499V16.9986C106.613 17.3188 106.747 17.5961 107.015 17.8297C107.284 18.0633 107.632 18.2584 108.061 18.415C108.489 18.5716 108.975 18.6879 109.519 18.7649C110.063 18.8419 110.614 18.8795 111.171 18.8795C111.756 18.8795 112.324 18.8384 112.875 18.7544C113.425 18.6713 113.913 18.5506 114.339 18.394C114.764 18.2374 115.105 18.0423 115.363 17.8087C115.621 17.5751 115.75 17.3048 115.75 16.9986L118.426 17.667C118.426 18.0432 118.328 18.3887 118.133 18.7019C117.938 19.0151 117.668 19.2959 117.323 19.5435C116.978 19.7911 116.572 20.0054 116.105 20.1865C115.639 20.3676 115.136 20.5172 114.6 20.6361C114.064 20.7542 113.502 20.8435 112.917 20.903C112.332 20.9616 111.75 20.9913 111.172 20.9913C110.593 20.9913 110.013 20.9616 109.432 20.903C108.85 20.8435 108.29 20.7542 107.754 20.6361C107.217 20.5172 106.717 20.3676 106.253 20.1865C105.79 20.0054 105.386 19.7911 105.041 19.5435C104.696 19.2968 104.426 19.0177 104.231 18.7071C104.036 18.3975 103.939 18.051 103.939 17.667V12.2527C103.939 11.8284 104.036 11.4426 104.231 11.0979C104.426 10.7533 104.696 10.4479 105.041 10.1838C105.386 9.91868 105.79 9.69298 106.253 9.50401C106.717 9.31593 107.217 9.15933 107.754 9.03336C108.29 8.90826 108.85 8.81728 109.432 8.76129C110.013 8.7053 110.593 8.67731 111.172 8.67731Z" fill="white"/><path d="M123.673 20.7814H121.29V5.08179H123.673V20.7814Z" fill="white"/><path d="M129.944 16.9978C129.944 17.318 130.062 17.5865 130.295 17.8026C130.528 18.0187 130.842 18.1945 131.236 18.3301C131.629 18.4666 132.084 18.5637 132.6 18.6232C133.116 18.6827 133.652 18.7124 134.209 18.7124C134.794 18.7124 135.345 18.6792 135.861 18.6127C136.377 18.5462 136.826 18.4456 137.21 18.31C137.593 18.1735 137.896 17.9977 138.119 17.7825C138.342 17.5664 138.454 17.3048 138.454 16.9986V8.86542L141.234 9.0745V17.6661C141.234 18.0423 141.141 18.3879 140.958 18.701C140.773 19.0142 140.517 19.2951 140.19 19.5426C139.862 19.7902 139.475 20.0045 139.03 20.1856C138.583 20.3667 138.101 20.5163 137.582 20.6353C137.063 20.7534 136.516 20.8426 135.941 20.9021C135.366 20.9607 134.789 20.9905 134.21 20.9905C133.625 20.9905 133.047 20.9607 132.475 20.9021C131.904 20.8426 131.358 20.7534 130.839 20.6353C130.321 20.5163 129.838 20.3667 129.392 20.1856C128.945 20.0045 128.559 19.7902 128.232 19.5426C127.904 19.2959 127.647 19.0169 127.463 18.7063C127.279 18.3966 127.186 18.0502 127.186 17.6661V9.0745L129.945 8.86542V16.9978H129.944Z" fill="white"/><path d="M151.185 8.86543C152.258 8.86543 153.218 8.94067 154.064 9.09026C154.911 9.23986 155.625 9.47168 156.207 9.78575C156.788 10.0989 157.233 10.4961 157.54 10.9773C157.846 11.4575 158 12.0288 158 12.691V16.9558C158 17.618 157.847 18.1893 157.54 18.6704C157.233 19.1507 156.789 19.5488 156.207 19.862C155.625 20.1751 154.911 20.407 154.064 20.5574C153.218 20.707 152.258 20.7823 151.185 20.7823C150.585 20.7823 149.967 20.7508 149.331 20.6878C148.694 20.6248 148.076 20.5644 147.477 20.5049C146.878 20.4463 146.332 20.3615 145.835 20.2512C145.339 20.141 144.913 20.0465 144.557 19.9669V4.87274H147.297V9.61778C147.917 9.3947 148.566 9.21361 149.246 9.07451C149.925 8.93542 150.571 8.86543 151.185 8.86543ZM150.432 10.8102C150.07 10.8102 149.738 10.8347 149.439 10.8836C149.139 10.9326 148.863 10.9948 148.608 11.0717C148.353 11.1487 148.118 11.2345 147.902 11.3281C147.686 11.4225 147.484 11.5144 147.296 11.6045V18.191C147.484 18.254 147.581 18.2855 147.586 18.2864C147.591 18.2873 147.595 18.2881 147.594 18.2873C147.593 18.2873 148.108 18.3546 149.137 18.4894C150.167 18.6241 150.805 18.6914 151.055 18.6914C151.431 18.6914 151.798 18.6862 152.156 18.6757C152.514 18.6652 152.848 18.6354 153.158 18.5873C153.468 18.5383 153.751 18.4649 154.009 18.3678C154.267 18.2706 154.488 18.1324 154.674 17.9548C154.859 17.7772 155.003 17.5577 155.106 17.297C155.209 17.0354 155.261 16.7135 155.261 16.3294V13.2562C155.261 12.7059 155.132 12.2685 154.874 11.9448C154.616 11.6202 154.268 11.3753 153.829 11.2082C153.391 11.0411 152.878 10.9335 152.293 10.8845C151.707 10.8347 151.087 10.8102 150.432 10.8102Z" fill="white"/><path d="M5.97329 15.8107L3.15811 6.30833L11.4462 8.8287L18.5235 3.8842L25.7443 8.8287L33.6168 6.4798L31.5907 12.2851H33.9326L36.9306 3.59113L35.9228 3.21496L28.3075 0.460144L27.5228 2.57459L32.6702 4.43709L25.7443 6.35645L18.5235 1.3026L11.4462 6.35645L0 2.74868L3.76436 15.8107H5.97329Z" fill="white"/><path d="M5.00231 20.7823L5.28225 21.5775H31.0869L31.3397 20.7823L31.8042 19.3362H4.5509L5.00231 20.7823Z" fill="white"/></svg>