<svg width="109" height="21" viewBox="0 0 109 21" fill="none" xmlns="http://www.w3.org/2000/svg"><path d="M19.14 4.40402H5.22399V9.52803H17.18V13.308H5.22399V20H0.23999V0.400024H19.14V4.40402Z" fill="white"/><path d="M28.8412 20.364C27.1986 20.364 25.7519 20.168 24.5012 19.776C23.2692 19.384 22.2332 18.852 21.3932 18.18C20.5719 17.4894 19.9466 16.696 19.5172 15.8C19.1066 14.8854 18.9012 13.9147 18.9012 12.888C18.9012 11.8614 19.1066 10.9 19.5172 10.004C19.9466 9.08936 20.5719 8.29603 21.3932 7.62402C22.2332 6.93336 23.2692 6.39203 24.5012 6.00003C25.7519 5.60803 27.1986 5.41202 28.8412 5.41202C30.4839 5.41202 31.9212 5.60803 33.1532 6.00003C34.3852 6.39203 35.4119 6.93336 36.2332 7.62402C37.0732 8.29603 37.6986 9.08936 38.1092 10.004C38.5386 10.9 38.7532 11.8614 38.7532 12.888C38.7532 13.9147 38.5386 14.8854 38.1092 15.8C37.6986 16.696 37.0732 17.4894 36.2332 18.18C35.4119 18.852 34.3852 19.384 33.1532 19.776C31.9212 20.168 30.4839 20.364 28.8412 20.364ZM28.8412 16.892C29.7746 16.892 30.5772 16.7894 31.2492 16.584C31.9399 16.36 32.5186 16.0707 32.9852 15.716C33.4519 15.3427 33.7972 14.9134 34.0212 14.428C34.2452 13.9427 34.3572 13.4294 34.3572 12.888C34.3572 12.3467 34.2452 11.8427 34.0212 11.376C33.7972 10.8907 33.4519 10.4707 32.9852 10.116C32.5186 9.74269 31.9399 9.45336 31.2492 9.24803C30.5772 9.02403 29.7746 8.91203 28.8412 8.91203C27.9079 8.91203 27.0959 9.02403 26.4052 9.24803C25.7146 9.45336 25.1359 9.74269 24.6692 10.116C24.2026 10.4707 23.8572 10.8907 23.6332 11.376C23.4092 11.8427 23.2972 12.3467 23.2972 12.888C23.2972 13.4294 23.4092 13.9427 23.6332 14.428C23.8572 14.9134 24.2026 15.3427 24.6692 15.716C25.1359 16.0707 25.7146 16.36 26.4052 16.584C27.0959 16.7894 27.9079 16.892 28.8412 16.892Z" fill="white"/><path d="M40.751 20V5.77603H45.175L44.559 9.69602H45.035C45.427 8.35202 46.127 7.30669 47.135 6.56003C48.1617 5.79469 49.4963 5.41202 51.139 5.41202C53.3603 5.41202 55.0683 6.02803 56.263 7.26003C57.4577 8.49203 58.055 10.3587 58.055 12.86V13.42H53.575V13.224C53.575 11.9734 53.211 11.0027 52.483 10.312C51.755 9.60269 50.7097 9.24803 49.347 9.24803C48.0217 9.24803 46.995 9.62136 46.267 10.368C45.539 11.096 45.175 12.2067 45.175 13.7V20H40.751Z" fill="white"/><path d="M67.2953 20.364C66.138 20.364 65.0927 20.1867 64.1593 19.832C63.226 19.4774 62.4327 18.9734 61.7793 18.32C61.126 17.648 60.622 16.836 60.2673 15.884C59.9313 14.932 59.7633 13.8494 59.7633 12.636V5.77603H64.1873V11.628C64.1873 13.2707 64.6073 14.5214 65.4473 15.38C66.2873 16.2387 67.454 16.668 68.9473 16.668C70.4593 16.668 71.6353 16.2387 72.4753 15.38C73.3153 14.5214 73.7353 13.2707 73.7353 11.628V5.77603H78.1313V20H73.7353L74.3793 15.744H73.9313C73.5207 17.2187 72.7647 18.3574 71.6633 19.16C70.562 19.9627 69.106 20.364 67.2953 20.364Z" fill="white"/><path d="M80.9151 20V5.77603H85.3391L84.7511 9.33203H85.2271C85.6191 8.04403 86.2724 7.07336 87.187 6.42003C88.1017 5.74803 89.287 5.41202 90.743 5.41202C91.5644 5.41202 92.2924 5.52403 92.9271 5.74803C93.5804 5.95336 94.1311 6.24269 94.5791 6.61603C95.0457 6.98936 95.4191 7.42802 95.6991 7.93202C95.9791 8.41736 96.1657 8.93069 96.2591 9.47202H96.6511C97.4537 6.76536 99.3391 5.41202 102.307 5.41202C104.155 5.41202 105.62 5.98136 106.703 7.12003C107.786 8.24003 108.327 9.84536 108.327 11.936V20H103.903V12.944C103.903 11.712 103.586 10.7694 102.951 10.116C102.316 9.46269 101.458 9.13603 100.375 9.13603C99.2924 9.13603 98.4244 9.46269 97.7711 10.116C97.1364 10.7694 96.8191 11.712 96.8191 12.944V20H92.423V12.944C92.423 11.712 92.0964 10.7694 91.4431 10.116C90.8084 9.46269 89.9497 9.13603 88.8671 9.13603C87.7844 9.13603 86.9257 9.46269 86.2911 10.116C85.6564 10.7694 85.3391 11.712 85.3391 12.944V20H80.9151Z" fill="white"/></svg>