<svg width="114" height="27" viewBox="0 0 114 27" fill="none" xmlns="http://www.w3.org/2000/svg"><path d="M27.9067 11.3111C27.9067 12.5033 27.6809 13.6142 27.2293 14.6438C26.7777 15.6734 26.0732 16.5675 25.1159 17.3262C24.1766 18.0668 22.9844 18.6538 21.5393 19.0874C20.0943 19.5209 18.3782 19.7467 16.3913 19.7647V21.7427H11.5684V19.7647C9.59946 19.7467 7.89247 19.5209 6.44741 19.0874C5.00234 18.6538 3.80113 18.0668 2.84377 17.3262C1.90448 16.5675 1.20904 15.6734 0.757453 14.6438C0.30587 13.6142 0.0800781 12.5033 0.0800781 11.3111C0.0800781 10.1189 0.30587 9.00802 0.757453 7.97841C1.20904 6.9488 1.90448 6.06369 2.84377 5.3231C3.80113 4.56444 5.00234 3.96835 6.44741 3.53483C7.89247 3.10131 9.59946 2.87552 11.5684 2.85745V0.879517H16.3913V2.85745C18.3782 2.87552 20.0943 3.10131 21.5393 3.53483C22.9844 3.96835 24.1766 4.56444 25.1159 5.3231C26.0732 6.06369 26.7777 6.9488 27.2293 7.97841C27.6809 9.00802 27.9067 10.1189 27.9067 11.3111ZM4.82171 11.3111C4.82171 11.9794 4.94815 12.6026 5.20104 13.1807C5.47199 13.7587 5.88744 14.2554 6.44741 14.6709C7.00737 15.0863 7.72087 15.4205 8.58791 15.6734C9.45495 15.9082 10.4846 16.0256 11.6767 16.0256H11.8122V6.59656H11.6767C10.4846 6.59656 9.45495 6.72301 8.58791 6.97589C7.72087 7.21072 7.00737 7.53586 6.44741 7.95131C5.88744 8.36677 5.47199 8.86351 5.20104 9.44154C4.94815 10.0196 4.82171 10.6428 4.82171 11.3111ZM16.31 16.0256C17.5022 16.0256 18.5318 15.9082 19.3988 15.6734C20.2659 15.4205 20.9703 15.0863 21.5122 14.6709C22.0722 14.2554 22.4786 13.7587 22.7315 13.1807C23.0025 12.6026 23.1379 11.9794 23.1379 11.3111C23.1379 10.6428 23.0025 10.0196 22.7315 9.44154C22.4786 8.86351 22.0722 8.36677 21.5122 7.95131C20.9703 7.53586 20.2659 7.21072 19.3988 6.97589C18.5318 6.72301 17.5022 6.59656 16.31 6.59656H16.1745V16.0256H16.31Z" fill="white"/><path d="M39.8335 21.1466C38.244 21.1466 36.8441 20.9569 35.6338 20.5776C34.4416 20.1983 33.4391 19.6835 32.6263 19.0332C31.8315 18.3648 31.2264 17.5971 30.8109 16.7301C30.4135 15.845 30.2148 14.9057 30.2148 13.9122C30.2148 12.9187 30.4135 11.9885 30.8109 11.1214C31.2264 10.2363 31.8315 9.46864 32.6263 8.81835C33.4391 8.15001 34.4416 7.62617 35.6338 7.24684C36.8441 6.86751 38.244 6.67785 39.8335 6.67785C41.4231 6.67785 42.814 6.86751 44.0062 7.24684C45.1984 7.62617 46.1918 8.15001 46.9866 8.81835C47.7995 9.46864 48.4046 10.2363 48.802 11.1214C49.2174 11.9885 49.4252 12.9187 49.4252 13.9122C49.4252 14.9057 49.2174 15.845 48.802 16.7301C48.4046 17.5971 47.7995 18.3648 46.9866 19.0332C46.1918 19.6835 45.1984 20.1983 44.0062 20.5776C42.814 20.9569 41.4231 21.1466 39.8335 21.1466ZM39.8335 17.7868C40.7367 17.7868 41.5134 17.6875 42.1637 17.4888C42.8321 17.272 43.392 16.992 43.8436 16.6488C44.2952 16.2875 44.6294 15.8721 44.8461 15.4024C45.0629 14.9328 45.1713 14.4361 45.1713 13.9122C45.1713 13.3884 45.0629 12.9007 44.8461 12.4491C44.6294 11.9794 44.2952 11.573 43.8436 11.2298C43.392 10.8685 42.8321 10.5886 42.1637 10.3899C41.5134 10.1731 40.7367 10.0647 39.8335 10.0647C38.9304 10.0647 38.1446 10.1731 37.4763 10.3899C36.8079 10.5886 36.248 10.8685 35.7964 11.2298C35.3448 11.573 35.0106 11.9794 34.7939 12.4491C34.5771 12.9007 34.4687 13.3884 34.4687 13.9122C34.4687 14.4361 34.5771 14.9328 34.7939 15.4024C35.0106 15.8721 35.3448 16.2875 35.7964 16.6488C36.248 16.992 36.8079 17.272 37.4763 17.4888C38.1446 17.6875 38.9304 17.7868 39.8335 17.7868Z" fill="white"/><path d="M52.326 25.9966V7.03008H56.607L55.9568 10.7692H56.4174C56.8328 9.50476 57.6005 8.51128 58.7205 7.78874C59.8584 7.04815 61.4029 6.67785 63.3537 6.67785C64.5278 6.67785 65.5845 6.85848 66.5238 7.21975C67.4812 7.56295 68.294 8.05969 68.9624 8.70997C69.6307 9.34219 70.1455 10.1009 70.5068 10.986C70.8681 11.8711 71.0487 12.8465 71.0487 13.9122C71.0487 14.978 70.8681 15.9534 70.5068 16.8385C70.1455 17.7236 69.6307 18.4913 68.9624 19.1416C68.294 19.7738 67.4812 20.2705 66.5238 20.6318C65.5845 20.975 64.5278 21.1466 63.3537 21.1466C61.4029 21.1466 59.8584 20.7853 58.7205 20.0628C57.6005 19.3222 56.8328 18.3287 56.4174 17.0823H55.9568C56.1374 17.8771 56.2909 18.6719 56.4174 19.4667C56.5438 20.2615 56.607 21.1195 56.607 22.0407V25.9966H52.326ZM61.728 17.7868C62.5589 17.7868 63.2905 17.6875 63.9227 17.4888C64.5549 17.2901 65.0788 17.0191 65.4942 16.6759C65.9277 16.3146 66.2529 15.8992 66.4696 15.4295C66.6864 14.9599 66.7948 14.4541 66.7948 13.9122C66.7948 13.3703 66.6864 12.8736 66.4696 12.422C66.2529 11.9523 65.9277 11.5459 65.4942 11.2027C65.0788 10.8414 64.5549 10.5615 63.9227 10.3628C63.2905 10.1641 62.5589 10.0647 61.728 10.0647C60.8971 10.0647 60.1565 10.1641 59.5062 10.3628C58.874 10.5615 58.3502 10.8414 57.9347 11.2027C57.5192 11.5459 57.2031 11.9523 56.9864 12.422C56.7696 12.8736 56.6612 13.3703 56.6612 13.9122C56.6612 14.4541 56.7696 14.9599 56.9864 15.4295C57.2031 15.8992 57.5192 16.3146 57.9347 16.6759C58.3502 17.0191 58.874 17.2901 59.5062 17.4888C60.1565 17.6875 60.8971 17.7868 61.728 17.7868Z" fill="white"/><path d="M85.7397 7.03008H90.6981L83.6805 20.9298C83.1747 21.9594 82.6418 22.8265 82.0819 23.5309C81.54 24.2535 80.9439 24.8315 80.2936 25.265C79.6614 25.7166 78.975 26.0418 78.2344 26.2404C77.5118 26.4391 76.708 26.5385 75.8229 26.5385C75.2449 26.5385 74.7481 26.5024 74.3327 26.4301C73.9172 26.3579 73.4747 26.2314 73.005 26.0508V22.5284C73.4205 22.691 73.7998 22.7994 74.143 22.8536C74.5043 22.9258 74.8836 22.962 75.281 22.962C76.2022 22.962 76.9519 22.8084 77.5299 22.5013C78.1079 22.2123 78.6047 21.6885 79.0201 20.9298L71.9212 7.03008H76.8796L80.402 14.9689C80.6187 15.547 80.7813 16.0708 80.8897 16.5404C81.0161 17.0101 81.0793 17.4526 81.0793 17.8681V17.9494H81.54V17.8681C81.54 17.0733 81.7567 16.1069 82.1902 14.9689L85.7397 7.03008Z" fill="white"/><path d="M92.7304 20.7943V7.03008H99.179L102.566 14.1561C102.71 14.5535 102.837 14.9509 102.945 15.3483C103.072 15.7456 103.135 16.0798 103.135 16.3508V16.4591H103.596V16.3508C103.596 16.0798 103.659 15.7456 103.785 15.3483C103.912 14.9509 104.047 14.5535 104.192 14.1561L107.578 7.03008H114V20.7943H109.936V13.289C109.936 12.4762 109.972 11.7536 110.044 11.1214C110.116 10.4892 110.225 9.90216 110.369 9.36026H109.909L105.411 18.7622H101.32L96.8218 9.36026H96.3882C96.5147 9.90216 96.614 10.4892 96.6863 11.1214C96.7766 11.7536 96.8218 12.4762 96.8218 13.289V20.7943H92.7304Z" fill="white"/></svg>