<svg width="16" height="16" viewBox="0 0 16 16" fill="none" xmlns="http://www.w3.org/2000/svg"><path fill-rule="evenodd" clip-rule="evenodd" d="M7.73478 12.424C7.82005 12.4752 7.91132 12.4979 7.99992 12.4968C8.08852 12.4979 8.17979 12.4752 8.26505 12.424L9.02192 11.97C10.5063 11.0794 12.3216 10.9339 13.9288 11.5768C14.5217 11.8139 15.1666 11.3773 15.1666 10.7388V2.96614C15.1666 2.58084 14.932 2.23436 14.5743 2.09126C12.5042 1.26324 10.1661 1.45059 8.25425 2.59767L7.99992 2.75028L7.74558 2.59767C5.83377 1.45059 3.49563 1.26324 1.42557 2.09126C1.06783 2.23436 0.833252 2.58084 0.833252 2.96614V10.7388C0.833252 11.3773 1.47818 11.8139 2.07107 11.5768C3.67827 10.9339 5.4936 11.0794 6.97792 11.97L7.73478 12.424ZM1.83325 3.00536V10.5966C3.69711 9.89789 5.78111 10.0857 7.49245 11.1124L7.49992 11.117V3.61647L7.23105 3.45516C5.59841 2.47557 3.60415 2.31001 1.83325 3.00536ZM8.50738 11.1124L8.49992 11.117V3.61647L8.76878 3.45516C10.4015 2.47557 12.3957 2.31001 14.1666 3.00536V10.5966C12.3027 9.89789 10.2187 10.0857 8.50738 11.1124Z" fill="#E6E6E7"/><path d="M6.18352 12.6949C4.83428 11.9078 3.16588 11.9078 1.81664 12.6949L1.74815 12.7348C1.50962 12.8739 1.42905 13.1801 1.56819 13.4186C1.70733 13.6571 2.01349 13.7377 2.25201 13.5986L2.32051 13.5586C3.35839 12.9532 4.64177 12.9532 5.67965 13.5586L6.40449 13.9815C7.39048 14.5566 8.60968 14.5566 9.59568 13.9815L10.3205 13.5586C11.3584 12.9532 12.6417 12.9532 13.6797 13.5586L13.7481 13.5986C13.9867 13.7377 14.2928 13.6571 14.4319 13.4186C14.5711 13.1801 14.4905 12.8739 14.252 12.7348L14.1835 12.6949C12.8343 11.9078 11.1659 11.9078 9.81661 12.6949L9.09181 13.1177C8.41721 13.5112 7.58295 13.5112 6.90835 13.1177L6.18352 12.6949Z" fill="#E6E6E7"/></svg>