<svg width="17" height="17" viewBox="0 0 17 17" fill="none" xmlns="http://www.w3.org/2000/svg"><path fill-rule="evenodd" clip-rule="evenodd" d="M8.03566 3.04989C8.198 3.00369 8.3692 3.00365 8.53146 3.04971C8.87653 3.14762 9.22473 3.23843 9.57406 3.32955C11.2146 3.75743 12.8808 4.19197 14.3631 5.39932L15.0457 5.95531C15.3226 6.18083 15.4611 6.51465 15.4613 6.84853V11.5152C15.4613 11.7913 15.2374 12.0152 14.9613 12.0152C14.6851 12.0152 14.4613 11.7913 14.4613 11.5152V8.21967L14.3527 8.30827C13.839 8.7274 13.3031 9.05293 12.7538 9.31713C12.7801 9.37786 12.7946 9.4448 12.7946 9.5152V12.3778C12.7946 13.1333 12.3311 13.8115 11.6272 14.0859L8.96053 15.1256C8.53226 15.2925 8.05693 15.2925 7.62866 15.1256L4.962 14.0859C4.25808 13.8115 3.7946 13.1333 3.7946 12.3778V9.5152C3.7946 9.44306 3.80988 9.37446 3.83738 9.31253C3.28382 9.04673 2.74375 8.7194 2.22609 8.29773L1.54346 7.74173C0.98969 7.29071 0.989403 6.40649 1.5427 5.95498L2.23654 5.38878C3.70818 4.18789 5.36255 3.75594 6.99093 3.33077C7.34106 3.23935 7.69 3.14825 8.03566 3.04989ZM14.4613 6.84893C14.4613 6.78887 14.437 6.74921 14.4142 6.73067L13.7316 6.17468C12.2946 5.18187 11.0142 4.74399 9.38786 4.31664C9.03026 4.22267 8.66253 4.12604 8.28393 4.01893C7.9036 4.12681 7.53453 4.22391 7.17573 4.3183C5.56246 4.74272 4.15675 5.11254 2.86878 6.16355L2.17493 6.72976C2.15214 6.74835 2.1279 6.78807 2.12793 6.84813C2.12796 6.90819 2.15222 6.94785 2.17498 6.9664L2.85762 7.5224C4.1565 8.58033 5.57503 8.95306 7.20133 9.3804C7.55893 9.4744 7.92666 9.571 8.30526 9.67813C8.6856 9.57026 9.0546 9.4732 9.4134 9.3788C11.0267 8.95433 12.4325 8.58453 13.7204 7.53353L14.4143 6.9673C14.4371 6.94872 14.4613 6.90889 14.4613 6.84893ZM9.59826 10.3663C10.3315 10.1749 11.0699 9.98206 11.7946 9.71826V12.3778C11.7946 12.7213 11.5839 13.0295 11.2639 13.1542L8.59726 14.1939C8.40266 14.2697 8.18653 14.2697 7.99193 14.1939L5.32524 13.1542C5.00527 13.0295 4.7946 12.7213 4.7946 12.3778V9.7126C5.52711 9.9794 6.27372 10.1741 7.01513 10.3675C7.36446 10.4586 7.71266 10.5495 8.05773 10.6473C8.22 10.6934 8.39126 10.6934 8.55353 10.6472C8.8992 10.5488 9.24813 10.4577 9.59826 10.3663Z" fill="#E6E6E7"/></svg>