<svg width="16" height="16" viewBox="0 0 16 16" fill="none" xmlns="http://www.w3.org/2000/svg"><path fill-rule="evenodd" clip-rule="evenodd" d="M0.666626 3.85429C0.666626 2.43065 1.75043 1.33331 3.1754 1.33331H9.49116C10.9315 1.33331 12 2.51253 12 3.85429V7.82778C12 9.26691 10.8348 10.3488 9.49116 10.3488H5.34645C4.9144 10.3488 4.5225 10.4908 4.1593 10.7513L1.72797 12.5372C1.52542 12.686 1.25641 12.7083 1.03219 12.5948C0.807959 12.4812 0.666626 12.2513 0.666626 12V3.85429ZM1.99996 10.683L3.3783 9.67058C3.93542 9.27005 4.59533 9.01545 5.34645 9.01545H9.49116C10.1213 9.01545 10.6666 8.50791 10.6666 7.82778V3.85429C10.6666 3.20928 10.1561 2.66665 9.49116 2.66665H3.1754C2.4951 2.66665 1.99996 3.15871 1.99996 3.85429V10.683Z" fill="#E6E6E7"/><path fill-rule="evenodd" clip-rule="evenodd" d="M13.0203 5.74723C13.1599 5.40653 13.5493 5.24349 13.89 5.38307C14.73 5.72722 15.3333 6.52274 15.3333 7.45498V14.6666C15.3333 14.9112 15.1995 15.136 14.9845 15.2526C14.7695 15.3692 14.5081 15.3588 14.3031 15.2254L11.9697 13.7072C11.9552 13.6977 11.941 13.6876 11.9272 13.677C11.6712 13.4804 11.2844 13.3722 10.8235 13.3722H6.91172C5.9873 13.3722 5.12602 12.8617 4.73282 12.0462C4.5729 11.7146 4.71214 11.316 5.04379 11.1562C5.37544 10.9962 5.77393 11.1354 5.93384 11.4671C6.08965 11.7903 6.46366 12.0389 6.91172 12.0389H10.8235C11.4523 12.0389 12.1533 12.18 12.717 12.6026L14 13.4375V7.45498C14 7.12198 13.7798 6.77878 13.3845 6.61687C13.0438 6.47729 12.8808 6.08794 13.0203 5.74723Z" fill="#E6E6E7"/></svg>