<svg width="16" height="16" viewBox="0 0 16 16" fill="none" xmlns="http://www.w3.org/2000/svg"><path fill-rule="evenodd" clip-rule="evenodd" d="M6.99094 2.74281C7.44054 1.96797 8.55948 1.96797 9.00908 2.74281L10.386 5.11572C10.5129 5.33445 10.7323 5.48371 10.9823 5.52147L13.2687 5.86681C14.2654 6.01734 14.615 7.27575 13.8388 7.91875L12.1729 9.29902C11.9391 9.49269 11.8291 9.79829 11.8859 10.0966L12.3526 12.5472C12.5354 13.5072 11.5276 14.2531 10.6629 13.7978L8.38828 12.6001C8.14521 12.4721 7.85481 12.4721 7.61174 12.6001L5.33707 13.7978C4.4724 14.2531 3.46464 13.5072 3.64744 12.5472L4.1141 10.0966C4.1709 9.79829 4.06095 9.49269 3.82712 9.29902L2.16119 7.91875C1.385 7.27575 1.7346 6.01734 2.73126 5.86681L5.0177 5.52147C5.26774 5.48371 5.4871 5.33445 5.61402 5.11572L6.99094 2.74281ZM8.14414 3.2447C8.07994 3.13401 7.92008 3.13401 7.85588 3.2447L6.47895 5.61761C6.19974 6.0988 5.71713 6.42717 5.16704 6.51025L2.88061 6.85562C2.73823 6.87709 2.68828 7.05689 2.79917 7.14875L4.4651 8.52895C4.97952 8.95515 5.22141 9.62742 5.09644 10.2836L4.62979 12.7343C4.60368 12.8714 4.74764 12.978 4.87116 12.913L7.14587 11.7152C7.68047 11.4337 8.31954 11.4337 8.85414 11.7152L11.1289 12.913C11.2524 12.978 11.3963 12.8714 11.3702 12.7343L10.9036 10.2836C10.7786 9.62742 11.0205 8.95515 11.5349 8.52895L13.2009 7.14875C13.3117 7.05689 13.2618 6.87709 13.1194 6.85562L10.833 6.51025C10.2829 6.42717 9.80027 6.0988 9.52108 5.61761L8.14414 3.2447Z" fill="#E6E6E7"/></svg>