<svg width="16" height="16" viewBox="0 0 16 16" fill="none" xmlns="http://www.w3.org/2000/svg"><path fill-rule="evenodd" clip-rule="evenodd" d="M4.35677 2.16669C3.96669 2.16669 3.60242 2.36164 3.38604 2.6862L0.993226 6.27543C0.84674 6.49516 0.82922 6.77655 0.94732 7.01275C2.25673 9.63155 4.07643 11.9622 6.29947 13.8676L7.46665 14.8681C7.77351 15.1312 8.22645 15.1312 8.53331 14.8681L9.70051 13.8676C11.9235 11.9622 13.7432 9.63155 15.0526 7.01275C15.1707 6.77655 15.1532 6.49516 15.0067 6.27543L12.6139 2.6862C12.3975 2.36164 12.0332 2.16669 11.6432 2.16669H4.35677ZM4.21809 3.2409C4.249 3.19454 4.30104 3.16669 4.35677 3.16669H5.91664L4.63989 6.23088C4.61049 6.30146 4.58829 6.37425 4.57333 6.44818C4.10411 6.41325 3.63529 6.37115 3.16703 6.32186L2.22989 6.22321L4.21809 3.2409ZM2.18575 7.22409C3.38135 9.41742 4.96012 11.381 6.84878 13.0208L4.76515 7.46449C4.19692 7.42542 3.62923 7.37602 3.06235 7.31635L2.18575 7.22409ZM5.85652 7.52682L7.99998 13.2427L10.1434 7.52682C8.71518 7.59175 7.28478 7.59175 5.85652 7.52682ZM11.2348 7.46449L9.15118 13.0208C11.0398 11.381 12.6186 9.41742 13.8142 7.22409L12.9376 7.31635C12.3707 7.37602 11.803 7.42542 11.2348 7.46449ZM13.77 6.22321L12.8329 6.32186C12.3646 6.37115 11.8958 6.41325 11.4266 6.44818C11.4116 6.37425 11.3894 6.30146 11.36 6.23088L10.0833 3.16669H11.6432C11.6989 3.16669 11.751 3.19454 11.7818 3.24091L13.77 6.22321ZM10.3944 6.51339C8.79918 6.59623 7.20078 6.59623 5.60551 6.51339L6.99998 3.16669H8.99998L10.3944 6.51339Z" fill="#E6E6E7"/></svg>