<svg width="15" height="15" viewBox="0 0 15 15" fill="none" xmlns="http://www.w3.org/2000/svg"><path d="M14.0067 5.49531C13.819 4.87089 13.2556 4.37134 12.6296 4.3089L10.0004 3.93424L8.81104 1.43653C8.49809 0.74966 7.93468 0.375 7.24608 0.375C6.55748 0.375 5.99414 0.74966 5.68113 1.37409L4.49175 3.8718L1.8626 4.3089C1.23661 4.43379 0.673224 4.87089 0.485426 5.49531C0.235032 6.18218 0.42283 6.86906 0.923618 7.36859L2.86418 9.30432L2.42599 12.0518C2.30079 12.7387 2.61378 13.4255 3.17717 13.8002C3.49017 13.9876 3.80316 14.1124 4.17875 14.1124C4.49175 14.1124 4.74214 14.05 4.99254 13.9251L7.37127 12.6138L9.75002 13.9251C10.3134 14.2373 11.002 14.1748 11.5654 13.8002C12.1288 13.4255 12.4418 12.7387 12.3166 12.0518L11.8784 9.30432L13.819 7.36859C14.0694 6.86906 14.2571 6.11975 14.0067 5.49531Z" fill="#FFC600"/></svg>