<svg width="215" height="48" viewBox="0 0 215 48" fill="none" xmlns="http://www.w3.org/2000/svg"><path fill-rule="evenodd" clip-rule="evenodd" d="M128.292 1.26101C132.658 1.86035 136.963 2.98366 140.6 4.06307C147.724 6.17702 154.901 10.4749 160.188 16.1721C177.652 15.5751 192.336 11.6302 208.121 4.08115C206.525 3.95827 204.992 3.84416 203.459 3.84416C202.63 3.84416 201.959 3.17259 201.959 2.34416C201.959 1.51573 202.63 0.844159 203.459 0.844159C205.162 0.844159 206.847 0.974011 208.466 1.09887L208.496 1.10122C210.144 1.22825 211.726 1.3494 213.311 1.3494C213.835 1.3494 214.296 1.61803 214.564 2.0251C214.67 2.13145 214.761 2.25555 214.834 2.39587C215.213 3.13236 214.923 4.0369 214.187 4.41621C214.135 4.44291 214.083 4.46957 214.031 4.4962C212.497 7.37101 211.527 9.53604 211.527 12.449C211.527 13.2774 210.855 13.949 210.027 13.949C209.198 13.949 208.527 13.2774 208.527 12.449C208.527 10.2644 208.976 8.41849 209.669 6.66597C194.169 14.1103 179.632 18.1913 162.618 19.0706C163.145 19.771 163.644 20.488 164.111 21.2204C166.007 24.194 166.588 27.0484 166.078 29.7034C165.574 32.3238 164.045 34.5475 162.101 36.3739C158.244 39.9977 152.41 42.3845 147.899 43.5331C118.181 51.1007 83.4631 45.0971 54.6053 38.809L53.7429 38.6212C37.0488 34.9855 15.9899 30.3993 1.09437 20.5576C0.403185 20.101 0.213078 19.1704 0.669754 18.4793C1.12643 17.7881 2.05696 17.598 2.74814 18.0546C17.1702 27.5835 37.7715 32.0715 54.6564 35.7498L55.244 35.8778C84.1384 42.1739 118.208 47.9981 147.159 40.6258C151.432 39.5378 156.713 37.3201 160.047 34.1876C161.698 32.6359 162.784 30.9435 163.132 29.1369C163.472 27.3649 163.142 25.2814 161.581 22.8333C160.781 21.5783 159.875 20.3689 158.882 19.2132L157.941 19.2411C151.66 19.4283 144.374 19.6454 137.185 19.1202C129.376 18.5497 121.529 17.0962 115.085 13.6784C112.496 12.3051 110.481 10.0359 110.229 7.5435C110.098 6.24311 110.466 4.95325 111.403 3.87945C112.314 2.83495 113.679 2.08768 115.405 1.6323C119.425 0.571838 123.939 0.663552 128.292 1.26101ZM156.072 16.2947C151.429 11.9729 145.58 8.6702 139.747 6.93911C136.17 5.87772 132.032 4.80247 127.884 4.23314C123.723 3.66191 119.651 3.61482 116.17 4.53306C114.822 4.88884 114.062 5.39481 113.664 5.85168C113.291 6.27927 113.163 6.73892 113.214 7.24222C113.327 8.35723 114.387 9.91214 116.491 11.0281C122.397 14.1608 129.761 15.5698 137.403 16.1281C143.771 16.5933 150.227 16.4628 156.072 16.2947Z" fill="#FCCD03"/></svg>