<svg width="17" height="16" viewBox="0 0 17 16" fill="none" xmlns="http://www.w3.org/2000/svg"><path fill-rule="evenodd" clip-rule="evenodd" d="M5.47522 4.99984C5.47522 3.43503 6.7465 2.1665 8.3147 2.1665C9.8829 2.1665 11.1542 3.43503 11.1542 4.99984C11.1542 6.56464 9.8829 7.83317 8.3147 7.83317C6.7465 7.83317 5.47522 6.56464 5.47522 4.99984ZM8.3147 3.1665C7.29997 3.1665 6.47739 3.98732 6.47739 4.99984C6.47739 6.01236 7.29997 6.83317 8.3147 6.83317C9.32943 6.83317 10.152 6.01236 10.152 4.99984C10.152 3.98732 9.32943 3.1665 8.3147 3.1665Z" fill="white"/><path fill-rule="evenodd" clip-rule="evenodd" d="M5.64227 9.8335C4.81204 9.8335 4.13901 10.5051 4.13901 11.3335V12.1257C4.13901 12.1378 4.14777 12.148 4.1597 12.15C6.9115 12.5983 9.71796 12.5983 12.4697 12.15C12.4817 12.148 12.4904 12.1378 12.4904 12.1257V11.3335C12.4904 10.5051 11.8174 9.8335 10.9872 9.8335H10.7594C10.7418 9.8335 10.7243 9.8363 10.7076 9.8417L10.1293 10.0302C8.95023 10.4143 7.67921 10.4143 6.50011 10.0302L5.92185 9.8417C5.90512 9.8363 5.88761 9.8335 5.87001 9.8335H5.64227ZM3.13684 11.3335C3.13684 9.95276 4.25856 8.8335 5.64227 8.8335H5.87001C5.99327 8.8335 6.11575 8.85296 6.23293 8.8911L6.81119 9.07956C7.78818 9.39783 8.84126 9.39783 9.81824 9.07956L10.3965 8.8911C10.5137 8.85296 10.6361 8.8335 10.7594 8.8335H10.9872C12.3709 8.8335 13.4926 9.95276 13.4926 11.3335V12.1257C13.4926 12.6278 13.1279 13.056 12.6312 13.1369C9.77248 13.6026 6.85696 13.6026 3.99822 13.1369C3.50155 13.056 3.13684 12.6278 3.13684 12.1257V11.3335Z" fill="white"/></svg>