<svg width="42" height="42" viewBox="0 0 42 42" fill="none" xmlns="http://www.w3.org/2000/svg"><path d="M28.4351 32.1799C28.3329 33.5921 28.1908 34.9898 28.0006 36.3479C27.9544 36.6779 27.5549 36.8228 27.2969 36.606L25.3837 34.9981C25.0754 34.739 24.6248 34.7246 24.2999 34.9635L21.91 36.7209C21.602 36.9475 21.1784 36.9475 20.8703 36.7209L18.4442 34.9369C18.1362 34.7104 17.7126 34.7104 17.4045 34.9369L14.9785 36.7209C14.6704 36.9475 14.2468 36.9475 13.9387 36.7209L11.5488 34.9635C11.2239 34.7246 10.7734 34.739 10.4651 34.9981L8.54323 36.6132C8.28711 36.8285 7.89014 36.6871 7.83909 36.3602C6.46204 27.5414 7.05857 18.9401 7.70182 13.7304C7.83835 12.6247 8.72367 11.7612 9.85345 11.6453C10.4323 11.5858 11.0215 11.5356 11.6169 11.4937M17.6799 10.9361H24.1783M17.6799 16.0333H31.5431M17.6799 21.1304H31.5431M10.4492 25.7103H13.208M10.4492 20.5897H13.208M32.5168 5.05304C28.5365 4.72235 22.0713 4.44971 16.5406 5.01734C15.4108 5.1333 14.5255 5.99679 14.3889 7.10249C13.7457 12.3122 13.1492 20.9135 14.5262 29.7322C14.5773 30.0592 14.9742 30.2006 15.2304 29.9853L17.1522 28.3702C17.4605 28.1111 17.9111 28.0967 18.2359 28.3356L20.6258 30.093C20.9339 30.3195 21.3575 30.3195 21.6656 30.093L24.0916 28.309C24.3997 28.0824 24.8233 28.0824 25.1314 28.309L27.5574 30.093C27.8655 30.3195 28.2891 30.3195 28.5972 30.093L30.9871 28.3356C31.3119 28.0967 31.7625 28.1111 32.0708 28.3702L33.984 29.9781C34.242 30.1949 34.6415 30.05 34.6877 29.72C35.7722 21.9779 35.2925 12.9488 34.779 7.26791C34.672 6.08457 33.7241 5.15334 32.5168 5.05304Z" stroke="#FEF5CD" stroke-width="1.84561" stroke-linecap="round"/></svg>