<svg width="37" height="36" viewBox="0 0 37 36" fill="none" xmlns="http://www.w3.org/2000/svg"><path d="M29.1226 17.8669C29.1226 23.7173 24.3799 28.4599 18.5296 28.4599M29.1226 17.8669C29.1226 12.0166 24.3799 7.27393 18.5296 7.27393M29.1226 17.8669H7.93657M18.5296 28.4599C12.6792 28.4599 7.93657 23.7173 7.93657 17.8669M18.5296 28.4599V7.27393M18.5296 28.4599C21.7798 28.4599 24.4146 23.7173 24.4146 17.8669M18.5296 28.4599C15.2794 28.4599 12.6446 23.7173 12.6446 17.8669M7.93657 17.8669C7.93657 12.0166 12.6792 7.27393 18.5296 7.27393M18.5296 7.27393C15.2794 7.27393 12.6446 12.0166 12.6446 17.8669M18.5296 7.27393C21.7798 7.27393 24.4146 12.0166 24.4146 17.8669M24.4146 17.8669H12.6446" stroke="#FEF5CD" stroke-width="1.84561"/></svg>