<svg width="424" height="66" viewBox="0 0 424 66" fill="none" xmlns="http://www.w3.org/2000/svg"><path d="M143.438 22.0511C144.99 22.0511 146.551 22.1262 148.121 22.2765C149.692 22.4267 151.197 22.6685 152.638 23.0066C154.077 23.3423 155.425 23.7649 156.676 24.2696C157.93 24.7743 159.019 25.3824 159.944 26.0937C160.869 26.805 161.594 27.622 162.118 28.547C162.641 29.4719 162.904 30.5072 162.904 31.6458L155.723 32.7117C155.723 31.9064 155.375 31.1833 154.685 30.5378C153.993 29.8922 153.077 29.3499 151.936 28.9108C150.795 28.4718 149.485 28.1361 148.009 27.9014C146.532 27.6666 145.008 27.5516 143.435 27.5516C141.94 27.5516 140.463 27.6596 139.003 27.8732C137.545 28.0892 136.24 28.4108 135.09 28.8404C133.939 29.2724 133.003 29.8076 132.284 30.4532C131.563 31.0988 131.204 31.8524 131.204 32.7117V44.3817C131.204 45.2409 131.563 45.9851 132.284 46.6119C133.005 47.2388 133.939 47.7623 135.09 48.1825C136.24 48.6027 137.543 48.915 139.003 49.1216C140.463 49.3281 141.94 49.4291 143.435 49.4291C145.006 49.4291 146.53 49.3188 148.009 49.0934C149.485 48.8704 150.795 48.5464 151.936 48.1262C153.077 47.7059 153.993 47.1824 154.685 46.5556C155.378 45.9288 155.723 45.2034 155.723 44.3817L162.904 46.1753C162.904 47.1848 162.641 48.1121 162.118 48.9525C161.594 49.793 160.871 50.5466 159.944 51.2109C159.019 51.8753 157.93 52.4505 156.676 52.9364C155.425 53.4224 154.077 53.8239 152.638 54.1431C151.199 54.4601 149.692 54.6995 148.121 54.8591C146.551 55.0164 144.99 55.0963 143.438 55.0963C141.886 55.0963 140.327 55.0164 138.768 54.8591C137.207 54.6995 135.705 54.4601 134.266 54.1431C132.826 53.8239 131.484 53.4224 130.239 52.9364C128.995 52.4505 127.911 51.8753 126.986 51.2109C126.061 50.5489 125.335 49.8 124.812 48.9666C124.288 48.1356 124.028 47.2059 124.028 46.1753V31.6458C124.028 30.5072 124.288 29.4719 124.812 28.547C125.335 27.622 126.061 26.8027 126.986 26.0937C127.911 25.3824 128.995 24.7767 130.239 24.2696C131.484 23.7649 132.824 23.3446 134.266 23.0066C135.705 22.6709 137.207 22.4267 138.768 22.2765C140.327 22.1262 141.884 22.0511 143.438 22.0511Z" fill="white"/><path d="M169.189 24.2391C169.712 24.0912 170.482 23.9034 171.504 23.678C172.522 23.455 173.734 23.2437 175.135 23.0465C176.537 22.8493 178.103 22.6803 179.833 22.5418C181.561 22.4009 183.418 22.3305 185.399 22.3305C188.914 22.3305 192.015 22.5934 194.698 23.117C197.381 23.6405 199.63 24.5279 201.445 25.7815C203.26 27.0351 204.629 28.6996 205.554 30.7749C206.479 32.8502 206.943 35.442 206.943 38.5456C206.943 41.5928 206.439 44.1423 205.429 46.1894C204.42 48.2366 203.035 49.8775 201.279 51.1124C199.52 52.3472 197.464 53.2253 195.107 53.7488C192.75 54.2723 190.226 54.5352 187.533 54.5352C185.326 54.5352 183.279 54.4038 181.389 54.1432C179.5 53.8826 177.826 53.4506 176.368 52.852V65.1935H169.189V24.2391ZM185.737 28.3334C184.521 28.3334 183.441 28.3709 182.498 28.4461C181.551 28.5212 180.702 28.6198 179.943 28.7395C179.185 28.8593 178.516 29.0001 177.938 29.1597C177.359 29.3194 176.835 29.4908 176.368 29.6786V47.6309C177.173 47.8539 177.924 48.037 178.626 48.1779C179.328 48.3187 180.086 48.4267 180.899 48.4995C181.711 48.5746 182.648 48.6263 183.704 48.6544C184.761 48.6826 186.038 48.6967 187.533 48.6967C189.74 48.6967 191.625 48.4408 193.186 47.9267C194.747 47.4125 196.029 46.7059 197.029 45.8091C198.029 44.91 198.762 43.8395 199.231 42.5976C199.699 41.3533 199.931 40.0011 199.931 38.5432C199.931 36.5618 199.612 34.9161 198.978 33.6062C198.342 32.2962 197.417 31.2491 196.201 30.465C194.985 29.6786 193.498 29.1269 191.74 28.81C189.984 28.493 187.982 28.3334 185.737 28.3334Z" fill="white"/><path d="M232.359 22.5559C233.293 22.5559 234.425 22.6029 235.753 22.6968C237.082 22.7907 238.465 22.9527 239.906 23.1874C241.345 23.4222 242.77 23.7391 244.184 24.1406C245.595 24.542 246.867 25.0655 247.999 25.7111C249.13 26.3567 250.041 27.1291 250.734 28.0259C251.426 28.9227 251.771 29.9791 251.771 31.1952V52.906C250.201 53.2229 248.424 53.4929 246.442 53.7183C244.74 53.9249 242.712 54.1103 240.355 54.2794C237.998 54.4484 235.371 54.5329 232.474 54.5329C229.593 54.5329 226.532 54.4108 223.288 54.1667C220.043 53.9249 216.653 53.5047 213.12 52.906V42.8065C213.12 41.7219 213.376 40.7711 213.89 39.9589C214.404 39.1466 215.111 38.4493 216.008 37.8695C216.904 37.2896 217.961 36.813 219.177 36.4398C220.393 36.0665 221.703 35.766 223.104 35.543C224.506 35.3176 225.966 35.165 227.48 35.0805C228.995 34.996 230.509 34.9537 232.023 34.9537C234.324 34.9537 236.282 35.0993 237.899 35.388C239.517 35.6791 240.86 35.9914 241.923 36.3271C243.158 36.7379 244.177 37.198 244.982 37.7028V33.1578C244.982 32.3901 244.794 31.7328 244.421 31.1811C244.048 30.6294 243.543 30.1622 242.907 29.7772C242.27 29.3945 241.54 29.0847 240.719 28.8522C239.895 28.6198 239.035 28.4367 238.139 28.3052C237.242 28.1761 236.329 28.0916 235.404 28.054C234.479 28.0165 233.612 27.9977 232.809 27.9977C231.967 27.9977 231.07 28.0212 230.117 28.0681C229.164 28.1151 228.213 28.2043 227.269 28.3334C226.323 28.4649 225.417 28.648 224.548 28.8804C223.68 29.1152 222.907 29.4274 222.236 29.8195C221.562 30.2139 221.024 30.6857 220.623 31.2374C220.222 31.7891 220.02 32.4488 220.02 33.2141L213.064 31.4182C213.064 30.1669 213.371 29.0753 213.989 28.1503C214.606 27.2253 215.423 26.4342 216.442 25.7792C217.461 25.1242 218.635 24.5866 219.963 24.1664C221.29 23.7462 222.67 23.4175 224.1 23.1827C225.53 22.9503 226.955 22.786 228.377 22.6921C229.795 22.6029 231.124 22.5559 232.359 22.5559ZM244.982 43.0882C244.515 42.6774 243.935 42.276 243.242 41.8816C242.55 41.4872 241.7 41.1374 240.688 40.8298C239.676 40.5223 238.477 40.2687 237.085 40.0715C235.692 39.8743 234.058 39.7781 232.19 39.7781C230.525 39.7781 228.95 39.811 227.464 39.8767C225.978 39.9424 224.673 40.1302 223.55 40.4378C222.428 40.7453 221.539 41.236 220.886 41.9097C220.231 42.5835 219.902 43.5202 219.902 44.7151V48.3047C221.548 48.5652 223.363 48.7812 225.344 48.9503C227.325 49.1193 229.532 49.2038 231.964 49.2038C233.908 49.2038 235.981 49.1334 238.179 48.9925C240.376 48.8517 242.644 48.5676 244.982 48.138V43.0882Z" fill="white"/><path d="M266.524 45.1095C267.197 45.1095 267.867 45.1658 268.531 45.2785C269.193 45.3912 269.787 45.5602 270.313 45.7833C270.836 46.0063 271.261 46.2974 271.59 46.6542C271.916 47.0087 272.081 47.429 272.081 47.9149V52.0115C272.081 52.4599 271.916 52.8449 271.59 53.1619C271.261 53.4811 270.836 53.7417 270.313 53.9483C269.789 54.1549 269.195 54.3051 268.531 54.3967C267.867 54.4906 267.197 54.5376 266.524 54.5376C265.85 54.5376 265.186 54.4906 264.533 54.3967C263.878 54.3028 263.289 54.1526 262.765 53.9483C262.242 53.7417 261.821 53.4811 261.502 53.1619C261.185 52.8449 261.026 52.4623 261.026 52.0115V47.9149C261.026 47.429 261.185 47.0087 261.502 46.6542C261.821 46.2974 262.242 46.0086 262.765 45.7833C263.289 45.5602 263.878 45.3912 264.533 45.2785C265.186 45.1635 265.85 45.1095 266.524 45.1095Z" fill="white"/><path d="M298.334 22.0511C299.886 22.0511 301.447 22.1262 303.018 22.2765C304.588 22.4267 306.093 22.6685 307.534 23.0066C308.974 23.3423 310.321 23.7649 311.572 24.2696C312.826 24.7743 313.915 25.3824 314.84 26.0937C315.765 26.805 316.491 27.622 317.014 28.547C317.538 29.4719 317.801 30.5072 317.801 31.6458L310.619 32.7117C310.619 31.9064 310.272 31.1833 309.582 30.5378C308.889 29.8922 307.973 29.3499 306.833 28.9108C305.692 28.4718 304.382 28.1361 302.905 27.9014C301.428 27.6666 299.905 27.5516 298.332 27.5516C296.836 27.5516 295.36 27.6596 293.899 27.8732C292.442 28.0892 291.136 28.4108 289.986 28.8404C288.836 29.2724 287.901 29.8076 287.181 30.4532C286.46 31.0988 286.101 31.8524 286.101 32.7117V44.3817C286.101 45.2409 286.46 45.9851 287.181 46.6119C287.901 47.2388 288.836 47.7623 289.986 48.1825C291.136 48.6027 292.439 48.915 293.899 49.1216C295.36 49.3281 296.836 49.4291 298.332 49.4291C299.902 49.4291 301.426 49.3188 302.905 49.0934C304.382 48.8704 305.692 48.5464 306.833 48.1262C307.973 47.7059 308.889 47.1824 309.582 46.5556C310.274 45.9288 310.619 45.2034 310.619 44.3817L317.801 46.1753C317.801 47.1848 317.538 48.1121 317.014 48.9525C316.491 49.793 315.768 50.5466 314.84 51.2109C313.915 51.8753 312.826 52.4505 311.572 52.9364C310.321 53.4224 308.974 53.8239 307.534 54.1431C306.095 54.4601 304.588 54.6995 303.018 54.8591C301.447 55.0164 299.886 55.0963 298.334 55.0963C296.782 55.0963 295.223 55.0164 293.665 54.8591C292.103 54.6995 290.601 54.4601 289.162 54.1431C287.723 53.8239 286.38 53.4224 285.136 52.9364C283.892 52.4505 282.807 51.8753 281.882 51.2109C280.957 50.5489 280.232 49.8 279.708 48.9666C279.185 48.1356 278.924 47.2059 278.924 46.1753V31.6458C278.924 30.5072 279.185 29.4719 279.708 28.547C280.232 27.622 280.957 26.8027 281.882 26.0937C282.807 25.3824 283.892 24.7767 285.136 24.2696C286.38 23.7649 287.72 23.3446 289.162 23.0066C290.601 22.6709 292.103 22.4267 293.665 22.2765C295.223 22.1262 296.78 22.0511 298.334 22.0511Z" fill="white"/><path d="M331.882 54.5328H325.487V12.4023H331.882V54.5328Z" fill="white"/><path d="M348.712 44.3794C348.712 45.2387 349.026 45.9594 349.653 46.5392C350.278 47.1191 351.12 47.591 352.177 47.9549C353.233 48.3211 354.454 48.5817 355.837 48.7413C357.222 48.901 358.661 48.9808 360.156 48.9808C361.727 48.9808 363.204 48.8916 364.589 48.7132C365.974 48.5347 367.178 48.2648 368.209 47.9009C369.237 47.5346 370.049 47.0628 370.648 46.4853C371.247 45.9054 371.547 45.2034 371.547 44.3818V22.5559L379.008 23.117V46.173C379.008 47.1825 378.759 48.1098 378.266 48.9503C377.771 49.7907 377.083 50.5443 376.205 51.2087C375.327 51.8731 374.287 52.4482 373.092 52.9342C371.895 53.4201 370.601 53.8216 369.206 54.1409C367.814 54.4578 366.347 54.6972 364.802 54.8569C363.26 55.0142 361.713 55.094 360.159 55.094C358.588 55.094 357.036 55.0142 355.503 54.8569C353.97 54.6972 352.506 54.4578 351.113 54.1409C349.721 53.8216 348.425 53.4201 347.228 52.9342C346.031 52.4482 344.993 51.8731 344.115 51.2087C343.237 50.5466 342.547 49.7978 342.054 48.9643C341.559 48.1333 341.31 47.2036 341.31 46.173V23.117L348.714 22.5559V44.3794H348.712Z" fill="white"/><path d="M405.712 22.5559C408.59 22.5559 411.168 22.7578 413.438 23.1593C415.711 23.5607 417.626 24.1828 419.187 25.0256C420.749 25.8661 421.941 26.9319 422.765 28.2231C423.587 29.5119 424 31.0449 424 32.8221V44.2668C424 46.0439 423.589 47.5769 422.765 48.8681C421.941 50.157 420.751 51.2251 419.187 52.0656C417.626 52.906 415.711 53.5282 413.438 53.9319C411.168 54.3334 408.59 54.5353 405.712 54.5353C404.102 54.5353 402.444 54.4508 400.735 54.2817C399.026 54.1127 397.369 53.9507 395.76 53.7911C394.155 53.6338 392.687 53.4061 391.354 53.1103C390.023 52.8145 388.88 52.5609 387.926 52.3473V11.8414H395.277V24.5749C396.941 23.9762 398.683 23.4903 400.507 23.117C402.331 22.7437 404.064 22.5559 405.712 22.5559ZM403.691 27.7747C402.719 27.7747 401.829 27.8404 401.026 27.9719C400.221 28.1034 399.479 28.2701 398.796 28.4766C398.113 28.6832 397.481 28.9133 396.901 29.1645C396.322 29.418 395.779 29.6645 395.275 29.9063V47.5816C395.779 47.7506 396.04 47.8352 396.054 47.8375C396.068 47.8399 396.077 47.8422 396.075 47.8399C396.073 47.8399 397.453 48.0206 400.216 48.3822C402.979 48.7437 404.693 48.9245 405.362 48.9245C406.372 48.9245 407.358 48.9104 408.318 48.8822C409.278 48.854 410.175 48.7742 411.006 48.6451C411.837 48.5136 412.598 48.3164 413.29 48.0558C413.983 47.7953 414.577 47.4243 415.074 46.9478C415.572 46.4712 415.957 45.8819 416.234 45.1823C416.511 44.4804 416.65 43.6165 416.65 42.5859V34.3387C416.65 32.862 416.305 31.6882 415.612 30.8196C414.919 29.9486 413.985 29.2913 412.807 28.8429C411.63 28.3945 410.255 28.1057 408.684 27.9743C407.114 27.8404 405.449 27.7747 403.691 27.7747Z" fill="white"/><path d="M16.0296 41.1938L8.47493 15.6939L30.7163 22.4574L49.7086 9.18861L69.0859 22.4574L90.2122 16.154L84.7751 31.7329H91.0597L99.105 8.40215L96.4005 7.39267L75.9645 0L73.8586 5.67421L87.6721 10.6723L69.0859 15.823L49.7086 2.26076L30.7163 15.823L0 6.14139L10.1018 41.1938H16.0296Z" fill="white"/><path d="M13.4238 54.5353L14.1751 56.6693H83.423L84.1014 54.5353L85.348 50.6547H12.2125L13.4238 54.5353Z" fill="white"/></svg>