<svg width="32" height="31" viewBox="0 0 32 31" fill="none" xmlns="http://www.w3.org/2000/svg"><path fill-rule="evenodd" clip-rule="evenodd" d="M15.3217 4.33427C15.6338 4.24545 15.9629 4.24537 16.2749 4.33392C16.9383 4.52216 17.6077 4.69675 18.2793 4.87193C21.4332 5.69451 24.6365 6.52993 27.4863 8.85106L28.7986 9.91995C29.3309 10.3535 29.5972 10.9953 29.5975 11.6372V20.6089C29.5975 21.1397 29.1671 21.5701 28.6362 21.5701C28.1054 21.5701 27.675 21.1397 27.675 20.6089V14.2732L27.4662 14.4435C26.4787 15.2493 25.4485 15.8752 24.3924 16.3831C24.4429 16.4998 24.4708 16.6285 24.4708 16.7639V22.2672C24.4708 23.7197 23.5798 25.0235 22.2265 25.5511L17.0998 27.5499C16.2764 27.8708 15.3626 27.8708 14.5393 27.5499L9.41258 25.5511C8.05929 25.0235 7.16825 23.7197 7.16825 22.2672V16.7639C7.16825 16.6252 7.19762 16.4933 7.2505 16.3742C6.18627 15.8632 5.14799 15.2339 4.15278 14.4233L2.84043 13.3544C1.7758 12.4873 1.77525 10.7873 2.83896 9.91932L4.17288 8.8308C7.0021 6.52209 10.1826 5.69166 13.3132 4.87426C13.9864 4.69852 14.6572 4.52336 15.3217 4.33427ZM27.675 11.638C27.675 11.5225 27.6283 11.4462 27.5845 11.4106L26.2722 10.3417C23.5095 8.43301 21.048 7.59119 17.9213 6.76961C17.2338 6.58895 16.5269 6.40318 15.799 6.19725C15.0678 6.40466 14.3583 6.59133 13.6685 6.7728C10.567 7.58875 7.86449 8.29973 5.38837 10.3203L4.05443 11.4088C4.01061 11.4446 3.96402 11.521 3.96407 11.6364C3.96412 11.7519 4.01076 11.8281 4.05453 11.8638L5.3669 12.9327C7.864 14.9666 10.5911 15.6832 13.7177 16.5047C14.4052 16.6854 15.1122 16.8711 15.84 17.0771C16.5712 16.8697 17.2806 16.6831 17.9704 16.5016C21.0719 15.6856 23.7746 14.9747 26.2507 12.9541L27.5846 11.8655C27.6285 11.8298 27.675 11.7532 27.675 11.638ZM18.3258 18.4C19.7354 18.0321 21.1551 17.6614 22.5483 17.1543V22.2672C22.5483 22.9275 22.1433 23.5201 21.5281 23.7599L16.4014 25.7586C16.0273 25.9045 15.6118 25.9045 15.2376 25.7586L10.1109 23.7599C9.49577 23.5201 9.09075 22.9275 9.09075 22.2672V17.1434C10.499 17.6563 11.9344 18.0307 13.3597 18.4025C14.0313 18.5776 14.7008 18.7523 15.3641 18.9404C15.6761 19.029 16.0054 19.029 16.3173 18.9401C16.9819 18.751 17.6527 18.5759 18.3258 18.4Z" fill="#FEF5CD"/></svg>