<svg width="70" height="69" viewBox="0 0 70 69" fill="none" xmlns="http://www.w3.org/2000/svg"><path d="M57.4258 48.2089C57.4258 50.7359 55.7326 52.7844 53.644 52.7844L18.8027 52.7844M18.8027 16.1799L53.644 16.1799C55.7326 16.1799 57.4258 18.2285 57.4258 20.7555L57.4258 23.1205C57.4258 23.5434 57.0794 23.8779 56.6655 23.9646C54.9489 24.3242 53.6577 25.8775 53.6577 27.7392C53.6577 29.6009 54.9489 31.1542 56.6655 31.5139C57.0794 31.6006 57.4258 31.9351 57.4258 32.3579L57.4258 36.6064C57.4258 37.0292 57.0794 37.3638 56.6655 37.4505C54.9489 37.8101 53.6577 39.3634 53.6577 41.2251C53.6577 43.0868 54.9489 44.6401 56.6655 44.9997C57.0794 45.0864 57.4258 45.421 57.4258 45.8438L57.4258 47.968M12.2085 48.2089C12.2085 50.7359 13.9017 52.7844 15.9903 52.7844L19.731 52.7844M19.731 16.1799L15.9903 16.1799C13.9017 16.1799 12.2085 18.2285 12.2085 20.7555L12.2085 23.1205C12.2085 23.5434 12.5549 23.8779 12.9688 23.9646C14.6854 24.3242 15.9766 25.8775 15.9766 27.7392C15.9766 29.6009 14.6854 31.1542 12.9688 31.5139C12.5549 31.6006 12.2085 31.9351 12.2085 32.3579L12.2085 36.6064C12.2085 37.0292 12.5549 37.3638 12.9688 37.4505C14.6854 37.8101 15.9766 39.3634 15.9766 41.2251C15.9766 43.0868 14.6854 44.6401 12.9688 44.9997C12.5549 45.0864 12.2085 45.421 12.2085 45.8438L12.2085 47.968M42.8244 51.3395L42.8244 48.4497M42.8244 43.6333L42.8244 40.7435M42.8244 35.9271L42.8244 33.0373M42.8244 28.2209L42.8244 25.331M42.8244 20.5147L42.8244 17.6248" stroke="#FEF5CD" stroke-width="2.15321" stroke-linecap="round"/></svg>