<svg width="43" height="42" viewBox="0 0 43 42" fill="none" xmlns="http://www.w3.org/2000/svg"><path d="M18.4252 10.3115C19.5284 7.65893 23.2862 7.65893 24.3895 10.3115L25.4195 12.7881C25.8846 13.9064 26.9363 14.6705 28.1436 14.7673L30.8173 14.9816C33.681 15.2112 34.8422 18.785 32.6603 20.654L30.6233 22.399C29.7034 23.1869 29.3018 24.4232 29.5828 25.6013L30.2051 28.2103C30.8717 31.0048 27.8317 33.2136 25.3799 31.7161L23.0909 30.3179C22.0573 29.6866 20.7574 29.6866 19.7238 30.3179L17.4347 31.7161C14.983 33.2136 11.9429 31.0048 12.6095 28.2103L13.2319 25.6013C13.5129 24.4232 13.1112 23.1869 12.1914 22.399L10.1543 20.654C7.97244 18.785 9.13364 15.2112 11.9974 14.9816L14.671 14.7673C15.8783 14.6705 16.93 13.9064 17.3951 12.7881L18.4252 10.3115Z" stroke="#FEF5CD" stroke-width="2.46081"/></svg>