<svg width="24" height="24" viewBox="0 0 24 24" fill="currentColor" xmlns="http://www.w3.org/2000/svg"><path d="M7.00732 12C7.00732 11.5858 7.3431 11.25 7.75732 11.25H11.2499V7.75732C11.2499 7.34311 11.5857 7.00732 11.9999 7.00732C12.4141 7.00732 12.7499 7.34311 12.7499 7.75732V11.25H16.2426C16.6568 11.25 16.9926 11.5858 16.9926 12C16.9926 12.4142 16.6568 12.75 16.2426 12.75H12.7499V16.2426C12.7499 16.6569 12.4141 16.9926 11.9999 16.9926C11.5857 16.9926 11.2499 16.6569 11.2499 16.2426V12.75H7.75732C7.3431 12.75 7.00732 12.4142 7.00732 12Z"/><path fill-rule="evenodd" clip-rule="evenodd" d="M7.31673 3.76882C10.4043 3.42374 13.5957 3.42374 16.6832 3.76882C18.5096 3.97294 19.9845 5.41159 20.1994 7.24855C20.5686 10.4055 20.5686 13.5947 20.1994 16.7516C19.9845 18.5886 18.5096 20.0272 16.6832 20.2314C13.5957 20.5764 10.4043 20.5764 7.31673 20.2314C5.49035 20.0272 4.01545 18.5886 3.8006 16.7516C3.43137 13.5947 3.43137 10.4055 3.8006 7.24855C4.01545 5.41159 5.49035 3.97294 7.31673 3.76882ZM16.5166 5.25954C13.5398 4.92683 10.4602 4.92683 7.48334 5.25954C6.33891 5.38744 5.42286 6.29069 5.29045 7.4228C4.93476 10.464 4.93476 13.5362 5.29045 16.5774C5.42286 17.7095 6.33891 18.6127 7.48334 18.7406C10.4602 19.0733 13.5398 19.0733 16.5166 18.7406C17.6611 18.6127 18.5771 17.7095 18.7095 16.5774C19.0652 13.5362 19.0652 10.464 18.7095 7.4228C18.5771 6.29069 17.6611 5.38744 16.5166 5.25954Z"/></svg>