<svg width="24" height="24" viewBox="0 0 24 24" fill="none" xmlns="http://www.w3.org/2000/svg"><path fill-rule="evenodd" clip-rule="evenodd" d="M6.06661 3.87384C5.36393 3.7953 4.63593 3.7953 3.93325 3.87384C3.9202 3.8753 3.90728 3.8812 3.89667 3.89167C3.88631 3.90188 3.88226 3.91221 3.88124 3.92098C3.79739 4.63785 3.79739 5.36205 3.88124 6.07892C3.88226 6.08769 3.88631 6.09802 3.89667 6.10824C3.90728 6.1187 3.9202 6.12461 3.93325 6.12606C4.63593 6.2046 5.36393 6.2046 6.06661 6.12606C6.07966 6.12461 6.09257 6.1187 6.10319 6.10824C6.11355 6.09802 6.1176 6.08769 6.11862 6.07892C6.20247 5.36205 6.20247 4.63785 6.11862 3.92098C6.1176 3.91221 6.11355 3.90188 6.10319 3.89167C6.09257 3.8812 6.07966 3.8753 6.06661 3.87384ZM3.76664 2.38312C4.58005 2.29221 5.41981 2.29221 6.23322 2.38312C6.94555 2.46273 7.52384 3.02317 7.60847 3.74673C7.70585 4.57937 7.70585 5.42053 7.60847 6.25318C7.52384 6.97673 6.94555 7.53717 6.23322 7.61678C5.41981 7.70769 4.58005 7.70769 3.76664 7.61678C3.05431 7.53717 2.47602 6.97674 2.39139 6.25318C2.29401 5.42053 2.29401 4.57937 2.39139 3.74673C2.47602 3.02317 3.05431 2.46273 3.76664 2.38312Z" fill="white"/><path fill-rule="evenodd" clip-rule="evenodd" d="M13.0666 3.87384C12.3639 3.7953 11.6359 3.7953 10.9332 3.87384C10.9202 3.8753 10.9073 3.8812 10.8966 3.89167C10.8863 3.90188 10.8822 3.91221 10.8812 3.92098C10.7974 4.63785 10.7974 5.36205 10.8812 6.07892C10.8822 6.08769 10.8863 6.09802 10.8966 6.10824C10.9073 6.1187 10.9202 6.12461 10.9332 6.12606C11.6359 6.2046 12.3639 6.2046 13.0666 6.12606C13.0796 6.12461 13.0925 6.1187 13.1032 6.10824C13.1135 6.09802 13.1176 6.08769 13.1186 6.07892C13.2024 5.36205 13.2024 4.63785 13.1186 3.92098C13.1176 3.91221 13.1135 3.90188 13.1032 3.89167C13.0925 3.8812 13.0796 3.8753 13.0666 3.87384ZM10.7666 2.38312C11.58 2.29221 12.4198 2.29221 13.2332 2.38312C13.9455 2.46273 14.5238 3.02317 14.6084 3.74673C14.7058 4.57937 14.7058 5.42053 14.6084 6.25318C14.5238 6.97673 13.9455 7.53717 13.2332 7.61678C12.4198 7.70769 11.58 7.70769 10.7666 7.61678C10.0543 7.53717 9.47602 6.97674 9.39139 6.25318C9.29401 5.42053 9.29401 4.57937 9.39139 3.74673C9.47602 3.02317 10.0543 2.46273 10.7666 2.38312Z" fill="white"/><path fill-rule="evenodd" clip-rule="evenodd" d="M20.0666 3.87384C19.3639 3.7953 18.6359 3.7953 17.9332 3.87384C17.9202 3.8753 17.9073 3.8812 17.8966 3.89167C17.8863 3.90188 17.8822 3.91221 17.8812 3.92098C17.7974 4.63785 17.7974 5.36205 17.8812 6.07892C17.8822 6.08769 17.8863 6.09802 17.8966 6.10824C17.9073 6.1187 17.9202 6.12461 17.9332 6.12606C18.6359 6.2046 19.3639 6.2046 20.0666 6.12606C20.0796 6.12461 20.0925 6.1187 20.1032 6.10824C20.1135 6.09802 20.1176 6.08769 20.1186 6.07892C20.2024 5.36205 20.2024 4.63785 20.1186 3.92098C20.1176 3.91221 20.1135 3.90188 20.1032 3.89167C20.0925 3.8812 20.0796 3.8753 20.0666 3.87384ZM17.7666 2.38312C18.58 2.29221 19.4198 2.29221 20.2332 2.38312C20.9455 2.46273 21.5238 3.02317 21.6084 3.74673C21.7058 4.57937 21.7058 5.42053 21.6084 6.25318C21.5238 6.97673 20.9455 7.53717 20.2332 7.61678C19.4198 7.70769 18.58 7.70769 17.7666 7.61678C17.0543 7.53717 16.476 6.97674 16.3914 6.25318C16.294 5.42053 16.294 4.57937 16.3914 3.74673C16.476 3.02317 17.0543 2.46273 17.7666 2.38312Z" fill="white"/><path fill-rule="evenodd" clip-rule="evenodd" d="M6.06661 10.8739C5.36393 10.7954 4.63593 10.7954 3.93325 10.8739C3.9202 10.8753 3.90728 10.8813 3.89667 10.8917C3.88631 10.9019 3.88226 10.9123 3.88124 10.921C3.79739 11.6379 3.79739 12.3621 3.88124 13.079C3.88226 13.0877 3.88631 13.0981 3.89667 13.1083C3.90728 13.1187 3.9202 13.1247 3.93325 13.1261C4.63593 13.2046 5.36393 13.2046 6.06661 13.1261C6.07966 13.1247 6.09257 13.1187 6.10319 13.1083C6.11355 13.0981 6.1176 13.0877 6.11862 13.079C6.20247 12.3621 6.20247 11.6379 6.11862 10.921C6.1176 10.9123 6.11355 10.9019 6.10319 10.8917C6.09257 10.8813 6.07966 10.8753 6.06661 10.8739ZM3.76664 9.38312C4.58005 9.29221 5.41981 9.29221 6.23322 9.38312C6.94555 9.46273 7.52384 10.0232 7.60847 10.7468C7.70585 11.5794 7.70585 12.4206 7.60847 13.2532C7.52384 13.9768 6.94555 14.5372 6.23322 14.6168C5.41981 14.7077 4.58005 14.7077 3.76664 14.6168C3.05431 14.5372 2.47602 13.9768 2.39139 13.2532C2.29401 12.4206 2.29401 11.5794 2.39139 10.7468C2.47602 10.0232 3.05431 9.46273 3.76664 9.38312Z" fill="white"/><path fill-rule="evenodd" clip-rule="evenodd" d="M13.0666 10.8739C12.3639 10.7954 11.6359 10.7954 10.9332 10.8739C10.9202 10.8753 10.9073 10.8813 10.8966 10.8917C10.8863 10.9019 10.8822 10.9123 10.8812 10.921C10.7974 11.6379 10.7974 12.3621 10.8812 13.079C10.8822 13.0877 10.8863 13.0981 10.8966 13.1083C10.9073 13.1187 10.9202 13.1247 10.9332 13.1261C11.6359 13.2046 12.3639 13.2046 13.0666 13.1261C13.0796 13.1247 13.0925 13.1187 13.1032 13.1083C13.1135 13.0981 13.1176 13.0877 13.1186 13.079C13.2024 12.3621 13.2024 11.6379 13.1186 10.921C13.1176 10.9123 13.1135 10.9019 13.1032 10.8917C13.0925 10.8813 13.0796 10.8753 13.0666 10.8739ZM10.7666 9.38312C11.58 9.29221 12.4198 9.29221 13.2332 9.38312C13.9455 9.46273 14.5238 10.0232 14.6084 10.7468C14.7058 11.5794 14.7058 12.4206 14.6084 13.2532C14.5238 13.9768 13.9455 14.5372 13.2332 14.6168C12.4198 14.7077 11.58 14.7077 10.7666 14.6168C10.0543 14.5372 9.47602 13.9768 9.39139 13.2532C9.29401 12.4206 9.29401 11.5794 9.39139 10.7468C9.47602 10.0232 10.0543 9.46273 10.7666 9.38312Z" fill="white"/><path fill-rule="evenodd" clip-rule="evenodd" d="M20.0666 10.8739C19.3639 10.7954 18.6359 10.7954 17.9332 10.8739C17.9202 10.8753 17.9073 10.8813 17.8966 10.8917C17.8863 10.9019 17.8822 10.9123 17.8812 10.921C17.7974 11.6379 17.7974 12.3621 17.8812 13.079C17.8822 13.0877 17.8863 13.0981 17.8966 13.1083C17.9073 13.1187 17.9202 13.1247 17.9332 13.1261C18.6359 13.2046 19.3639 13.2046 20.0666 13.1261C20.0796 13.1247 20.0925 13.1187 20.1032 13.1083C20.1135 13.0981 20.1176 13.0877 20.1186 13.079C20.2024 12.3621 20.2024 11.6379 20.1186 10.921C20.1176 10.9123 20.1135 10.9019 20.1032 10.8917C20.0925 10.8813 20.0796 10.8753 20.0666 10.8739ZM17.7666 9.38312C18.58 9.29221 19.4198 9.29221 20.2332 9.38312C20.9455 9.46273 21.5238 10.0232 21.6084 10.7468C21.7058 11.5794 21.7058 12.4206 21.6084 13.2532C21.5238 13.9768 20.9455 14.5372 20.2332 14.6168C19.4198 14.7077 18.58 14.7077 17.7666 14.6168C17.0543 14.5372 16.476 13.9768 16.3914 13.2532C16.294 12.4206 16.294 11.5794 16.3914 10.7468C16.476 10.0232 17.0543 9.46273 17.7666 9.38312Z" fill="white"/><path fill-rule="evenodd" clip-rule="evenodd" d="M6.06661 17.8739C5.36393 17.7954 4.63593 17.7954 3.93325 17.8739C3.9202 17.8753 3.90728 17.8813 3.89667 17.8917C3.88631 17.9019 3.88226 17.9123 3.88124 17.921C3.79739 18.6379 3.79739 19.3621 3.88124 20.079C3.88226 20.0877 3.88631 20.0981 3.89667 20.1083C3.90728 20.1187 3.9202 20.1247 3.93325 20.1261C4.63593 20.2046 5.36393 20.2046 6.06661 20.1261C6.07966 20.1247 6.09257 20.1187 6.10319 20.1083C6.11355 20.0981 6.1176 20.0877 6.11862 20.079C6.20247 19.3621 6.20247 18.6379 6.11862 17.921C6.1176 17.9123 6.11355 17.9019 6.10319 17.8917C6.09257 17.8813 6.07966 17.8753 6.06661 17.8739ZM3.76664 16.3832C4.58005 16.2923 5.41981 16.2923 6.23322 16.3832C6.94555 16.4628 7.52384 17.0232 7.60847 17.7468C7.70585 18.5794 7.70585 19.4206 7.60847 20.2532C7.52384 20.9768 6.94555 21.5372 6.23322 21.6168C5.41981 21.7077 4.58005 21.7077 3.76664 21.6168C3.05431 21.5372 2.47602 20.9768 2.39139 20.2532C2.29401 19.4206 2.29401 18.5794 2.39139 17.7468C2.47602 17.0232 3.05431 16.4628 3.76664 16.3832Z" fill="white"/><path fill-rule="evenodd" clip-rule="evenodd" d="M13.0666 17.8739C12.3639 17.7954 11.6359 17.7954 10.9332 17.8739C10.9202 17.8753 10.9073 17.8813 10.8966 17.8917C10.8863 17.9019 10.8822 17.9123 10.8812 17.921C10.7974 18.6379 10.7974 19.3621 10.8812 20.079C10.8822 20.0877 10.8863 20.0981 10.8966 20.1083C10.9073 20.1187 10.9202 20.1247 10.9332 20.1261C11.6359 20.2046 12.3639 20.2046 13.0666 20.1261C13.0796 20.1247 13.0925 20.1187 13.1032 20.1083C13.1135 20.0981 13.1176 20.0877 13.1186 20.079C13.2024 19.3621 13.2024 18.6379 13.1186 17.921C13.1176 17.9123 13.1135 17.9019 13.1032 17.8917C13.0925 17.8813 13.0796 17.8753 13.0666 17.8739ZM10.7666 16.3832C11.58 16.2923 12.4198 16.2923 13.2332 16.3832C13.9455 16.4628 14.5238 17.0232 14.6084 17.7468C14.7058 18.5794 14.7058 19.4206 14.6084 20.2532C14.5238 20.9768 13.9455 21.5372 13.2332 21.6168C12.4198 21.7077 11.58 21.7077 10.7666 21.6168C10.0543 21.5372 9.47602 20.9768 9.39139 20.2532C9.29401 19.4206 9.29401 18.5794 9.39139 17.7468C9.47602 17.0232 10.0543 16.4628 10.7666 16.3832Z" fill="white"/><path fill-rule="evenodd" clip-rule="evenodd" d="M20.0666 17.8739C19.3639 17.7954 18.6359 17.7954 17.9332 17.8739C17.9202 17.8753 17.9073 17.8813 17.8966 17.8917C17.8863 17.9019 17.8822 17.9123 17.8812 17.921C17.7974 18.6379 17.7974 19.3621 17.8812 20.079C17.8822 20.0877 17.8863 20.0981 17.8966 20.1083C17.9073 20.1187 17.9202 20.1247 17.9332 20.1261C18.6359 20.2046 19.3639 20.2046 20.0666 20.1261C20.0796 20.1247 20.0925 20.1187 20.1032 20.1083C20.1135 20.0981 20.1176 20.0877 20.1186 20.079C20.2024 19.3621 20.2024 18.6379 20.1186 17.921C20.1176 17.9123 20.1135 17.9019 20.1032 17.8917C20.0925 17.8813 20.0796 17.8753 20.0666 17.8739ZM17.7666 16.3832C18.58 16.2923 19.4198 16.2923 20.2332 16.3832C20.9455 16.4628 21.5238 17.0232 21.6084 17.7468C21.7058 18.5794 21.7058 19.4206 21.6084 20.2532C21.5238 20.9768 20.9455 21.5372 20.2332 21.6168C19.4198 21.7077 18.58 21.7077 17.7666 21.6168C17.0543 21.5372 16.476 20.9768 16.3914 20.2532C16.294 19.4206 16.294 18.5794 16.3914 17.7468C16.476 17.0232 17.0543 16.4628 17.7666 16.3832Z" fill="white"/></svg>