<svg width="21" height="18" viewBox="0 0 21 18" fill="none" xmlns="http://www.w3.org/2000/svg"><path d="M21 9C21 8.71966 20.8869 8.46174 20.6607 8.24868L13.1632 0.836412C12.9144 0.58971 12.6769 0.5 12.4055 0.5C11.8514 0.5 11.4216 0.903694 11.4216 1.46438C11.4216 1.73351 11.5121 1.99142 11.6931 2.17084L14.2262 4.72757L18.0258 8.17018L15.3005 8.00198H0.995153C0.407108 8.00198 0 8.41689 0 9C0 9.58311 0.407108 9.99802 0.995153 9.99802H15.3005L18.0372 9.82981L14.2262 13.2724L11.6931 15.8292C11.5121 15.9974 11.4216 16.2665 11.4216 16.5356C11.4216 17.0963 11.8514 17.5 12.4055 17.5C12.6769 17.5 12.9144 17.3991 13.1405 17.186L20.6607 9.75132C20.8869 9.53826 21 9.28034 21 9Z" fill="white"/></svg>