<svg width="24" height="24" viewBox="0 0 24 24" fill="currentColor" xmlns="http://www.w3.org/2000/svg"><path fill-rule="evenodd" clip-rule="evenodd" d="M9.39301 10.7473C8.57371 11.3813 8.57371 12.6183 9.39301 13.2523C11.5521 14.9229 13.963 16.2397 16.5355 17.1533L17.0016 17.3189C18.0251 17.6824 19.1019 16.9899 19.2399 15.9378C19.5795 13.3477 19.5795 10.6519 19.2399 8.06179C19.1019 7.00971 18.0251 6.31724 17.0016 6.68076L16.5355 6.84627C13.963 7.75993 11.5521 9.07672 9.39301 10.7473ZM10.311 12.0659C10.2677 12.0325 10.2677 11.9671 10.311 11.9337C12.3443 10.3603 14.6148 9.12022 17.0375 8.25977L17.5036 8.09425C17.6038 8.05866 17.7355 8.12654 17.7526 8.25684C18.0753 10.7174 18.0753 13.2822 17.7526 15.7428C17.7355 15.8731 17.6038 15.9409 17.5036 15.9054L17.0375 15.7398C14.6148 14.8794 12.3443 13.6393 10.311 12.0659Z"/><path fill-rule="evenodd" clip-rule="evenodd" d="M6 6.25C5.5858 6.25 5.25 6.58579 5.25 7V17C5.25 17.4142 5.5858 17.75 6 17.75C6.4142 17.75 6.75 17.4142 6.75 17V7C6.75 6.58579 6.4142 6.25 6 6.25Z"/></svg>