<svg width="23" height="23" viewBox="0 0 23 23" fill="none" xmlns="http://www.w3.org/2000/svg"><path d="M4.32388 7.0462C5.67367 7.0462 6.76788 5.95199 6.76788 4.6022C6.76788 3.25242 5.67367 2.1582 4.32388 2.1582C2.9741 2.1582 1.87988 3.25242 1.87988 4.6022C1.87988 5.95199 2.9741 7.0462 4.32388 7.0462Z" fill="white"/><path d="M4.32388 14.0022C5.67367 14.0022 6.76788 12.9081 6.76788 11.5582C6.76788 10.2085 5.67367 9.11426 4.32388 9.11426C2.9741 9.11426 1.87988 10.2085 1.87988 11.5582C1.87988 12.9081 2.9741 14.0022 4.32388 14.0022Z" fill="white"/><path d="M4.32388 20.9583C5.67367 20.9583 6.76788 19.8641 6.76788 18.5143C6.76788 17.1646 5.67367 16.0703 4.32388 16.0703C2.9741 16.0703 1.87988 17.1646 1.87988 18.5143C1.87988 19.8641 2.9741 20.9583 4.32388 20.9583Z" fill="white"/><path d="M9.77623 6.38816H18.9882C19.9282 6.38816 20.7742 5.63616 20.7742 4.60216C20.7742 3.66216 20.0222 2.81616 18.9882 2.81616H9.77623C8.83623 2.81616 7.99023 3.56816 7.99023 4.60216C7.99023 5.54216 8.74223 6.38816 9.77623 6.38816Z" fill="white"/><path d="M18.8942 9.77222H9.77623C8.83623 9.77222 7.99023 10.5242 7.99023 11.5582C7.99023 12.4982 8.74223 13.3442 9.77623 13.3442H18.9882C19.9282 13.3442 20.7742 12.5922 20.7742 11.5582C20.6802 10.6182 19.9282 9.77222 18.8942 9.77222Z" fill="white"/><path d="M18.8942 16.7283H9.77623C8.83623 16.7283 7.99023 17.4803 7.99023 18.5143C7.99023 19.4543 8.74223 20.3003 9.77623 20.3003H18.9882C19.9282 20.3003 20.7742 19.5483 20.7742 18.5143C20.6802 17.4803 19.9282 16.7283 18.8942 16.7283Z" fill="white"/></svg>