<svg width="23" height="23" viewBox="0 0 23 23" fill="none" xmlns="http://www.w3.org/2000/svg"><path d="M5.07723 9.2006C7.32443 9.2006 9.14616 7.37888 9.14616 5.13167C9.14616 2.88447 7.32443 1.06274 5.07723 1.06274C2.83002 1.06274 1.0083 2.88447 1.0083 5.13167C1.0083 7.37888 2.83002 9.2006 5.07723 9.2006Z" fill="white"/><path d="M16.9312 9.2006C19.1784 9.2006 21.0002 7.37888 21.0002 5.13167C21.0002 2.88447 19.1784 1.06274 16.9312 1.06274C14.684 1.06274 12.8623 2.88447 12.8623 5.13167C12.8623 7.37888 14.684 9.2006 16.9312 9.2006Z" fill="white"/><path d="M5.07723 20.7814C7.32443 20.7814 9.14616 18.9598 9.14616 16.7125C9.14616 14.4653 7.32443 12.6436 5.07723 12.6436C2.83002 12.6436 1.0083 14.4653 1.0083 16.7125C1.0083 18.9598 2.83002 20.7814 5.07723 20.7814Z" fill="white"/><path d="M16.9312 20.7814C19.1784 20.7814 21.0002 18.9598 21.0002 16.7125C21.0002 14.4653 19.1784 12.6436 16.9312 12.6436C14.684 12.6436 12.8623 14.4653 12.8623 16.7125C12.8623 18.9598 14.684 20.7814 16.9312 20.7814Z" fill="white"/></svg>