<svg width="24" height="24" viewBox="0 0 24 24" fill="none" xmlns="http://www.w3.org/2000/svg"><path d="M8 9.5C7.30964 9.5 6.75 10.0596 6.75 10.75C6.75 11.4403 7.30964 12 8 12C8.69036 12 9.25 11.4403 9.25 10.75C9.25 10.0596 8.69036 9.5 8 9.5Z" fill="#FFC600"/><path d="M12 9.5C11.3096 9.5 10.75 10.0596 10.75 10.75C10.75 11.4403 11.3096 12 12 12C12.6904 12 13.25 11.4403 13.25 10.75C13.25 10.0596 12.6904 9.5 12 9.5Z" fill="#FFC600"/><path d="M14.75 10.75C14.75 10.0596 15.3096 9.5 16 9.5C16.6904 9.5 17.25 10.0596 17.25 10.75C17.25 11.4403 16.6904 12 16 12C15.3096 12 14.75 11.4403 14.75 10.75Z" fill="#FFC600"/><path fill-rule="evenodd" clip-rule="evenodd" d="M16.1007 4.59259C13.4065 4.36283 10.6983 4.34949 8.00194 4.55272L7.80871 4.56728C5.23741 4.76108 3.25 6.90391 3.25 9.48251V17.9998C3.25 18.2637 3.38867 18.5081 3.61515 18.6435C3.84163 18.7789 4.12261 18.7853 4.35504 18.6604L8.26583 16.5587C8.44774 16.4609 8.65104 16.4098 8.85756 16.4098H17.834C18.9661 16.4098 19.9362 15.6004 20.1392 14.4866C20.5505 12.2294 20.5829 9.91945 20.2353 7.65155L20.1329 6.98322C19.9464 5.76647 18.951 4.83566 17.7245 4.73106L16.1007 4.59259ZM8.11468 6.04847C10.731 5.85128 13.359 5.86422 15.9733 6.08716L17.597 6.22563C18.1334 6.27137 18.5686 6.67841 18.6502 7.21049L18.7526 7.87882C19.075 9.9821 19.0449 12.1244 18.6635 14.2178C18.5904 14.6185 18.2413 14.9098 17.834 14.9098H8.85756C8.40322 14.9098 7.95596 15.0223 7.55575 15.2374L4.75 16.7453V9.48251C4.75 7.6886 6.13262 6.19786 7.92144 6.06304L8.11468 6.04847Z" fill="#FFC600"/></svg>