<svg width="24" height="24" viewBox="0 0 24 24" fill="none" xmlns="http://www.w3.org/2000/svg"><path fill-rule="evenodd" clip-rule="evenodd" d="M12.932 6.2085C11.3817 6.2085 10.0407 7.11083 9.40819 8.42231C9.23814 8.77492 8.8255 8.93743 8.46067 8.79547C7.96994 8.60452 7.43548 8.49938 6.87467 8.49938C4.45821 8.49938 2.49927 10.4583 2.49927 12.8748C2.49927 15.2913 4.45821 17.2502 6.87467 17.2502H18.5233C20.1678 17.2502 21.5009 15.9171 21.5009 14.2726C21.5009 12.6282 20.1678 11.2951 18.5233 11.2951C18.2558 11.2951 17.9975 11.3302 17.7525 11.3956C17.5123 11.4598 17.2559 11.4007 17.068 11.238C16.88 11.0752 16.785 10.8298 16.8142 10.5829C16.8322 10.4307 16.8414 10.2756 16.8414 10.118C16.8414 7.95883 15.0911 6.2085 12.932 6.2085ZM8.38009 7.19421C9.34183 5.69992 11.0206 4.7085 12.932 4.7085C15.8125 4.7085 18.1672 6.95995 18.3322 9.79908C18.3956 9.79641 18.4593 9.79506 18.5233 9.79506C20.9962 9.79506 23.0009 11.7997 23.0009 14.2726C23.0009 16.7455 20.9962 18.7502 18.5233 18.7502H6.87467C3.62978 18.7502 0.999268 16.1197 0.999268 12.8748C0.999268 9.62989 3.62978 6.99938 6.87467 6.99938C7.39433 6.99938 7.89905 7.06703 8.38009 7.19421Z" fill="#FFC600"/><g opacity="0.8"><path d="M10 14.232V10.5436H11.0229V14.232H10Z" fill="#FFC600"/><path d="M11.8424 15.6151V10.5436H12.8509V11.1632H12.8965C12.9414 11.0639 13.0062 10.9631 13.0911 10.8606C13.1775 10.7565 13.2896 10.6701 13.4272 10.6013C13.5665 10.5308 13.7394 10.4956 13.9459 10.4956C14.2149 10.4956 14.463 10.566 14.6903 10.7069C14.9176 10.8462 15.0993 11.0567 15.2354 11.3385C15.3715 11.6186 15.4395 11.97 15.4395 12.3926C15.4395 12.804 15.3731 13.1514 15.2402 13.4348C15.1089 13.7165 14.9296 13.9302 14.7023 14.0759C14.4766 14.22 14.2237 14.292 13.9435 14.292C13.745 14.292 13.5761 14.2592 13.4368 14.1936C13.2992 14.1279 13.1863 14.0455 13.0983 13.9462C13.0102 13.8454 12.943 13.7437 12.8965 13.6413H12.8653V15.6151H11.8424ZM12.8437 12.3878C12.8437 12.6071 12.8741 12.7984 12.935 12.9617C12.9958 13.125 13.0838 13.2523 13.1991 13.3435C13.3144 13.4332 13.4544 13.478 13.6193 13.478C13.7858 13.478 13.9267 13.4324 14.042 13.3411C14.1572 13.2483 14.2445 13.1202 14.3037 12.9569C14.3645 12.792 14.3949 12.6023 14.3949 12.3878C14.3949 12.1749 14.3653 11.9876 14.3061 11.8259C14.2469 11.6642 14.1596 11.5378 14.0444 11.4465C13.9291 11.3553 13.7874 11.3096 13.6193 11.3096C13.4528 11.3096 13.312 11.3537 13.1967 11.4417C13.083 11.5298 12.9958 11.6546 12.935 11.8163C12.8741 11.978 12.8437 12.1685 12.8437 12.3878Z" fill="#FFC600"/></g></svg>