<svg width="24" height="24" viewBox="0 0 24 24" fill="none" xmlns="http://www.w3.org/2000/svg"><path d="M12.3501 8.7002C12.7643 8.7002 13.1001 9.03599 13.1001 9.4502V11.4502H15.1001C15.5143 11.4502 15.8501 11.786 15.8501 12.2002C15.8501 12.6144 15.5143 12.9502 15.1001 12.9502H13.1001V14.9502C13.1001 15.3644 12.7643 15.7002 12.3501 15.7002C11.9359 15.7002 11.6001 15.3644 11.6001 14.9502V12.9502H9.6001C9.18588 12.9502 8.8501 12.6144 8.8501 12.2002C8.8501 11.786 9.18588 11.4502 9.6001 11.4502H11.6001V9.4502C11.6001 9.03599 11.9359 8.7002 12.3501 8.7002Z" fill="#FFC600"/><path fill-rule="evenodd" clip-rule="evenodd" d="M4.59182 15.3042C2.34395 9.78675 6.40306 3.75 12.3609 3.75H12.6823C17.138 3.75 20.75 7.36201 20.75 11.8176C20.75 16.7785 16.7284 20.8 11.7676 20.8H3.9473C3.62905 20.8 3.34544 20.5991 3.23982 20.2989C3.13419 19.9987 3.22954 19.6645 3.47768 19.4652L5.44917 17.8819C5.53538 17.8127 5.56587 17.6951 5.52415 17.5927L4.59182 15.3042ZM12.3609 5.25C7.46834 5.25 4.13502 10.2074 5.98096 14.7383L6.91329 17.0268C7.20529 17.7435 6.99184 18.5669 6.38842 19.0515L6.07897 19.3H11.7676C15.9 19.3 19.25 15.95 19.25 11.8176C19.25 8.19044 16.3096 5.25 12.6823 5.25H12.3609Z" fill="#FFC600"/></svg>