<svg width="24" height="24" viewBox="0 0 24 24" fill="none" xmlns="http://www.w3.org/2000/svg"><path fill-rule="evenodd" clip-rule="evenodd" d="M17.9857 5.42379C14.0076 4.97918 9.99224 4.97918 6.01408 5.42379C5.74491 5.45388 5.61528 5.76953 5.78563 5.9801L9.30265 10.3276C10.5625 11.885 11.2499 13.8276 11.2499 15.8308V18.72L12.7499 19.82V15.8308C12.7499 13.8276 13.4373 11.885 14.6972 10.3276L18.2142 5.9801C18.3845 5.76953 18.2549 5.45388 17.9857 5.42379ZM5.84747 3.93308C9.93636 3.47608 14.0634 3.47608 18.1523 3.93308C19.5993 4.09479 20.2961 5.79158 19.3804 6.92351L15.8633 11.271C14.8194 12.5615 14.2499 14.171 14.2499 15.8308V21.3001C14.2499 21.5827 14.091 21.8414 13.8389 21.9691C13.5868 22.0969 13.2843 22.072 13.0564 21.9049L10.0564 19.7049C9.86372 19.5636 9.7499 19.339 9.7499 19.1001V15.8308C9.7499 14.171 9.18038 12.5615 8.13646 11.271L4.61944 6.92351C3.70375 5.79158 4.40054 4.09479 5.84747 3.93308Z" fill="white"/></svg>