<svg width="24" height="24" viewBox="0 0 24 24" fill="none" xmlns="http://www.w3.org/2000/svg"><path d="M18.437 20.9375H5.56299C4.89995 20.9375 4.26406 20.6741 3.79522 20.2052C3.32638 19.7364 3.06299 19.1005 3.06299 18.4375V5.56348C3.06299 4.90044 3.32638 4.26455 3.79522 3.79571C4.26406 3.32687 4.89995 3.06348 5.56299 3.06348H18.437C19.1 3.06348 19.7359 3.32687 20.2048 3.79571C20.6736 4.26455 20.937 4.90044 20.937 5.56348V18.4375C20.937 19.1005 20.6736 19.7364 20.2048 20.2052C19.7359 20.6741 19.1 20.9375 18.437 20.9375ZM5.56299 4.06348C5.16516 4.06348 4.78363 4.22151 4.50233 4.50282C4.22102 4.78412 4.06299 5.16565 4.06299 5.56348V18.4375C4.06299 18.8353 4.22102 19.2168 4.50233 19.4981C4.78363 19.7794 5.16516 19.9375 5.56299 19.9375H18.437C18.8348 19.9375 19.2163 19.7794 19.4976 19.4981C19.779 19.2168 19.937 18.8353 19.937 18.4375V5.56348C19.937 5.16565 19.779 4.78412 19.4976 4.50282C19.2163 4.22151 18.8348 4.06348 18.437 4.06348H5.56299Z" fill="white" stroke="white"/><path d="M11.9999 16.5943C11.0913 16.5933 10.2033 16.323 9.44833 15.8174C8.69332 15.3119 8.10515 14.5938 7.75816 13.754C7.41117 12.9143 7.32095 11.9905 7.49889 11.0994C7.67683 10.2084 8.11496 9.39011 8.75788 8.74802C9.4008 8.10594 10.2197 7.66889 11.1109 7.4921C12.0022 7.31532 12.9259 7.40675 13.7652 7.75484C14.6045 8.10292 15.3218 8.69203 15.8263 9.4477C16.3309 10.2034 16.6001 11.0917 16.5999 12.0003C16.5983 13.2193 16.113 14.3877 15.2505 15.2491C14.388 16.1105 13.2189 16.5943 11.9999 16.5943ZM11.9999 8.4003C11.2893 8.40128 10.595 8.61284 10.0045 9.00825C9.41409 9.40365 8.95409 9.96516 8.68261 10.6219C8.41114 11.2786 8.34037 12.001 8.47924 12.6979C8.61811 13.3948 8.9604 14.0349 9.46287 14.5373C9.96534 15.0398 10.6054 15.3821 11.3023 15.521C11.9992 15.6598 12.7217 15.5891 13.3784 15.3176C14.035 15.0461 14.5966 14.5861 14.992 13.9957C15.3874 13.4053 15.5989 12.7109 15.5999 12.0003C15.5999 11.0455 15.2206 10.1298 14.5455 9.45471C13.8704 8.77958 12.9547 8.4003 11.9999 8.4003Z" fill="white" stroke="white"/><path d="M17.2 7.90488C17.7937 7.90488 18.275 7.42359 18.275 6.82988C18.275 6.23618 17.7937 5.75488 17.2 5.75488C16.6063 5.75488 16.125 6.23618 16.125 6.82988C16.125 7.42359 16.6063 7.90488 17.2 7.90488Z" fill="white" stroke="white"/></svg>