<svg width="24" height="24" viewBox="0 0 24 24" fill="none" xmlns="http://www.w3.org/2000/svg"><path fill-rule="evenodd" clip-rule="evenodd" d="M18.6961 5.6154C16.9576 3.87689 14.0424 3.87689 12.3039 5.6154L10.7071 7.21218C10.3166 7.6027 9.68342 7.6027 9.29289 7.21218C8.90237 6.82165 8.90237 6.18849 9.29289 5.79796L10.8897 4.20119C13.4092 1.68163 17.5908 1.68163 20.1103 4.20119C22.6299 6.72075 22.6299 10.9023 20.1103 13.4218L18.5136 15.0186C18.123 15.4091 17.4899 15.4091 17.0993 15.0186C16.7088 14.6281 16.7088 13.9949 17.0993 13.6044L18.6961 12.0076C20.4346 10.2691 20.4346 7.35391 18.6961 5.6154ZM15.7071 8.60442C16.0976 8.99494 16.0976 9.6281 15.7071 10.0186L9.70711 16.0186C9.31658 16.4091 8.68342 16.4091 8.29289 16.0186C7.90237 15.6281 7.90237 14.9949 8.29289 14.6044L14.2929 8.60442C14.6834 8.21389 15.3166 8.21389 15.7071 8.60442ZM6.90066 9.60442C7.29118 9.99494 7.29118 10.6281 6.90066 11.0186L5.30388 12.6154C3.56537 14.3539 3.56537 17.2691 5.30388 19.0076C7.04239 20.7461 9.95761 20.7461 11.6961 19.0076L13.2929 17.4109C13.6834 17.0203 14.3166 17.0203 14.7071 17.4109C15.0976 17.8014 15.0976 18.4345 14.7071 18.8251L13.1103 20.4218C10.5908 22.9414 6.40922 22.9414 3.88967 20.4218C1.37011 17.9023 1.37011 13.7207 3.88967 11.2012L5.48644 9.60442C5.87697 9.21389 6.51013 9.21389 6.90066 9.60442Z" fill="white"/></svg>