<svg width="18" height="14" viewBox="0 0 18 14" fill="none" xmlns="http://www.w3.org/2000/svg"><path fill-rule="evenodd" clip-rule="evenodd" d="M0.460144 11.8188C0.238564 11.589 0.186704 11.2442 0.330904 10.9594L1.0324 9.57403C2.69267 6.29523 6.05562 4.22856 9.73081 4.22856H10.0757C10.1009 3.68218 10.1333 3.13606 10.1731 2.59033L10.241 1.65969C10.2961 0.902865 11.14 0.479795 11.7794 0.888385C13.8771 2.22875 15.7007 3.95583 17.153 5.97762L17.6091 6.61252C17.797 6.87402 17.797 7.22622 17.6091 7.48763L17.153 8.12263C15.7007 10.1443 13.8771 11.8714 11.7794 13.2118C11.14 13.6204 10.2961 13.1973 10.241 12.4405L10.1731 11.5098C10.1256 10.8581 10.0885 10.2058 10.0619 9.55323C7.91207 9.49113 5.76486 9.92513 3.79149 10.8358L1.3143 11.9792C1.02447 12.1129 0.681724 12.0486 0.460144 11.8188ZM2.67838 9.69753L3.16291 9.47393C5.57405 8.36113 8.21961 7.89132 10.8447 8.09293C11.227 8.12232 11.5256 8.43533 11.5369 8.81853C11.5624 9.67992 11.6065 10.5408 11.6692 11.4008L11.6746 11.4752C13.318 10.3136 14.7583 8.88523 15.9348 7.24743L16.0765 7.05013L15.9348 6.85273C14.7583 5.21492 13.318 3.78659 11.6746 2.62493L11.6692 2.69938C11.6132 3.46699 11.5721 4.23541 11.5458 5.00423C11.532 5.40823 11.2004 5.72853 10.7962 5.72853H9.73081C6.83352 5.72853 4.16555 7.24642 2.67838 9.69753Z" fill="#14161B"/></svg>