<svg width="14" height="15" viewBox="0 0 14 15" xmlns="http://www.w3.org/2000/svg"><path d="M13.6317 5.49531C13.444 4.87089 12.8806 4.37134 12.2546 4.3089L9.62541 3.93424L8.43604 1.43653C8.12309 0.74966 7.55968 0.375 6.87108 0.375C6.18248 0.375 5.61914 0.74966 5.30613 1.37409L4.11675 3.8718L1.4876 4.3089C0.86161 4.43379 0.298224 4.87089 0.110426 5.49531C-0.139968 6.18218 0.0478297 6.86906 0.548618 7.36859L2.48918 9.30432L2.05099 12.0518C1.92579 12.7387 2.23878 13.4255 2.80217 13.8002C3.11517 13.9876 3.42816 14.1124 3.80375 14.1124C4.11675 14.1124 4.36714 14.05 4.61754 13.9251L6.99627 12.6138L9.37502 13.9251C9.93843 14.2373 10.627 14.1748 11.1904 13.8002C11.7538 13.4255 12.0668 12.7387 11.9416 12.0518L11.5034 9.30432L13.444 7.36859C13.6944 6.86906 13.8821 6.11975 13.6317 5.49531Z"/></svg>