<svg width="19" height="19" viewBox="0 0 19 19" fill="none" xmlns="http://www.w3.org/2000/svg"><path fill-rule="evenodd" clip-rule="evenodd" d="M17.7338 9.52236C17.7338 8.89471 17.6775 8.29119 17.5729 7.71182H9.23639V11.1357H14.0001C13.7949 12.2422 13.1713 13.1796 12.2338 13.8073V16.0282H15.0945C16.7682 14.4873 17.7338 12.218 17.7338 9.52236Z" fill="#4285F4"/><path fill-rule="evenodd" clip-rule="evenodd" d="M9.23633 18.1726C11.6262 18.1726 13.6299 17.38 15.0944 16.0281L12.2338 13.8072C11.4412 14.3383 10.4273 14.6521 9.23633 14.6521C6.93091 14.6521 4.97956 13.095 4.2835 11.0029H1.32629V13.2962C2.78277 16.1891 5.77619 18.1726 9.23633 18.1726Z" fill="#34A853"/><path fill-rule="evenodd" clip-rule="evenodd" d="M4.28358 11.0031C4.10655 10.472 4.00596 9.90472 4.00596 9.32133C4.00596 8.73793 4.10655 8.17063 4.28358 7.63954V5.34619H1.32637C0.726878 6.54115 0.384888 7.89301 0.384888 9.32133C0.384888 10.7496 0.726878 12.1015 1.32637 13.2965L4.28358 11.0031Z" fill="#FBBC05"/><path fill-rule="evenodd" clip-rule="evenodd" d="M9.23633 3.99018C10.5359 3.99018 11.7027 4.43678 12.62 5.31389L15.1588 2.77511C13.6259 1.3468 11.6222 0.469696 9.23633 0.469696C5.77619 0.469696 2.78277 2.45324 1.32629 5.34608L4.2835 7.63942C4.97956 5.54725 6.93091 3.99018 9.23633 3.99018Z" fill="#EA4335"/></svg>