<svg width="16" height="19" viewBox="0 0 16 19" fill="none" xmlns="http://www.w3.org/2000/svg"><path d="M15.3796 14.2658C15.1119 14.8843 14.795 15.4536 14.4278 15.977C13.9273 16.6906 13.5176 17.1845 13.2018 17.4588C12.7122 17.909 12.1877 18.1396 11.626 18.1527C11.2228 18.1527 10.7365 18.0379 10.1705 17.8052C9.60259 17.5735 9.08069 17.4588 8.60349 17.4588C8.10301 17.4588 7.56625 17.5735 6.99213 17.8052C6.41712 18.0379 5.95391 18.1592 5.59975 18.1713C5.06113 18.1942 4.52427 17.9571 3.98838 17.4588C3.64635 17.1605 3.21854 16.6491 2.70605 15.9246C2.15618 15.1509 1.70411 14.2538 1.34995 13.231C0.970655 12.1262 0.780518 11.0564 0.780518 10.0207C0.780518 8.83429 1.03688 7.81104 1.55036 6.95357C1.95391 6.26481 2.49077 5.72149 3.1627 5.32264C3.83463 4.92379 4.56066 4.72054 5.34252 4.70754C5.77033 4.70754 6.33134 4.83987 7.02851 5.09994C7.72372 5.36089 8.17011 5.49322 8.36582 5.49322C8.51214 5.49322 9.00802 5.33849 9.84867 5.03001C10.6436 4.74392 11.3146 4.62547 11.8642 4.67213C13.3537 4.79233 14.4726 5.37947 15.2168 6.43724C13.8847 7.24435 13.2258 8.37479 13.2389 9.82497C13.2509 10.9545 13.6607 11.8945 14.4661 12.6409C14.831 12.9873 15.2386 13.255 15.6921 13.4451C15.5938 13.7303 15.49 14.0035 15.3796 14.2658ZM11.9637 0.823918C11.9637 1.70927 11.6402 2.53592 10.9955 3.30106C10.2175 4.21066 9.2764 4.73628 8.25589 4.65334C8.24288 4.54712 8.23534 4.43533 8.23534 4.31786C8.23534 3.46793 8.60535 2.55832 9.26241 1.8146C9.59046 1.43804 10.0077 1.12494 10.5136 0.875167C11.0185 0.629125 11.496 0.493058 11.9451 0.469757C11.9582 0.588115 11.9637 0.70648 11.9637 0.823907V0.823918Z" fill="white"/></svg>