<svg width="24" height="24" viewBox="0 0 24 24" fill="none" xmlns="http://www.w3.org/2000/svg"><path d="M13.82 5C12.8454 5 11.9107 5.38716 11.2215 6.0763C10.5324 6.76545 10.1452 7.70013 10.1452 8.67473V10.7207H8.17877C8.08004 10.7207 8 10.8007 8 10.8994V13.6008C8 13.6996 8.08004 13.7796 8.17877 13.7796H10.1452V19.3215C10.1452 19.4203 10.2253 19.5003 10.324 19.5003H13.0254C13.1242 19.5003 13.2042 19.4203 13.2042 19.3215V13.7796H15.1881C15.2702 13.7796 15.3417 13.7238 15.3615 13.6442L16.0369 10.9428C16.0651 10.83 15.9798 10.7207 15.8634 10.7207H13.2042V8.67473C13.2042 8.51142 13.2691 8.35479 13.3846 8.23931C13.5 8.12384 13.6567 8.05896 13.82 8.05896H15.8858C15.9845 8.05896 16.0645 7.97892 16.0645 7.88019V5.17877C16.0645 5.08004 15.9845 5 15.8858 5H13.82Z" fill="#E6E6E7"/></svg>