<svg width="24" height="24" viewBox="0 0 24 24" fill="none" xmlns="http://www.w3.org/2000/svg"><g clip-path="url(#clip0_303_1552)"><path d="M18.0958 20.5494H5.46018C4.80942 20.5494 4.18531 20.2909 3.72515 19.8307C3.26499 19.3706 3.00647 18.7465 3.00647 18.0957V5.46006C3.00647 4.8093 3.26499 4.18518 3.72515 3.72502C4.18531 3.26486 4.80942 3.00635 5.46018 3.00635H18.0958C18.7466 3.00635 19.3707 3.26486 19.8309 3.72502C20.291 4.18518 20.5495 4.8093 20.5495 5.46006V18.0957C20.5495 18.7465 20.291 19.3706 19.8309 19.8307C19.3707 20.2909 18.7466 20.5494 18.0958 20.5494ZM5.46018 3.98783C5.06972 3.98783 4.69526 4.14294 4.41916 4.41904C4.14306 4.69513 3.98796 5.0696 3.98796 5.46006V18.0957C3.98796 18.4862 4.14306 18.8606 4.41916 19.1367C4.69526 19.4128 5.06972 19.5679 5.46018 19.5679H18.0958C18.4863 19.5679 18.8607 19.4128 19.1368 19.1367C19.4129 18.8606 19.5681 18.4862 19.5681 18.0957V5.46006C19.5681 5.0696 19.4129 4.69513 19.1368 4.41904C18.8607 4.14294 18.4863 3.98783 18.0958 3.98783H5.46018Z" fill="#E6E6E7" stroke="#E6E6E7" stroke-width="0.560849"/><path d="M11.778 16.2869C10.8862 16.286 10.0147 16.0206 9.27362 15.5244C8.5326 15.0282 7.95531 14.3235 7.61475 13.4993C7.27418 12.675 7.18563 11.7683 7.36028 10.8938C7.53493 10.0193 7.96494 9.21613 8.59596 8.58594C9.22698 7.95574 10.0307 7.52678 10.9054 7.35327C11.7802 7.17976 12.6868 7.2695 13.5106 7.61114C14.3343 7.95278 15.0383 8.53098 15.5336 9.27266C16.0288 10.0143 16.293 10.8862 16.2928 11.778C16.2912 12.9744 15.8149 14.1212 14.9684 14.9667C14.1218 15.8121 12.9744 16.2869 11.778 16.2869V16.2869ZM11.778 8.24465C11.0805 8.24562 10.399 8.45326 9.81952 8.84134C9.24002 9.22942 8.78854 9.78054 8.52209 10.4251C8.25564 11.0696 8.18617 11.7787 8.32248 12.4627C8.45878 13.1466 8.79473 13.7749 9.28789 14.2681C9.78106 14.7612 10.4093 15.0972 11.0933 15.2335C11.7773 15.3698 12.4863 15.3003 13.1309 15.0339C13.7754 14.7674 14.3265 14.3159 14.7146 13.7364C15.1027 13.1569 15.3103 12.4754 15.3113 11.778C15.3113 10.8409 14.9391 9.94217 14.2764 9.27954C13.6138 8.61691 12.7151 8.24465 11.778 8.24465V8.24465Z" fill="#E6E6E7" stroke="#E6E6E7" stroke-width="0.560849"/><path d="M16.8816 7.75912C17.4643 7.75912 17.9367 7.28674 17.9367 6.70402C17.9367 6.12131 17.4643 5.64893 16.8816 5.64893C16.2989 5.64893 15.8265 6.12131 15.8265 6.70402C15.8265 7.28674 16.2989 7.75912 16.8816 7.75912Z" fill="#E6E6E7" stroke="#E6E6E7" stroke-width="0.560849"/></g><defs><clipPath id="clip0_303_1552"><rect width="24" height="24" fill="white"/></clipPath></defs></svg>