<svg width="24" height="24" viewBox="0 0 24 24" fill="none" xmlns="http://www.w3.org/2000/svg"><path d="M5.77396 3.48975C4.84148 3.48975 4.08557 4.24566 4.08557 5.17813C4.08557 6.1106 4.84148 6.86652 5.77396 6.86652C6.70643 6.86652 7.46235 6.1106 7.46235 5.17813C7.46235 4.24566 6.70643 3.48975 5.77396 3.48975Z" fill="#E6E6E7"/><path d="M4.18489 8.25684C4.13003 8.25684 4.08557 8.3013 4.08557 8.35615V18.6851C4.08557 18.7399 4.13003 18.7844 4.18489 18.7844H7.36303C7.41789 18.7844 7.46235 18.7399 7.46235 18.6851V8.35615C7.46235 8.3013 7.41789 8.25684 7.36303 8.25684H4.18489Z" fill="#E6E6E7"/><path d="M9.34944 8.25684C9.29458 8.25684 9.25012 8.3013 9.25012 8.35615V18.6851C9.25012 18.7399 9.29458 18.7844 9.34944 18.7844H12.5276C12.5824 18.7844 12.6269 18.7399 12.6269 18.6851V13.1234C12.6269 12.7282 12.7838 12.3493 13.0633 12.07C13.3426 11.7905 13.7215 11.6336 14.1167 11.6336C14.5118 11.6336 14.8907 11.7905 15.17 12.07C15.4495 12.3493 15.6064 12.7282 15.6064 13.1234V18.6851C15.6064 18.7399 15.6509 18.7844 15.7057 18.7844H18.8839C18.9387 18.7844 18.9832 18.7399 18.9832 18.6851V11.8364C18.9832 9.90828 17.3062 8.39984 15.3878 8.57425C14.7961 8.62803 14.2112 8.77512 13.665 9.00921L12.6269 9.45409V8.35615C12.6269 8.3013 12.5824 8.25684 12.5276 8.25684H9.34944Z" fill="#E6E6E7"/></svg>