<svg width="24" height="24" viewBox="0 0 24 24" fill="none" xmlns="http://www.w3.org/2000/svg"><path fill-rule="evenodd" clip-rule="evenodd" d="M17.8146 19.0037L17.8153 19.0021L17.8311 18.9625L20.5592 5.20836V5.16368C20.5592 4.82099 20.4325 4.52182 20.157 4.34236C19.9158 4.18529 19.6386 4.17411 19.4442 4.18887C19.2385 4.20447 19.0447 4.25579 18.9105 4.29851C18.8414 4.32049 18.7837 4.34166 18.7423 4.35768C18.7215 4.36573 18.7047 4.37255 18.6925 4.37762L18.6805 4.38268L3.47009 10.3495L3.46591 10.351C3.45769 10.354 3.44683 10.3581 3.4337 10.3631C3.40755 10.3733 3.37194 10.3879 3.33011 10.4069C3.24798 10.4441 3.1345 10.5015 3.01942 10.5803C2.82397 10.7142 2.45178 11.0311 2.51463 11.5334C2.56668 11.9495 2.85353 12.2138 3.04691 12.3506C3.15056 12.424 3.24974 12.4769 3.32236 12.5115C3.35915 12.529 3.39041 12.5424 3.41369 12.5518C3.42536 12.5566 3.43511 12.5604 3.44266 12.5633L3.45233 12.5669L3.45851 12.5692L6.11967 13.4651C6.11069 13.6321 6.12725 13.8023 6.17152 13.9703L7.50453 19.0269C7.66258 19.6264 8.20498 20.0441 8.82502 20.0436C9.3808 20.0432 9.87371 19.707 10.0831 19.2054L12.1642 16.9801L15.7385 19.7204L15.7894 19.7426C16.1141 19.8843 16.4176 19.9292 16.6949 19.8913C16.9719 19.8535 17.192 19.7373 17.3574 19.605C17.5201 19.4748 17.6316 19.3279 17.7017 19.2173C17.7374 19.1611 17.7639 19.1117 17.7823 19.0745C17.7916 19.0558 17.7989 19.0401 17.8043 19.0277L17.8113 19.0119L17.8137 19.0061L17.8146 19.0037ZM7.49098 13.6224C7.46069 13.5075 7.50825 13.3862 7.60858 13.3225L16.6349 7.59037C16.6349 7.59037 17.1658 7.26806 17.1468 7.59037C17.1468 7.59037 17.2416 7.64729 16.957 7.91268C16.6872 8.16475 10.5238 14.1153 9.90014 14.7174C9.86414 14.7522 9.84266 14.792 9.82996 14.8404L8.82399 18.679L7.49098 13.6224Z" fill="#E6E6E7"/></svg>