<svg width="24" height="24" viewBox="0 0 24 24" fill="none" xmlns="http://www.w3.org/2000/svg"><path fill-rule="evenodd" clip-rule="evenodd" d="M7.55313 5.88549C10.2035 5.67814 12.8659 5.67814 15.5162 5.88549L17.2965 6.02478C18.2882 6.10235 19.0994 6.84556 19.2633 7.82663C19.6735 10.2813 19.6735 12.7871 19.2633 15.2418C19.0994 16.2229 18.2882 16.9661 17.2965 17.0437L15.5162 17.183C12.8659 17.3903 10.2035 17.3903 7.55313 17.183L5.77282 17.0437C4.78118 16.9661 3.96994 16.2229 3.80602 15.2418C3.39588 12.7871 3.39588 10.2813 3.80602 7.82663C3.96994 6.84556 4.78118 6.10235 5.77282 6.02478L7.55313 5.88549ZM9.94557 13.4968V9.57161C9.94557 9.38634 10.1477 9.27189 10.3065 9.36722L13.5776 11.3299C13.7319 11.4224 13.7319 11.646 13.5776 11.7386L10.3065 13.7012C10.1477 13.7966 9.94557 13.6821 9.94557 13.4968Z" fill="#E6E6E7"/></svg>