<svg width="18" height="18" viewBox="0 0 18 18" fill="currentColor" xmlns="http://www.w3.org/2000/svg"><path fill-rule="evenodd" clip-rule="evenodd" d="M6.9767 0.74228C7.6252 0.58395 8.3028 0.5 9 0.5C13.6944 0.5 17.5 4.30558 17.5 9C17.5 9.6972 17.4161 10.3748 17.2577 11.0233C17.7269 11.7337 18 12.585 18 13.5C18 15.9853 15.9853 18 13.5 18C12.585 18 11.7337 17.7269 11.0233 17.2577C10.3748 17.4161 9.6972 17.5 9 17.5C4.30558 17.5 0.5 13.6944 0.5 9C0.5 8.3028 0.58395 7.6252 0.74228 6.9767C0.27312 6.26631 0 5.41505 0 4.5C0 2.01472 2.01472 0 4.5 0C5.41505 0 6.26631 0.27312 6.9767 0.74228ZM10.5042 8.2725C10.8776 8.3839 11.2335 8.5472 11.5614 8.7577C11.8964 8.9779 12.1756 9.2737 12.3772 9.6202C12.5859 10.004 12.6917 10.4353 12.6841 10.8722C12.7016 11.4356 12.5338 11.9893 12.2062 12.4481C11.8616 12.9191 11.3886 13.2808 10.8438 13.4898C10.2577 13.7237 9.6303 13.8365 8.9994 13.8212C8.257 13.8421 7.5206 13.6829 6.85307 13.3572C6.41437 13.1263 6.03772 12.7932 5.75495 12.386C5.47201 11.9945 5.31348 11.5268 5.29999 11.044C5.29999 10.827 5.3862 10.6188 5.53965 10.4654C5.69311 10.3119 5.90124 10.2257 6.11826 10.2257C6.33528 10.2257 6.54341 10.3119 6.69687 10.4654C6.85032 10.6188 6.93653 10.827 6.93653 11.044C6.95334 11.1936 7.0105 11.3359 7.1018 11.4556C7.232 11.6426 7.4047 11.7961 7.6059 11.9032C8.0413 12.1066 8.5191 12.2031 8.9994 12.1847C9.4147 12.1982 9.8285 12.1281 10.2162 11.9785C10.4762 11.885 10.704 11.7189 10.8724 11.4998C10.9971 11.3258 11.0589 11.1145 11.0475 10.9008C11.0561 10.7357 11.0229 10.571 10.951 10.4221C10.8766 10.3001 10.7749 10.197 10.6539 10.121C10.4599 9.9987 10.2498 9.9039 10.0296 9.8395C9.8504 9.7847 9.6548 9.7315 9.4519 9.6791L9.4372 9.6775C9.4281 9.6745 9.4154 9.6714 9.4042 9.6687C9.4002 9.6678 9.3964 9.6669 9.393 9.666C9.2604 9.6325 9.1279 9.5989 8.9863 9.5678C8.6246 9.4901 8.3742 9.4271 8.2171 9.3796C8.2136 9.3787 8.2105 9.3766 8.2074 9.3745C8.2048 9.3727 8.2021 9.3709 8.1991 9.3698C7.8358 9.2817 7.4786 9.1702 7.1296 9.036C6.66788 8.8507 6.26234 8.5484 5.95297 8.1588C5.63251 7.7382 5.4651 7.221 5.47837 6.69243C5.47848 6.16152 5.65203 5.64518 5.97261 5.22199C6.30731 4.79639 6.75424 4.47274 7.263 4.28752C7.8256 4.08534 8.4205 3.98827 9.0182 4.00113C9.4884 3.99593 9.9567 4.06102 10.4076 4.19424C10.7983 4.30815 11.1643 4.49379 11.4869 4.74167C11.7662 4.95362 11.9993 5.22037 12.1718 5.52557C12.2236 5.62025 12.2562 5.72423 12.2676 5.83154C12.279 5.93884 12.2691 6.04735 12.2384 6.15081C12.2077 6.25427 12.1569 6.35064 12.0888 6.43437C12.0208 6.51811 11.9368 6.58755 11.8418 6.6387C11.7468 6.68985 11.6426 6.7217 11.5352 6.73242C11.4278 6.74314 11.3194 6.73251 11.2161 6.70115C11.1129 6.66979 11.0168 6.61832 10.9335 6.54969C10.8503 6.48107 10.7814 6.39665 10.7309 6.30129C10.6611 6.19149 10.5708 6.09619 10.4649 6.02062C10.3012 5.90125 10.1175 5.81202 9.9224 5.75714C9.6283 5.67286 9.3233 5.6326 9.0174 5.63767C8.6221 5.62602 8.2279 5.68589 7.8538 5.81442C7.6314 5.89017 7.4336 6.02444 7.281 6.2031C7.172 6.34259 7.113 6.51459 7.1133 6.69161C7.0999 6.8567 7.1464 7.0211 7.2442 7.1547C7.3779 7.3181 7.5515 7.4441 7.7483 7.5205C8.13 7.6675 8.5229 7.7835 8.9233 7.8675C9.2588 7.9411 9.5305 8.0066 9.7596 8.0704C10.0214 8.135 10.2751 8.203 10.5042 8.2725Z"/></svg>