<svg width="24" height="24" viewBox="0 0 24 24" fill="none" xmlns="http://www.w3.org/2000/svg"><path d="M11.9999 16.0001C10.8375 16.0001 9.79003 15.5045 9.05839 14.711C8.68402 14.305 8.08465 14.1124 7.59884 14.3751C7.11305 14.6378 6.92631 15.2513 7.26596 15.6868C8.36303 17.0935 10.075 18.0001 11.9999 18.0001C13.9247 18.0001 15.6367 17.0935 16.7338 15.6868C17.0734 15.2513 16.8867 14.6378 16.4009 14.3751C15.9151 14.1124 15.3157 14.305 14.9414 14.711C14.2097 15.5045 13.1622 16.0001 11.9999 16.0001Z" fill="white"/><path d="M8 9.75C8 9.05964 8.55964 8.5 9.25 8.5C9.94036 8.5 10.5 9.05964 10.5 9.75C10.5 10.4404 9.94036 11 9.25 11C8.55964 11 8 10.4404 8 9.75Z" fill="white"/><path d="M14.75 8.5C14.0596 8.5 13.5 9.05964 13.5 9.75C13.5 10.4404 14.0596 11 14.75 11C15.4404 11 16 10.4404 16 9.75C16 9.05964 15.4404 8.5 14.75 8.5Z" fill="white"/><path fill-rule="evenodd" clip-rule="evenodd" d="M12 2C6.47715 2 2 6.47715 2 12C2 17.5228 6.47715 22 12 22C17.5228 22 22 17.5228 22 12C22 6.47715 17.5228 2 12 2ZM4 12C4 7.58172 7.58172 4 12 4C16.4183 4 20 7.58172 20 12C20 16.4183 16.4183 20 12 20C7.58172 20 4 16.4183 4 12Z" fill="white"/></svg>