<svg width="24" height="24" viewBox="0 0 24 24" fill="none" xmlns="http://www.w3.org/2000/svg"><path fill-rule="evenodd" clip-rule="evenodd" d="M10.4864 4.11437C11.1608 2.9521 12.8392 2.95211 13.5136 4.11437L15.579 7.67373C15.7694 8.00182 16.0984 8.22571 16.4735 8.28236L19.9031 8.80036C21.3981 9.02617 21.9225 10.9138 20.7582 11.8783L18.2593 13.9487C17.9086 14.2392 17.7437 14.6976 17.8289 15.1451L18.5289 18.821C18.8031 20.261 17.2914 21.3798 15.9944 20.6968L12.5824 18.9003C12.2178 18.7083 11.7822 18.7083 11.4176 18.9003L8.00554 20.6968C6.70853 21.3798 5.1969 20.261 5.4711 18.821L6.17108 15.1451C6.25628 14.6976 6.09136 14.2392 5.74062 13.9487L3.24172 11.8783C2.07743 10.9138 2.60184 9.02617 4.09683 8.80036L7.52648 8.28236C7.90154 8.22571 8.23059 8.00182 8.42096 7.67373L10.4864 4.11437ZM12.2162 4.8672C12.1199 4.70116 11.8801 4.70116 11.7838 4.8672L9.71836 8.42656C9.29954 9.14835 8.57563 9.64091 7.75049 9.76553L4.32085 10.2836C4.10728 10.3158 4.03236 10.5855 4.19869 10.7233L6.69759 12.7936C7.46922 13.4329 7.83205 14.4413 7.6446 15.4256L6.94462 19.1016C6.90545 19.3073 7.12139 19.4672 7.30668 19.3696L10.7188 17.573C11.5207 17.1507 12.4793 17.1507 13.2812 17.573L16.6933 19.3696C16.8786 19.4672 17.0945 19.3073 17.0553 19.1016L16.3554 15.4256C16.1679 14.4413 16.5307 13.4329 17.3024 12.7936L19.8013 10.7233C19.9676 10.5855 19.8927 10.3158 19.6791 10.2836L16.2495 9.76553C15.4243 9.64091 14.7004 9.14835 14.2816 8.42656L12.2162 4.8672Z" fill="#FFC600"/></svg>