<svg width="26" height="26" viewBox="0 0 26 26" xmlns="http://www.w3.org/2000/svg"><path fill-rule="evenodd" clip-rule="evenodd" d="M3.03737 9.0494C2.73388 11.8692 2.74742 15.1214 3.16972 17.9297C3.4034 19.4836 4.67162 20.6749 6.23711 20.811L7.8732 20.9532C11.2847 21.2498 14.7154 21.2498 18.1269 20.9532L19.763 20.811C21.3285 20.6749 22.5967 19.4836 22.8304 17.9297C23.2527 15.1214 23.2662 11.8694 22.9627 9.04956C22.9235 8.72266 22.8794 8.39619 22.8304 8.07027C22.5967 6.51635 21.3285 5.32506 19.763 5.18898L18.1269 5.04675C14.7154 4.7502 11.2847 4.7502 7.8732 5.04675L6.23711 5.18898C4.67162 5.32506 3.4034 6.51635 3.16972 8.07027C3.12072 8.39613 3.07661 8.72255 3.03737 9.0494ZM8.01392 6.66566C11.3317 6.37724 14.6684 6.37724 17.9862 6.66566L19.6222 6.80788C20.4394 6.87891 21.1014 7.50077 21.2234 8.31191C21.2361 8.39615 21.2484 8.48042 21.2605 8.56474L15.236 11.9117C13.8455 12.6842 12.1546 12.6842 10.764 11.9117L4.73968 8.56478C4.75166 8.48046 4.76399 8.39616 4.77665 8.31191C4.89863 7.50077 5.56065 6.87891 6.37784 6.80788L8.01392 6.66566ZM21.4592 10.3132C21.6694 12.7699 21.5908 15.2452 21.2234 17.688C21.1014 18.4992 20.4394 19.121 19.6222 19.1921L17.9862 19.3343C14.6684 19.6227 11.3317 19.6227 8.01392 19.3343L6.37784 19.1921C5.56065 19.121 4.89863 18.4992 4.77665 17.688C4.4093 15.2452 4.3307 12.77 4.54083 10.3132L9.97485 13.3321C11.8563 14.3773 14.1438 14.3773 16.0251 13.3321L21.4592 10.3132Z"/></svg>