<svg width="26" height="26" viewBox="0 0 26 26" xmlns="http://www.w3.org/2000/svg"><path fill-rule="evenodd" clip-rule="evenodd" d="M5.41667 1.35413C3.77132 1.35413 2.4375 2.68795 2.4375 4.33329C2.4375 5.97864 3.77132 7.31246 5.41667 7.31246C7.06201 7.31246 8.39583 5.97864 8.39583 4.33329C8.39583 2.68795 7.06201 1.35413 5.41667 1.35413ZM4.0625 4.33329C4.0625 3.5854 4.66878 2.97913 5.41667 2.97913C6.16456 2.97913 6.77083 3.5854 6.77083 4.33329C6.77083 5.08118 6.16456 5.68746 5.41667 5.68746C4.66878 5.68746 4.0625 5.08118 4.0625 4.33329Z"/><path fill-rule="evenodd" clip-rule="evenodd" d="M2.4375 8.66663C2.4375 8.2179 2.80127 7.85413 3.25 7.85413H7.58333C8.03206 7.85413 8.39583 8.2179 8.39583 8.66663V22.75C8.39583 23.1987 8.03206 23.5625 7.58333 23.5625H3.25C2.80127 23.5625 2.4375 23.1987 2.4375 22.75V8.66663ZM4.0625 9.47913V21.9375H6.77083V9.47913H4.0625Z"/><path fill-rule="evenodd" clip-rule="evenodd" d="M10.021 8.66663C10.021 8.2179 10.3848 7.85413 10.8335 7.85413H15.1668C15.6155 7.85413 15.9793 8.2179 15.9793 8.66663V9.13681L16.4509 8.93473C17.2616 8.58728 18.1286 8.36941 19.0054 8.2897C22.0115 8.01641 24.646 10.3787 24.646 13.4118V22.75C24.646 23.1987 24.2822 23.5625 23.8335 23.5625H19.5002C19.0514 23.5625 18.6877 23.1987 18.6877 22.75V15.1666C18.6877 14.8075 18.545 14.463 18.2911 14.2091C18.0371 13.9551 17.6926 13.8125 17.3335 13.8125C16.9744 13.8125 16.6299 13.9551 16.3759 14.2091C16.122 14.463 15.9793 14.8075 15.9793 15.1666V22.75C15.9793 23.1987 15.6155 23.5625 15.1668 23.5625H10.8335C10.3848 23.5625 10.021 23.1987 10.021 22.75V8.66663ZM11.646 9.47913V21.9375H14.3543V15.1666C14.3543 14.3766 14.6682 13.6188 15.227 13.0601C15.7856 12.5013 16.5434 12.1875 17.3335 12.1875C18.1236 12.1875 18.8814 12.5013 19.44 13.0601C19.9988 13.6188 20.3127 14.3766 20.3127 15.1666V21.9375H23.021V13.4118C23.021 11.3489 21.2216 9.71992 19.1525 9.90803C18.4439 9.97243 17.7434 10.1487 17.091 10.4283L15.4868 11.1158C15.2358 11.2234 14.9476 11.1976 14.7195 11.0474C14.4916 10.897 14.3543 10.6421 14.3543 10.369V9.47913H11.646Z"/></svg>