<svg width="26" height="26" viewBox="0 0 26 26" xmlns="http://www.w3.org/2000/svg"><path fill-rule="evenodd" clip-rule="evenodd" d="M6.26978 15.1879C6.31719 15.204 6.36506 15.2152 6.41287 15.2222C6.46502 15.3448 6.5324 15.5033 6.611 15.6887C6.80284 16.1411 7.06131 16.753 7.32811 17.3913C7.87221 18.6932 8.42104 20.0351 8.54225 20.4192C8.6923 20.8941 8.85091 21.2169 9.02406 21.4374C9.1136 21.5513 9.21715 21.6508 9.33831 21.7262C9.3993 21.7641 9.46373 21.7952 9.53099 21.8184C9.53395 21.8195 9.5369 21.8204 9.53986 21.8214C9.88655 21.9523 10.2026 21.8978 10.4005 21.8312C10.5064 21.7954 10.5921 21.7524 10.6528 21.7175C10.6838 21.6996 10.7099 21.6831 10.7308 21.669L10.7357 21.6657L13.7974 19.7564L17.334 22.4677C17.3862 22.5077 17.4431 22.5413 17.5034 22.5676C17.9283 22.753 18.3396 22.8176 18.7267 22.7648C19.113 22.712 19.4198 22.5497 19.6482 22.367C19.8718 22.1881 20.0233 21.9877 20.1178 21.8388C20.166 21.7628 20.2022 21.6955 20.2277 21.6441C20.2406 21.6182 20.2508 21.5959 20.2588 21.578L20.269 21.5544L20.2728 21.545L20.2745 21.5411L20.2752 21.5393L20.2759 21.5376C20.2945 21.4911 20.3087 21.443 20.3184 21.3939L23.5471 5.11634C23.5574 5.06429 23.5626 5.01133 23.5626 4.95826C23.5626 4.48158 23.383 4.02832 22.9607 3.75327C22.5997 3.51819 22.1976 3.50807 21.9434 3.52735C21.6694 3.54816 21.4162 3.61584 21.2462 3.66991C21.1578 3.69805 21.0837 3.7252 21.0303 3.74591C21.0034 3.75633 20.9813 3.76526 20.965 3.77208L20.9526 3.77726L2.84613 10.8802L2.84379 10.881C2.83225 10.8853 2.81743 10.8908 2.79983 10.8976C2.76477 10.9113 2.71779 10.9304 2.66291 10.9554C2.5559 11.0039 2.40577 11.0796 2.25171 11.1851C2.00559 11.3537 1.43956 11.8153 1.53487 12.5772C1.61091 13.1851 2.02732 13.5584 2.28103 13.7379C2.42033 13.8365 2.55269 13.9069 2.64907 13.9528C2.69378 13.9741 2.78662 14.0118 2.8269 14.0282L2.83707 14.0323L6.26978 15.1879ZM21.5864 5.27356L21.5838 5.27466C21.5748 5.27858 21.5657 5.28233 21.5566 5.28593L3.42804 12.3975C3.41857 12.4012 3.40904 12.4047 3.39944 12.4081L3.38936 12.4119C3.37775 12.4164 3.35823 12.4244 3.33373 12.4354C3.31983 12.4417 3.30532 12.4486 3.29053 12.456C3.31086 12.4675 3.33029 12.4773 3.34757 12.4856C3.36416 12.4935 3.37681 12.4989 3.38373 12.5017L6.78825 13.6479C6.85056 13.6689 6.90865 13.6966 6.96197 13.7302L18.2035 7.14948L18.214 7.14326C18.2222 7.13842 18.2329 7.1322 18.2458 7.12491C18.2714 7.11044 18.3066 7.09119 18.3484 7.06991C18.4264 7.0302 18.5512 6.97126 18.6918 6.92779C18.7898 6.89754 19.0785 6.81229 19.3906 6.9124C19.5832 6.97418 19.7826 7.10701 19.9123 7.33202C19.9768 7.44381 20.0111 7.55611 20.0277 7.6589C20.0719 7.82084 20.0649 7.98075 20.0304 8.1188C19.9559 8.41619 19.7469 8.64815 19.5568 8.82558C19.3939 8.97769 17.2864 11.0098 15.2074 13.016C14.1705 14.0163 13.1443 15.0069 12.3773 15.7473L11.8734 16.2337L18.2348 21.1106C18.3806 21.1628 18.4668 21.1602 18.5068 21.1547C18.5543 21.1482 18.5932 21.1299 18.633 21.0982C18.6774 21.0626 18.7163 21.0145 18.7453 20.9687L18.7465 20.9669L21.8779 5.17948C21.8314 5.19065 21.7844 5.20395 21.7391 5.21836C21.6878 5.23469 21.6455 5.25024 21.6175 5.26111C21.6036 5.26649 21.5936 5.27058 21.5882 5.27283L21.5864 5.27356ZM12.42 18.7003L11.1508 17.7273L10.8433 19.6834L12.42 18.7003ZM9.98661 15.7966L11.2487 14.5781C12.0158 13.8377 13.0421 12.8471 14.079 11.8465L15.1325 10.8301L8.06918 14.965L8.10708 15.0544C8.29958 15.5084 8.55922 16.123 8.82743 16.7647C9.02799 17.2445 9.23771 17.7498 9.42873 18.2176L9.73535 16.2672C9.76491 16.0791 9.85678 15.9164 9.98661 15.7966Z"/></svg>