<svg width="44" height="44" viewBox="0 0 44 44" fill="none" xmlns="http://www.w3.org/2000/svg"><path d="M15.5277 15.5277C16.0647 14.9908 16.9353 14.9908 17.4723 15.5277L22 20.0554L26.5278 15.5277C27.0648 14.9908 27.9352 14.9908 28.4722 15.5277C29.0092 16.0647 29.0092 16.9353 28.4722 17.4723L23.9446 22L28.4722 26.5278C29.0092 27.0648 29.0092 27.9352 28.4722 28.4722C27.9352 29.0092 27.0648 29.0092 26.5278 28.4722L22 23.9446L17.4723 28.4722C16.9353 29.0092 16.0647 29.0092 15.5277 28.4722C14.9908 27.9352 14.9908 27.0648 15.5277 26.5278L20.0554 22L15.5277 17.4723C14.9908 16.9353 14.9908 16.0647 15.5277 15.5277Z" fill="white"/><path fill-rule="evenodd" clip-rule="evenodd" d="M13.4139 6.90942C19.0744 6.27677 24.9253 6.27677 30.5858 6.90942C33.9342 7.28364 36.6381 9.92117 37.0321 13.2889C37.709 19.0766 37.709 24.9235 37.0321 30.7111C36.6381 34.0789 33.9342 36.7164 30.5858 37.0907C24.9253 37.7232 19.0744 37.7232 13.4139 37.0907C10.0655 36.7164 7.36154 34.0789 6.96765 30.7111C6.29073 24.9235 6.29073 19.0766 6.96765 13.2889C7.36154 9.92117 10.0655 7.28364 13.4139 6.90942ZM30.2803 9.64241C24.8229 9.03244 19.1769 9.03244 13.7193 9.64241C11.6212 9.87689 9.9418 11.5329 9.69904 13.6084C9.04695 19.1838 9.04695 24.8162 9.69904 30.3917C9.9418 32.4673 11.6212 34.1231 13.7193 34.3576C19.1769 34.9676 24.8229 34.9676 30.2803 34.3576C32.3786 34.1231 34.0579 32.4673 34.3006 30.3917C34.9528 24.8162 34.9528 19.1838 34.3006 13.6084C34.0579 11.5329 32.3786 9.87689 30.2803 9.64241Z" fill="white"/></svg>