<svg width="21" height="18" viewBox="0 0 21 18" fill="currentColor" xmlns="http://www.w3.org/2000/svg"><path fill-rule="evenodd" clip-rule="evenodd" d="M17.483 16.7902L17.4837 16.7884L17.5011 16.7449L20.4999 1.62592V1.57681C20.4999 1.20011 20.3607 0.871249 20.0578 0.673989C19.7927 0.501329 19.488 0.489039 19.2743 0.505259C19.0482 0.522409 18.8351 0.578829 18.6876 0.625789C18.6117 0.649949 18.5482 0.673219 18.5027 0.690829C18.4799 0.699669 18.4614 0.707169 18.448 0.712749L18.4348 0.718309L1.71502 7.27725L1.71042 7.27885C1.70139 7.28215 1.68945 7.28665 1.67502 7.29225C1.64627 7.30345 1.60713 7.31945 1.56115 7.34035C1.47087 7.38125 1.34613 7.44435 1.21963 7.53095C1.00478 7.67815 0.595662 8.02645 0.664742 8.57865C0.721962 9.03605 1.03727 9.32655 1.24984 9.47695C1.36378 9.55765 1.4728 9.61575 1.55263 9.65375C1.59307 9.67305 1.62743 9.68775 1.65302 9.69815C1.66585 9.70335 1.67657 9.70755 1.68487 9.71075L1.6955 9.71465L1.70229 9.71725L4.62753 10.702C4.61766 10.8855 4.63586 11.0726 4.68453 11.2573L6.14982 16.8157C6.32355 17.4747 6.91978 17.9338 7.60135 17.9333C8.21228 17.9329 8.75411 17.5633 8.98429 17.0119L11.2719 14.5658L15.2009 17.578L15.2568 17.6024C15.6137 17.7582 15.9473 17.8075 16.2522 17.7659C16.5567 17.7243 16.7986 17.5966 16.9804 17.4512C17.1593 17.3081 17.2818 17.1466 17.3589 17.025C17.3981 16.9632 17.4273 16.9089 17.4475 16.868C17.4577 16.8475 17.4657 16.8302 17.4717 16.8166L17.4793 16.7992L17.482 16.7928L17.483 16.7902ZM6.13493 10.8749C6.10163 10.7486 6.15391 10.6152 6.2642 10.5452L16.1862 4.24432C16.1862 4.24432 16.7698 3.89002 16.7489 4.24432C16.7489 4.24432 16.8531 4.30688 16.5403 4.59861C16.2437 4.87569 9.46874 11.4167 8.78316 12.0786C8.74359 12.1168 8.71997 12.1606 8.70602 12.2138L7.60022 16.4333L6.13493 10.8749Z"/></svg>