<svg width="24" height="24" viewBox="0 0 24 24" fill="none" xmlns="http://www.w3.org/2000/svg"><path fill-rule="evenodd" clip-rule="evenodd" d="M13.2977 18.7502C13.4639 18.7502 13.6174 18.661 13.6997 18.5166L17.0457 12.6434C17.4892 11.8648 17.6753 10.966 17.5774 10.0754L17.2243 6.86167C17.1615 6.28989 16.7126 5.83698 16.1414 5.76903L14.0243 5.51719C12.6268 5.35094 11.2098 5.49505 9.87426 5.93925C9.21472 6.15862 8.68645 6.65921 8.43194 7.306L6.72785 11.6366C6.68619 11.7425 6.65739 11.853 6.64209 11.9657C6.51285 12.9178 7.34632 13.721 8.29299 13.5565L11.7088 12.9633C12.7878 12.7759 13.7197 13.7281 13.5091 14.8028L12.8437 18.1986C12.7877 18.4844 13.0065 18.7502 13.2977 18.7502ZM15.003 19.2591C14.6539 19.8718 14.0029 20.2502 13.2977 20.2502C12.0623 20.2502 11.1342 19.1225 11.3717 17.9102L12.0371 14.5143C12.04 14.4998 12.0384 14.4909 12.0364 14.4845C12.034 14.4767 12.0289 14.4674 12.0205 14.4589C12.0122 14.4504 12.0031 14.4451 11.9953 14.4425C11.989 14.4403 11.9801 14.4386 11.9655 14.4411L8.54967 15.0344C6.60349 15.3724 4.89002 13.7213 5.15572 11.7639C5.18719 11.5321 5.24638 11.305 5.33203 11.0873L7.03612 6.75674C7.4534 5.69631 8.31951 4.87558 9.40084 4.51591C10.9457 4.00208 12.5849 3.83538 14.2015 4.02769L16.3186 4.27953C17.5828 4.42992 18.5763 5.43232 18.7153 6.69783L19.0685 9.9115C19.2009 11.1165 18.9491 12.3325 18.349 13.3859L15.003 19.2591Z" fill="#FFC600"/></svg>