<svg width="20" height="20" viewBox="0 0 20 20" fill="none" xmlns="http://www.w3.org/2000/svg"><g clip-path="url(#clip0_116_2048)"><path d="M8.33325 10.8335C8.69113 11.3119 9.14772 11.7078 9.67204 11.9943C10.1964 12.2807 10.7762 12.4511 11.3721 12.4937C11.9681 12.5364 12.5662 12.4504 13.126 12.2416C13.6858 12.0328 14.1942 11.706 14.6166 11.2835L17.1166 8.78347C17.8756 7.99763 18.2956 6.94512 18.2861 5.85263C18.2766 4.76014 17.8384 3.71509 17.0658 2.94256C16.2933 2.17002 15.2482 1.73182 14.1558 1.72233C13.0633 1.71283 12.0108 2.13281 11.2249 2.8918L9.79159 4.3168" stroke="#DCDCDC" stroke-width="1.8" stroke-linecap="round" stroke-linejoin="round"/><path d="M11.6666 9.16653C11.3087 8.68809 10.8521 8.29221 10.3278 8.00575C9.80347 7.71928 9.22367 7.54893 8.62771 7.50625C8.03176 7.46357 7.4336 7.54956 6.8738 7.75838C6.314 7.9672 5.80566 8.29397 5.38326 8.71653L2.88326 11.2165C2.12426 12.0024 1.70429 13.0549 1.71378 14.1474C1.72327 15.2399 2.16148 16.2849 2.93401 17.0574C3.70655 17.83 4.7516 18.2682 5.84408 18.2777C6.93657 18.2872 7.98908 17.8672 8.77492 17.1082L10.1999 15.6832" stroke="#DCDCDC" stroke-width="1.8" stroke-linecap="round" stroke-linejoin="round"/></g><defs><clipPath id="clip0_116_2048"><rect width="20" height="20" fill="white"/></clipPath></defs></svg>