<svg width="11" height="16" viewBox="0 0 11 16" fill="none" xmlns="http://www.w3.org/2000/svg"><path d="M6.92188 15.5664L6.79297 16H0.253906L0.417969 15.5664C1.07422 15.5508 1.50781 15.4961 1.71875 15.4023C2.0625 15.2695 2.31641 15.0859 2.48047 14.8516C2.73828 14.4844 3.00391 13.8281 3.27734 12.8828L6.04297 3.29688C6.27734 2.5 6.39453 1.89844 6.39453 1.49219C6.39453 1.28906 6.34375 1.11719 6.24219 0.976562C6.14062 0.835938 5.98438 0.730469 5.77344 0.660156C5.57031 0.582031 5.16797 0.542969 4.56641 0.542969L4.70703 0.109375H10.8477L10.7188 0.542969C10.2188 0.535156 9.84766 0.589844 9.60547 0.707031C9.25391 0.863281 8.98438 1.08594 8.79688 1.375C8.61719 1.66406 8.38281 2.30469 8.09375 3.29688L5.33984 12.8828C5.08984 13.7656 4.96484 14.3281 4.96484 14.5703C4.96484 14.7656 5.01172 14.9336 5.10547 15.0742C5.20703 15.207 5.36328 15.3125 5.57422 15.3906C5.79297 15.4609 6.24219 15.5195 6.92188 15.5664Z" fill="#DCDCDC"/></svg>