<svg width="12" height="16" viewBox="0 0 12 16" fill="none" xmlns="http://www.w3.org/2000/svg"><path d="M1.996 10.464C2.25733 11.7147 2.724 12.6013 3.396 13.124C4.08667 13.628 5.06667 13.88 6.336 13.88C6.952 13.88 7.484 13.8053 7.932 13.656C8.38 13.5067 8.744 13.3107 9.024 13.068C9.32267 12.8067 9.54667 12.5173 9.696 12.2C9.84533 11.8827 9.92 11.5467 9.92 11.192C9.92 10.4827 9.68667 9.96 9.22 9.624C8.772 9.26933 8.20267 8.99867 7.512 8.812C6.82133 8.60667 6.07467 8.43867 5.272 8.308C4.46933 8.15867 3.72267 7.944 3.032 7.664C2.34133 7.384 1.76267 6.98267 1.296 6.46C0.848 5.93733 0.624 5.2 0.624 4.248C0.624 3.03467 1.06267 2.04533 1.94 1.28C2.836 0.496 4.096 0.104 5.72 0.104C7.288 0.104 8.55733 0.458666 9.528 1.168C10.5173 1.85867 11.1147 3.02533 11.32 4.668H9.612C9.46267 3.548 9.03333 2.764 8.324 2.316C7.63333 1.84933 6.756 1.616 5.692 1.616C4.628 1.616 3.816 1.84933 3.256 2.316C2.696 2.764 2.416 3.36133 2.416 4.108C2.416 4.76133 2.64 5.26533 3.088 5.62C3.55467 5.956 4.13333 6.236 4.824 6.46C5.51467 6.66533 6.26133 6.852 7.064 7.02C7.86667 7.188 8.61333 7.43067 9.304 7.748C9.99467 8.04667 10.564 8.45733 11.012 8.98C11.4787 9.50267 11.712 10.2307 11.712 11.164C11.712 11.8547 11.5627 12.4707 11.264 13.012C10.9653 13.5347 10.5547 13.9733 10.032 14.328C9.50933 14.6827 8.884 14.944 8.156 15.112C7.44667 15.2987 6.66267 15.392 5.804 15.392C4.94533 15.392 4.18 15.2613 3.508 15C2.85467 14.7573 2.29467 14.412 1.828 13.964C1.36133 13.516 0.997333 12.9933 0.736 12.396C0.474667 11.7987 0.325333 11.1547 0.288 10.464H1.996Z" fill="#DCDCDC"/><path d="M-1 6.208H13V7.608H-1V6.208Z" fill="#DCDCDC"/></svg>