<svg width="14" height="17" viewBox="0 0 14 17" fill="none" xmlns="http://www.w3.org/2000/svg"><path d="M3.67688 7.37H8.16488C8.82488 7.37 9.37488 7.18667 9.81488 6.82C10.2549 6.43867 10.4749 5.896 10.4749 5.192C10.4749 4.4 10.2769 3.84267 9.88088 3.52C9.48488 3.19733 8.91288 3.036 8.16488 3.036H3.67688V7.37ZM0.926883 0.791999H8.56088C9.96888 0.791999 11.0982 1.11467 11.9489 1.76C12.7996 2.40533 13.2249 3.38067 13.2249 4.686C13.2249 5.478 13.0269 6.16 12.6309 6.732C12.2496 7.28933 11.6996 7.722 10.9809 8.03V8.074C11.9489 8.27933 12.6822 8.74133 13.1809 9.46C13.6796 10.164 13.9289 11.0513 13.9289 12.122C13.9289 12.738 13.8189 13.3173 13.5989 13.86C13.3789 14.388 13.0342 14.85 12.5649 15.246C12.0955 15.6273 11.4942 15.9353 10.7609 16.17C10.0275 16.39 9.15488 16.5 8.14288 16.5H0.926883V0.791999ZM3.67688 14.256H8.53888C9.37488 14.256 10.0202 14.0433 10.4749 13.618C10.9442 13.178 11.1789 12.562 11.1789 11.77C11.1789 10.9927 10.9442 10.3987 10.4749 9.988C10.0202 9.56267 9.37488 9.35 8.53888 9.35H3.67688V14.256Z" fill="#DCDCDC"/></svg>