<svg width="24" height="24" viewBox="0 0 24 24" fill="none" xmlns="http://www.w3.org/2000/svg"><path fill-rule="evenodd" clip-rule="evenodd" d="M6.989 4.89006C10.3247 4.62909 13.6756 4.62909 17.0113 4.89006L19.252 5.06536C20.5001 5.163 21.5211 6.0984 21.7274 7.33317C22.2436 10.4226 22.2436 13.5764 21.7274 16.6659C21.5211 17.9006 20.5001 18.836 19.252 18.9337L17.0113 19.109C13.6756 19.3699 10.3247 19.3699 6.989 19.109L4.7483 18.9337C3.50023 18.836 2.47921 17.9006 2.2729 16.6659C1.75669 13.5764 1.75669 10.4226 2.2729 7.33317C2.47921 6.0984 3.50023 5.163 4.7483 5.06536L6.989 4.89006ZM10.0001 14.4696V9.5294C10.0001 9.29621 10.2545 9.15217 10.4544 9.27215L14.5714 11.7423C14.7656 11.8588 14.7656 12.1402 14.5714 12.2567L10.4544 14.7269C10.2545 14.8469 10.0001 14.7028 10.0001 14.4696Z" fill="white"/></svg>