<svg xmlns="http://www.w3.org/2000/svg" xmlns:xlink="http://www.w3.org/1999/xlink"><defs><clipPath id="clip0_625_30634"><rect width="18" height="18" fill="white"/></clipPath><clipPath id="clip0_116_2048"><rect width="20" height="20" fill="white"/></clipPath></defs><symbol id="accept" viewBox="0 0 24 24"><g fill="none"><path d="M5.25 11.2059L10.25 16.5L18.75 7.5" stroke="#D1D2D3" stroke-linecap="round" stroke-linejoin="round"/></g></symbol><symbol id="add" viewBox="0 0 24 24"><g fill="currentColor"><path d="M7.00732 12C7.00732 11.5858 7.3431 11.25 7.75732 11.25H11.2499V7.75732C11.2499 7.34311 11.5857 7.00732 11.9999 7.00732C12.4141 7.00732 12.7499 7.34311 12.7499 7.75732V11.25H16.2426C16.6568 11.25 16.9926 11.5858 16.9926 12C16.9926 12.4142 16.6568 12.75 16.2426 12.75H12.7499V16.2426C12.7499 16.6569 12.4141 16.9926 11.9999 16.9926C11.5857 16.9926 11.2499 16.6569 11.2499 16.2426V12.75H7.75732C7.3431 12.75 7.00732 12.4142 7.00732 12Z"/><path fill-rule="evenodd" clip-rule="evenodd" d="M7.31673 3.76882C10.4043 3.42374 13.5957 3.42374 16.6832 3.76882C18.5096 3.97294 19.9845 5.41159 20.1994 7.24855C20.5686 10.4055 20.5686 13.5947 20.1994 16.7516C19.9845 18.5886 18.5096 20.0272 16.6832 20.2314C13.5957 20.5764 10.4043 20.5764 7.31673 20.2314C5.49035 20.0272 4.01545 18.5886 3.8006 16.7516C3.43137 13.5947 3.43137 10.4055 3.8006 7.24855C4.01545 5.41159 5.49035 3.97294 7.31673 3.76882ZM16.5166 5.25954C13.5398 4.92683 10.4602 4.92683 7.48334 5.25954C6.33891 5.38744 5.42286 6.29069 5.29045 7.4228C4.93476 10.464 4.93476 13.5362 5.29045 16.5774C5.42286 17.7095 6.33891 18.6127 7.48334 18.7406C10.4602 19.0733 13.5398 19.0733 16.5166 18.7406C17.6611 18.6127 18.5771 17.7095 18.7095 16.5774C19.0652 13.5362 19.0652 10.464 18.7095 7.4228C18.5771 6.29069 17.6611 5.38744 16.5166 5.25954Z"/></g></symbol><symbol id="apps-mob" viewBox="0 0 24 24"><g fill="none"><rect x="4" y="4" width="6" height="6" rx="2" stroke="#D1D2D3" stroke-width="1.5"/><rect x="4" y="14" width="6" height="6" rx="2" stroke="#D1D2D3" stroke-width="1.5"/><rect x="14" y="4" width="6" height="6" rx="2" stroke="#D1D2D3" stroke-width="1.5"/><rect x="14" y="14" width="6" height="6" rx="2" stroke="#D1D2D3" stroke-width="1.5"/></g></symbol><symbol id="apps" viewBox="0 0 24 24"><g fill="none"><path fill-rule="evenodd" clip-rule="evenodd" d="M6.06661 3.87384C5.36393 3.7953 4.63593 3.7953 3.93325 3.87384C3.9202 3.8753 3.90728 3.8812 3.89667 3.89167C3.88631 3.90188 3.88226 3.91221 3.88124 3.92098C3.79739 4.63785 3.79739 5.36205 3.88124 6.07892C3.88226 6.08769 3.88631 6.09802 3.89667 6.10824C3.90728 6.1187 3.9202 6.12461 3.93325 6.12606C4.63593 6.2046 5.36393 6.2046 6.06661 6.12606C6.07966 6.12461 6.09257 6.1187 6.10319 6.10824C6.11355 6.09802 6.1176 6.08769 6.11862 6.07892C6.20247 5.36205 6.20247 4.63785 6.11862 3.92098C6.1176 3.91221 6.11355 3.90188 6.10319 3.89167C6.09257 3.8812 6.07966 3.8753 6.06661 3.87384ZM3.76664 2.38312C4.58005 2.29221 5.41981 2.29221 6.23322 2.38312C6.94555 2.46273 7.52384 3.02317 7.60847 3.74673C7.70585 4.57937 7.70585 5.42053 7.60847 6.25318C7.52384 6.97673 6.94555 7.53717 6.23322 7.61678C5.41981 7.70769 4.58005 7.70769 3.76664 7.61678C3.05431 7.53717 2.47602 6.97674 2.39139 6.25318C2.29401 5.42053 2.29401 4.57937 2.39139 3.74673C2.47602 3.02317 3.05431 2.46273 3.76664 2.38312Z" fill="white"/><path fill-rule="evenodd" clip-rule="evenodd" d="M13.0666 3.87384C12.3639 3.7953 11.6359 3.7953 10.9332 3.87384C10.9202 3.8753 10.9073 3.8812 10.8966 3.89167C10.8863 3.90188 10.8822 3.91221 10.8812 3.92098C10.7974 4.63785 10.7974 5.36205 10.8812 6.07892C10.8822 6.08769 10.8863 6.09802 10.8966 6.10824C10.9073 6.1187 10.9202 6.12461 10.9332 6.12606C11.6359 6.2046 12.3639 6.2046 13.0666 6.12606C13.0796 6.12461 13.0925 6.1187 13.1032 6.10824C13.1135 6.09802 13.1176 6.08769 13.1186 6.07892C13.2024 5.36205 13.2024 4.63785 13.1186 3.92098C13.1176 3.91221 13.1135 3.90188 13.1032 3.89167C13.0925 3.8812 13.0796 3.8753 13.0666 3.87384ZM10.7666 2.38312C11.58 2.29221 12.4198 2.29221 13.2332 2.38312C13.9455 2.46273 14.5238 3.02317 14.6084 3.74673C14.7058 4.57937 14.7058 5.42053 14.6084 6.25318C14.5238 6.97673 13.9455 7.53717 13.2332 7.61678C12.4198 7.70769 11.58 7.70769 10.7666 7.61678C10.0543 7.53717 9.47602 6.97674 9.39139 6.25318C9.29401 5.42053 9.29401 4.57937 9.39139 3.74673C9.47602 3.02317 10.0543 2.46273 10.7666 2.38312Z" fill="white"/><path fill-rule="evenodd" clip-rule="evenodd" d="M20.0666 3.87384C19.3639 3.7953 18.6359 3.7953 17.9332 3.87384C17.9202 3.8753 17.9073 3.8812 17.8966 3.89167C17.8863 3.90188 17.8822 3.91221 17.8812 3.92098C17.7974 4.63785 17.7974 5.36205 17.8812 6.07892C17.8822 6.08769 17.8863 6.09802 17.8966 6.10824C17.9073 6.1187 17.9202 6.12461 17.9332 6.12606C18.6359 6.2046 19.3639 6.2046 20.0666 6.12606C20.0796 6.12461 20.0925 6.1187 20.1032 6.10824C20.1135 6.09802 20.1176 6.08769 20.1186 6.07892C20.2024 5.36205 20.2024 4.63785 20.1186 3.92098C20.1176 3.91221 20.1135 3.90188 20.1032 3.89167C20.0925 3.8812 20.0796 3.8753 20.0666 3.87384ZM17.7666 2.38312C18.58 2.29221 19.4198 2.29221 20.2332 2.38312C20.9455 2.46273 21.5238 3.02317 21.6084 3.74673C21.7058 4.57937 21.7058 5.42053 21.6084 6.25318C21.5238 6.97673 20.9455 7.53717 20.2332 7.61678C19.4198 7.70769 18.58 7.70769 17.7666 7.61678C17.0543 7.53717 16.476 6.97674 16.3914 6.25318C16.294 5.42053 16.294 4.57937 16.3914 3.74673C16.476 3.02317 17.0543 2.46273 17.7666 2.38312Z" fill="white"/><path fill-rule="evenodd" clip-rule="evenodd" d="M6.06661 10.8739C5.36393 10.7954 4.63593 10.7954 3.93325 10.8739C3.9202 10.8753 3.90728 10.8813 3.89667 10.8917C3.88631 10.9019 3.88226 10.9123 3.88124 10.921C3.79739 11.6379 3.79739 12.3621 3.88124 13.079C3.88226 13.0877 3.88631 13.0981 3.89667 13.1083C3.90728 13.1187 3.9202 13.1247 3.93325 13.1261C4.63593 13.2046 5.36393 13.2046 6.06661 13.1261C6.07966 13.1247 6.09257 13.1187 6.10319 13.1083C6.11355 13.0981 6.1176 13.0877 6.11862 13.079C6.20247 12.3621 6.20247 11.6379 6.11862 10.921C6.1176 10.9123 6.11355 10.9019 6.10319 10.8917C6.09257 10.8813 6.07966 10.8753 6.06661 10.8739ZM3.76664 9.38312C4.58005 9.29221 5.41981 9.29221 6.23322 9.38312C6.94555 9.46273 7.52384 10.0232 7.60847 10.7468C7.70585 11.5794 7.70585 12.4206 7.60847 13.2532C7.52384 13.9768 6.94555 14.5372 6.23322 14.6168C5.41981 14.7077 4.58005 14.7077 3.76664 14.6168C3.05431 14.5372 2.47602 13.9768 2.39139 13.2532C2.29401 12.4206 2.29401 11.5794 2.39139 10.7468C2.47602 10.0232 3.05431 9.46273 3.76664 9.38312Z" fill="white"/><path fill-rule="evenodd" clip-rule="evenodd" d="M13.0666 10.8739C12.3639 10.7954 11.6359 10.7954 10.9332 10.8739C10.9202 10.8753 10.9073 10.8813 10.8966 10.8917C10.8863 10.9019 10.8822 10.9123 10.8812 10.921C10.7974 11.6379 10.7974 12.3621 10.8812 13.079C10.8822 13.0877 10.8863 13.0981 10.8966 13.1083C10.9073 13.1187 10.9202 13.1247 10.9332 13.1261C11.6359 13.2046 12.3639 13.2046 13.0666 13.1261C13.0796 13.1247 13.0925 13.1187 13.1032 13.1083C13.1135 13.0981 13.1176 13.0877 13.1186 13.079C13.2024 12.3621 13.2024 11.6379 13.1186 10.921C13.1176 10.9123 13.1135 10.9019 13.1032 10.8917C13.0925 10.8813 13.0796 10.8753 13.0666 10.8739ZM10.7666 9.38312C11.58 9.29221 12.4198 9.29221 13.2332 9.38312C13.9455 9.46273 14.5238 10.0232 14.6084 10.7468C14.7058 11.5794 14.7058 12.4206 14.6084 13.2532C14.5238 13.9768 13.9455 14.5372 13.2332 14.6168C12.4198 14.7077 11.58 14.7077 10.7666 14.6168C10.0543 14.5372 9.47602 13.9768 9.39139 13.2532C9.29401 12.4206 9.29401 11.5794 9.39139 10.7468C9.47602 10.0232 10.0543 9.46273 10.7666 9.38312Z" fill="white"/><path fill-rule="evenodd" clip-rule="evenodd" d="M20.0666 10.8739C19.3639 10.7954 18.6359 10.7954 17.9332 10.8739C17.9202 10.8753 17.9073 10.8813 17.8966 10.8917C17.8863 10.9019 17.8822 10.9123 17.8812 10.921C17.7974 11.6379 17.7974 12.3621 17.8812 13.079C17.8822 13.0877 17.8863 13.0981 17.8966 13.1083C17.9073 13.1187 17.9202 13.1247 17.9332 13.1261C18.6359 13.2046 19.3639 13.2046 20.0666 13.1261C20.0796 13.1247 20.0925 13.1187 20.1032 13.1083C20.1135 13.0981 20.1176 13.0877 20.1186 13.079C20.2024 12.3621 20.2024 11.6379 20.1186 10.921C20.1176 10.9123 20.1135 10.9019 20.1032 10.8917C20.0925 10.8813 20.0796 10.8753 20.0666 10.8739ZM17.7666 9.38312C18.58 9.29221 19.4198 9.29221 20.2332 9.38312C20.9455 9.46273 21.5238 10.0232 21.6084 10.7468C21.7058 11.5794 21.7058 12.4206 21.6084 13.2532C21.5238 13.9768 20.9455 14.5372 20.2332 14.6168C19.4198 14.7077 18.58 14.7077 17.7666 14.6168C17.0543 14.5372 16.476 13.9768 16.3914 13.2532C16.294 12.4206 16.294 11.5794 16.3914 10.7468C16.476 10.0232 17.0543 9.46273 17.7666 9.38312Z" fill="white"/><path fill-rule="evenodd" clip-rule="evenodd" d="M6.06661 17.8739C5.36393 17.7954 4.63593 17.7954 3.93325 17.8739C3.9202 17.8753 3.90728 17.8813 3.89667 17.8917C3.88631 17.9019 3.88226 17.9123 3.88124 17.921C3.79739 18.6379 3.79739 19.3621 3.88124 20.079C3.88226 20.0877 3.88631 20.0981 3.89667 20.1083C3.90728 20.1187 3.9202 20.1247 3.93325 20.1261C4.63593 20.2046 5.36393 20.2046 6.06661 20.1261C6.07966 20.1247 6.09257 20.1187 6.10319 20.1083C6.11355 20.0981 6.1176 20.0877 6.11862 20.079C6.20247 19.3621 6.20247 18.6379 6.11862 17.921C6.1176 17.9123 6.11355 17.9019 6.10319 17.8917C6.09257 17.8813 6.07966 17.8753 6.06661 17.8739ZM3.76664 16.3832C4.58005 16.2923 5.41981 16.2923 6.23322 16.3832C6.94555 16.4628 7.52384 17.0232 7.60847 17.7468C7.70585 18.5794 7.70585 19.4206 7.60847 20.2532C7.52384 20.9768 6.94555 21.5372 6.23322 21.6168C5.41981 21.7077 4.58005 21.7077 3.76664 21.6168C3.05431 21.5372 2.47602 20.9768 2.39139 20.2532C2.29401 19.4206 2.29401 18.5794 2.39139 17.7468C2.47602 17.0232 3.05431 16.4628 3.76664 16.3832Z" fill="white"/><path fill-rule="evenodd" clip-rule="evenodd" d="M13.0666 17.8739C12.3639 17.7954 11.6359 17.7954 10.9332 17.8739C10.9202 17.8753 10.9073 17.8813 10.8966 17.8917C10.8863 17.9019 10.8822 17.9123 10.8812 17.921C10.7974 18.6379 10.7974 19.3621 10.8812 20.079C10.8822 20.0877 10.8863 20.0981 10.8966 20.1083C10.9073 20.1187 10.9202 20.1247 10.9332 20.1261C11.6359 20.2046 12.3639 20.2046 13.0666 20.1261C13.0796 20.1247 13.0925 20.1187 13.1032 20.1083C13.1135 20.0981 13.1176 20.0877 13.1186 20.079C13.2024 19.3621 13.2024 18.6379 13.1186 17.921C13.1176 17.9123 13.1135 17.9019 13.1032 17.8917C13.0925 17.8813 13.0796 17.8753 13.0666 17.8739ZM10.7666 16.3832C11.58 16.2923 12.4198 16.2923 13.2332 16.3832C13.9455 16.4628 14.5238 17.0232 14.6084 17.7468C14.7058 18.5794 14.7058 19.4206 14.6084 20.2532C14.5238 20.9768 13.9455 21.5372 13.2332 21.6168C12.4198 21.7077 11.58 21.7077 10.7666 21.6168C10.0543 21.5372 9.47602 20.9768 9.39139 20.2532C9.29401 19.4206 9.29401 18.5794 9.39139 17.7468C9.47602 17.0232 10.0543 16.4628 10.7666 16.3832Z" fill="white"/><path fill-rule="evenodd" clip-rule="evenodd" d="M20.0666 17.8739C19.3639 17.7954 18.6359 17.7954 17.9332 17.8739C17.9202 17.8753 17.9073 17.8813 17.8966 17.8917C17.8863 17.9019 17.8822 17.9123 17.8812 17.921C17.7974 18.6379 17.7974 19.3621 17.8812 20.079C17.8822 20.0877 17.8863 20.0981 17.8966 20.1083C17.9073 20.1187 17.9202 20.1247 17.9332 20.1261C18.6359 20.2046 19.3639 20.2046 20.0666 20.1261C20.0796 20.1247 20.0925 20.1187 20.1032 20.1083C20.1135 20.0981 20.1176 20.0877 20.1186 20.079C20.2024 19.3621 20.2024 18.6379 20.1186 17.921C20.1176 17.9123 20.1135 17.9019 20.1032 17.8917C20.0925 17.8813 20.0796 17.8753 20.0666 17.8739ZM17.7666 16.3832C18.58 16.2923 19.4198 16.2923 20.2332 16.3832C20.9455 16.4628 21.5238 17.0232 21.6084 17.7468C21.7058 18.5794 21.7058 19.4206 21.6084 20.2532C21.5238 20.9768 20.9455 21.5372 20.2332 21.6168C19.4198 21.7077 18.58 21.7077 17.7666 21.6168C17.0543 21.5372 16.476 20.9768 16.3914 20.2532C16.294 19.4206 16.294 18.5794 16.3914 17.7468C16.476 17.0232 17.0543 16.4628 17.7666 16.3832Z" fill="white"/></g></symbol><symbol id="arrow-big" viewBox="0 0 24 24"><g fill="currentColor"><path fill-rule="evenodd" clip-rule="evenodd" d="M9.39301 10.7473C8.57371 11.3813 8.57371 12.6183 9.39301 13.2523C11.5521 14.9229 13.963 16.2397 16.5355 17.1533L17.0016 17.3189C18.0251 17.6824 19.1019 16.9899 19.2399 15.9378C19.5795 13.3477 19.5795 10.6519 19.2399 8.06179C19.1019 7.00971 18.0251 6.31724 17.0016 6.68076L16.5355 6.84627C13.963 7.75993 11.5521 9.07672 9.39301 10.7473ZM10.311 12.0659C10.2677 12.0325 10.2677 11.9671 10.311 11.9337C12.3443 10.3603 14.6148 9.12022 17.0375 8.25977L17.5036 8.09425C17.6038 8.05866 17.7355 8.12654 17.7526 8.25684C18.0753 10.7174 18.0753 13.2822 17.7526 15.7428C17.7355 15.8731 17.6038 15.9409 17.5036 15.9054L17.0375 15.7398C14.6148 14.8794 12.3443 13.6393 10.311 12.0659Z"/><path fill-rule="evenodd" clip-rule="evenodd" d="M6 6.25C5.5858 6.25 5.25 6.58579 5.25 7V17C5.25 17.4142 5.5858 17.75 6 17.75C6.4142 17.75 6.75 17.4142 6.75 17V7C6.75 6.58579 6.4142 6.25 6 6.25Z"/></g></symbol><symbol id="arrow-right" viewBox="0 0 21 18"><g fill="none"><path d="M21 9C21 8.71966 20.8869 8.46174 20.6607 8.24868L13.1632 0.836412C12.9144 0.58971 12.6769 0.5 12.4055 0.5C11.8514 0.5 11.4216 0.903694 11.4216 1.46438C11.4216 1.73351 11.5121 1.99142 11.6931 2.17084L14.2262 4.72757L18.0258 8.17018L15.3005 8.00198H0.995153C0.407108 8.00198 0 8.41689 0 9C0 9.58311 0.407108 9.99802 0.995153 9.99802H15.3005L18.0372 9.82981L14.2262 13.2724L11.6931 15.8292C11.5121 15.9974 11.4216 16.2665 11.4216 16.5356C11.4216 17.0963 11.8514 17.5 12.4055 17.5C12.6769 17.5 12.9144 17.3991 13.1405 17.186L20.6607 9.75132C20.8869 9.53826 21 9.28034 21 9Z" fill="white"/></g></symbol><symbol id="arrow-small" viewBox="0 0 25 24"><g fill="currentColor"><path fill-rule="evenodd" clip-rule="evenodd" d="M14.4522 7.46967C14.1593 7.17678 13.6845 7.17678 13.3916 7.46967L9.39158 11.4697C9.09868 11.7626 9.09868 12.2374 9.39158 12.5303L13.3916 16.5303C13.6845 16.8232 14.1593 16.8232 14.4522 16.5303C14.7451 16.2374 14.7451 15.7626 14.4522 15.4697L10.9826 12L14.4522 8.53033C14.7451 8.23744 14.7451 7.76256 14.4522 7.46967Z"/></g></symbol><symbol id="article-edit" viewBox="0 0 18 18"><g fill="none"><g clip-path="url(#clip0_625_30634)"><path d="M12.182 3.6964C12.7678 3.11062 13.7175 3.11062 14.3033 3.6964V3.6964C14.8891 4.28219 14.8891 5.23194 14.3033 5.81772L5.81805 14.303H3.69673V12.1817L12.182 3.6964Z" stroke="#D1D2D3" stroke-width="1.125"/><path d="M11.1213 4.75732L13.2427 6.87864" stroke="#D1D2D3" stroke-width="1.125"/></g></g></symbol><symbol id="bell" viewBox="0 0 16 20"><g fill="none"><path fill-rule="evenodd" clip-rule="evenodd" d="M8.99994 1C8.99994 0.44772 8.55224 0 7.99994 0C7.44764 0 6.99994 0.44772 6.99994 1V1.75H6.44254C4.21745 1.75 2.37585 3.48001 2.23696 5.70074L2.01595 9.2342C1.93169 10.5814 1.4794 11.8797 0.708342 12.9876C0.0116615 13.9886 0.631882 15.3712 1.84281 15.5165L5.24994 15.9254V17C5.24994 18.5188 6.48114 19.75 7.99994 19.75C9.51874 19.75 10.7499 18.5188 10.7499 17V15.9254L14.157 15.5165C15.368 15.3712 15.9882 13.9886 15.2915 12.9876C14.5204 11.8797 14.0681 10.5814 13.9839 9.2342L13.7629 5.70074C13.624 3.48001 11.7824 1.75 9.55734 1.75H8.99994V1ZM6.44254 3.25C5.00952 3.25 3.82348 4.36417 3.73403 5.79438L3.51303 9.3278C3.41163 10.949 2.86738 12.5112 1.93953 13.8444C1.88918 13.9168 1.934 14.0167 2.02153 14.0272L5.75919 14.4757C7.24764 14.6543 8.75224 14.6543 10.2406 14.4757L13.9783 14.0272C14.0658 14.0167 14.1107 13.9168 14.0603 13.8444C13.1325 12.5112 12.5882 10.949 12.4868 9.3278L12.2658 5.79438C12.1763 4.36417 10.9903 3.25 9.55734 3.25H6.44254ZM7.99994 18.25C7.30954 18.25 6.74994 17.6904 6.74994 17V16.25H9.24994V17C9.24994 17.6904 8.69034 18.25 7.99994 18.25Z" fill="white"/></g></symbol><symbol id="catalog-list" viewBox="0 0 23 23"><g fill="none"><path d="M4.32388 7.0462C5.67367 7.0462 6.76788 5.95199 6.76788 4.6022C6.76788 3.25242 5.67367 2.1582 4.32388 2.1582C2.9741 2.1582 1.87988 3.25242 1.87988 4.6022C1.87988 5.95199 2.9741 7.0462 4.32388 7.0462Z" fill="white"/><path d="M4.32388 14.0022C5.67367 14.0022 6.76788 12.9081 6.76788 11.5582C6.76788 10.2085 5.67367 9.11426 4.32388 9.11426C2.9741 9.11426 1.87988 10.2085 1.87988 11.5582C1.87988 12.9081 2.9741 14.0022 4.32388 14.0022Z" fill="white"/><path d="M4.32388 20.9583C5.67367 20.9583 6.76788 19.8641 6.76788 18.5143C6.76788 17.1646 5.67367 16.0703 4.32388 16.0703C2.9741 16.0703 1.87988 17.1646 1.87988 18.5143C1.87988 19.8641 2.9741 20.9583 4.32388 20.9583Z" fill="white"/><path d="M9.77623 6.38816H18.9882C19.9282 6.38816 20.7742 5.63616 20.7742 4.60216C20.7742 3.66216 20.0222 2.81616 18.9882 2.81616H9.77623C8.83623 2.81616 7.99023 3.56816 7.99023 4.60216C7.99023 5.54216 8.74223 6.38816 9.77623 6.38816Z" fill="white"/><path d="M18.8942 9.77222H9.77623C8.83623 9.77222 7.99023 10.5242 7.99023 11.5582C7.99023 12.4982 8.74223 13.3442 9.77623 13.3442H18.9882C19.9282 13.3442 20.7742 12.5922 20.7742 11.5582C20.6802 10.6182 19.9282 9.77222 18.8942 9.77222Z" fill="white"/><path d="M18.8942 16.7283H9.77623C8.83623 16.7283 7.99023 17.4803 7.99023 18.5143C7.99023 19.4543 8.74223 20.3003 9.77623 20.3003H18.9882C19.9282 20.3003 20.7742 19.5483 20.7742 18.5143C20.6802 17.4803 19.9282 16.7283 18.8942 16.7283Z" fill="white"/></g></symbol><symbol id="catalog-tiles" viewBox="0 0 23 23"><g fill="none"><path d="M5.07723 9.2006C7.32443 9.2006 9.14616 7.37888 9.14616 5.13167C9.14616 2.88447 7.32443 1.06274 5.07723 1.06274C2.83002 1.06274 1.0083 2.88447 1.0083 5.13167C1.0083 7.37888 2.83002 9.2006 5.07723 9.2006Z" fill="white"/><path d="M16.9312 9.2006C19.1784 9.2006 21.0002 7.37888 21.0002 5.13167C21.0002 2.88447 19.1784 1.06274 16.9312 1.06274C14.684 1.06274 12.8623 2.88447 12.8623 5.13167C12.8623 7.37888 14.684 9.2006 16.9312 9.2006Z" fill="white"/><path d="M5.07723 20.7814C7.32443 20.7814 9.14616 18.9598 9.14616 16.7125C9.14616 14.4653 7.32443 12.6436 5.07723 12.6436C2.83002 12.6436 1.0083 14.4653 1.0083 16.7125C1.0083 18.9598 2.83002 20.7814 5.07723 20.7814Z" fill="white"/><path d="M16.9312 20.7814C19.1784 20.7814 21.0002 18.9598 21.0002 16.7125C21.0002 14.4653 19.1784 12.6436 16.9312 12.6436C14.684 12.6436 12.8623 14.4653 12.8623 16.7125C12.8623 18.9598 14.684 20.7814 16.9312 20.7814Z" fill="white"/></g></symbol><symbol id="chat" viewBox="0 0 24 24"><g fill="none"><path d="M8 9.5C7.30964 9.5 6.75 10.0596 6.75 10.75C6.75 11.4403 7.30964 12 8 12C8.69036 12 9.25 11.4403 9.25 10.75C9.25 10.0596 8.69036 9.5 8 9.5Z" fill="#FFC600"/><path d="M12 9.5C11.3096 9.5 10.75 10.0596 10.75 10.75C10.75 11.4403 11.3096 12 12 12C12.6904 12 13.25 11.4403 13.25 10.75C13.25 10.0596 12.6904 9.5 12 9.5Z" fill="#FFC600"/><path d="M14.75 10.75C14.75 10.0596 15.3096 9.5 16 9.5C16.6904 9.5 17.25 10.0596 17.25 10.75C17.25 11.4403 16.6904 12 16 12C15.3096 12 14.75 11.4403 14.75 10.75Z" fill="#FFC600"/><path fill-rule="evenodd" clip-rule="evenodd" d="M16.1007 4.59259C13.4065 4.36283 10.6983 4.34949 8.00194 4.55272L7.80871 4.56728C5.23741 4.76108 3.25 6.90391 3.25 9.48251V17.9998C3.25 18.2637 3.38867 18.5081 3.61515 18.6435C3.84163 18.7789 4.12261 18.7853 4.35504 18.6604L8.26583 16.5587C8.44774 16.4609 8.65104 16.4098 8.85756 16.4098H17.834C18.9661 16.4098 19.9362 15.6004 20.1392 14.4866C20.5505 12.2294 20.5829 9.91945 20.2353 7.65155L20.1329 6.98322C19.9464 5.76647 18.951 4.83566 17.7245 4.73106L16.1007 4.59259ZM8.11468 6.04847C10.731 5.85128 13.359 5.86422 15.9733 6.08716L17.597 6.22563C18.1334 6.27137 18.5686 6.67841 18.6502 7.21049L18.7526 7.87882C19.075 9.9821 19.0449 12.1244 18.6635 14.2178C18.5904 14.6185 18.2413 14.9098 17.834 14.9098H8.85756C8.40322 14.9098 7.95596 15.0223 7.55575 15.2374L4.75 16.7453V9.48251C4.75 7.6886 6.13262 6.19786 7.92144 6.06304L8.11468 6.04847Z" fill="#FFC600"/></g></symbol><symbol id="circle-minus" viewBox="0 0 21 20"><g fill="none"><circle cx="10.5" cy="10.286" r="6.42857" stroke="#D1D2D3" stroke-width="1.20536"/><path d="M8.08929 10.2861H12.9107" stroke="#D1D2D3" stroke-width="1.20536" stroke-linecap="round" stroke-linejoin="round"/></g></symbol><symbol id="circle-plus" viewBox="0 0 20 20"><g fill="none"><circle cx="9.99998" cy="10.286" r="6.42857" stroke="#D1D2D3" stroke-width="1.20536"/><path d="M7.58926 10.2857H12.4107M9.99998 7.875V12.6964" stroke="#D1D2D3" stroke-width="1.20536" stroke-linecap="round" stroke-linejoin="round"/></g></symbol><symbol id="cloud" viewBox="0 0 24 24"><g fill="none"><path fill-rule="evenodd" clip-rule="evenodd" d="M12.932 6.2085C11.3817 6.2085 10.0407 7.11083 9.40819 8.42231C9.23814 8.77492 8.8255 8.93743 8.46067 8.79547C7.96994 8.60452 7.43548 8.49938 6.87467 8.49938C4.45821 8.49938 2.49927 10.4583 2.49927 12.8748C2.49927 15.2913 4.45821 17.2502 6.87467 17.2502H18.5233C20.1678 17.2502 21.5009 15.9171 21.5009 14.2726C21.5009 12.6282 20.1678 11.2951 18.5233 11.2951C18.2558 11.2951 17.9975 11.3302 17.7525 11.3956C17.5123 11.4598 17.2559 11.4007 17.068 11.238C16.88 11.0752 16.785 10.8298 16.8142 10.5829C16.8322 10.4307 16.8414 10.2756 16.8414 10.118C16.8414 7.95883 15.0911 6.2085 12.932 6.2085ZM8.38009 7.19421C9.34183 5.69992 11.0206 4.7085 12.932 4.7085C15.8125 4.7085 18.1672 6.95995 18.3322 9.79908C18.3956 9.79641 18.4593 9.79506 18.5233 9.79506C20.9962 9.79506 23.0009 11.7997 23.0009 14.2726C23.0009 16.7455 20.9962 18.7502 18.5233 18.7502H6.87467C3.62978 18.7502 0.999268 16.1197 0.999268 12.8748C0.999268 9.62989 3.62978 6.99938 6.87467 6.99938C7.39433 6.99938 7.89905 7.06703 8.38009 7.19421Z" fill="#FFC600"/><g opacity="0.8"><path d="M10 14.232V10.5436H11.0229V14.232H10Z" fill="#FFC600"/><path d="M11.8424 15.6151V10.5436H12.8509V11.1632H12.8965C12.9414 11.0639 13.0062 10.9631 13.0911 10.8606C13.1775 10.7565 13.2896 10.6701 13.4272 10.6013C13.5665 10.5308 13.7394 10.4956 13.9459 10.4956C14.2149 10.4956 14.463 10.566 14.6903 10.7069C14.9176 10.8462 15.0993 11.0567 15.2354 11.3385C15.3715 11.6186 15.4395 11.97 15.4395 12.3926C15.4395 12.804 15.3731 13.1514 15.2402 13.4348C15.1089 13.7165 14.9296 13.9302 14.7023 14.0759C14.4766 14.22 14.2237 14.292 13.9435 14.292C13.745 14.292 13.5761 14.2592 13.4368 14.1936C13.2992 14.1279 13.1863 14.0455 13.0983 13.9462C13.0102 13.8454 12.943 13.7437 12.8965 13.6413H12.8653V15.6151H11.8424ZM12.8437 12.3878C12.8437 12.6071 12.8741 12.7984 12.935 12.9617C12.9958 13.125 13.0838 13.2523 13.1991 13.3435C13.3144 13.4332 13.4544 13.478 13.6193 13.478C13.7858 13.478 13.9267 13.4324 14.042 13.3411C14.1572 13.2483 14.2445 13.1202 14.3037 12.9569C14.3645 12.792 14.3949 12.6023 14.3949 12.3878C14.3949 12.1749 14.3653 11.9876 14.3061 11.8259C14.2469 11.6642 14.1596 11.5378 14.0444 11.4465C13.9291 11.3553 13.7874 11.3096 13.6193 11.3096C13.4528 11.3096 13.312 11.3537 13.1967 11.4417C13.083 11.5298 12.9958 11.6546 12.935 11.8163C12.8741 11.978 12.8437 12.1685 12.8437 12.3878Z" fill="#FFC600"/></g></g></symbol><symbol id="comment-add" viewBox="0 0 24 24"><g fill="none"><path d="M12.3501 8.7002C12.7643 8.7002 13.1001 9.03599 13.1001 9.4502V11.4502H15.1001C15.5143 11.4502 15.8501 11.786 15.8501 12.2002C15.8501 12.6144 15.5143 12.9502 15.1001 12.9502H13.1001V14.9502C13.1001 15.3644 12.7643 15.7002 12.3501 15.7002C11.9359 15.7002 11.6001 15.3644 11.6001 14.9502V12.9502H9.6001C9.18588 12.9502 8.8501 12.6144 8.8501 12.2002C8.8501 11.786 9.18588 11.4502 9.6001 11.4502H11.6001V9.4502C11.6001 9.03599 11.9359 8.7002 12.3501 8.7002Z" fill="#FFC600"/><path fill-rule="evenodd" clip-rule="evenodd" d="M4.59182 15.3042C2.34395 9.78675 6.40306 3.75 12.3609 3.75H12.6823C17.138 3.75 20.75 7.36201 20.75 11.8176C20.75 16.7785 16.7284 20.8 11.7676 20.8H3.9473C3.62905 20.8 3.34544 20.5991 3.23982 20.2989C3.13419 19.9987 3.22954 19.6645 3.47768 19.4652L5.44917 17.8819C5.53538 17.8127 5.56587 17.6951 5.52415 17.5927L4.59182 15.3042ZM12.3609 5.25C7.46834 5.25 4.13502 10.2074 5.98096 14.7383L6.91329 17.0268C7.20529 17.7435 6.99184 18.5669 6.38842 19.0515L6.07897 19.3H11.7676C15.9 19.3 19.25 15.95 19.25 11.8176C19.25 8.19044 16.3096 5.25 12.6823 5.25H12.3609Z" fill="#FFC600"/></g></symbol><symbol id="decline" viewBox="0 0 24 24"><g fill="none"><path d="M5.25 5.25L12 12M12 12L5.25 18.75M12 12L18.75 18.75M12 12L18.75 5.25" stroke="#D1D2D3" stroke-linecap="round" stroke-linejoin="round"/></g></symbol><symbol id="delete" viewBox="0 0 24 24"><g fill="none"><path d="M6 6H18L17.5689 18.0714C17.5304 19.1475 16.6469 20 15.5702 20H8.42985C7.35306 20 6.46955 19.1475 6.43112 18.0714L6 6Z" stroke="#D1D2D3" stroke-width="1.5"/><path d="M9 5C9 3.89543 9.89543 3 11 3H13C14.1046 3 15 3.89543 15 5V6H9V5Z" stroke="#D1D2D3" stroke-width="1.5"/><path d="M4 6H20" stroke="#D1D2D3" stroke-width="1.5" stroke-linecap="round"/><path d="M9 9L9.25 17" stroke="#D1D2D3" stroke-width="1.5" stroke-linecap="round"/><path d="M12 9V17" stroke="#D1D2D3" stroke-width="1.5" stroke-linecap="round"/><path d="M15 9L14.75 17" stroke="#D1D2D3" stroke-width="1.5" stroke-linecap="round"/></g></symbol><symbol id="edit" viewBox="0 0 24 24"><g fill="currentColor"><path fill-rule="evenodd" clip-rule="evenodd" d="M15.137 3.46967C14.9964 3.32902 14.8056 3.25 14.6067 3.25C14.4078 3.25 14.217 3.32902 14.0764 3.46967L4.88399 12.6621C4.78976 12.7563 4.72234 12.8739 4.68867 13.0028L3.68867 16.8313C3.62138 17.0889 3.69572 17.3629 3.88399 17.5511C4.07226 17.7394 4.34625 17.8138 4.60386 17.7465L8.43229 16.7465C8.56122 16.7128 8.67885 16.6454 8.77308 16.5511L17.9655 7.35876C18.2583 7.06586 18.2583 6.59099 17.9655 6.2981L15.137 3.46967ZM6.08854 13.5788L14.6067 5.06066L16.3745 6.82843L7.85631 15.3466L5.46355 15.9716L6.08854 13.5788Z"/><path d="M4 19.25C3.58579 19.25 3.25 19.5858 3.25 20C3.25 20.4142 3.58579 20.75 4 20.75H19C19.4142 20.75 19.75 20.4142 19.75 20C19.75 19.5858 19.4142 19.25 19 19.25H4Z"/></g></symbol><symbol id="expired" viewBox="0 0 12 12"><g fill="none"><path d="M9.28846 2.7343L2.71154 9.31122M10.75 6C10.75 8.62335 8.62335 10.75 6 10.75C3.37665 10.75 1.25 8.62335 1.25 6C1.25 3.37665 3.37665 1.25 6 1.25C8.62335 1.25 10.75 3.37665 10.75 6Z" stroke="#D1D2D3" stroke-width="1.3" stroke-linecap="round"/></g></symbol><symbol id="facebook" viewBox="0 0 24 24"><g fill="none"><path d="M14.2 2.875C12.9734 2.875 11.797 3.36228 10.9296 4.22963C10.0623 5.09699 9.575 6.27337 9.575 7.5V10.075H7.1C6.97574 10.075 6.875 10.1757 6.875 10.3V13.7C6.875 13.8243 6.97574 13.925 7.1 13.925H9.575V20.9C9.575 21.0243 9.67574 21.125 9.8 21.125H13.2C13.3243 21.125 13.425 21.0243 13.425 20.9V13.925H15.9219C16.0252 13.925 16.1152 13.8547 16.1402 13.7546L16.9902 10.3546C17.0257 10.2126 16.9183 10.075 16.7719 10.075H13.425V7.5C13.425 7.29446 13.5067 7.09733 13.652 6.95199C13.7973 6.80665 13.9945 6.725 14.2 6.725H16.8C16.9243 6.725 17.025 6.62426 17.025 6.5V3.1C17.025 2.97574 16.9243 2.875 16.8 2.875H14.2Z" fill="white"/></g></symbol><symbol id="filter-btn" viewBox="0 0 24 24"><g fill="none"><path fill-rule="evenodd" clip-rule="evenodd" d="M17.9857 5.42379C14.0076 4.97918 9.99224 4.97918 6.01408 5.42379C5.74491 5.45388 5.61528 5.76953 5.78563 5.9801L9.30265 10.3276C10.5625 11.885 11.2499 13.8276 11.2499 15.8308V18.72L12.7499 19.82V15.8308C12.7499 13.8276 13.4373 11.885 14.6972 10.3276L18.2142 5.9801C18.3845 5.76953 18.2549 5.45388 17.9857 5.42379ZM5.84747 3.93308C9.93636 3.47608 14.0634 3.47608 18.1523 3.93308C19.5993 4.09479 20.2961 5.79158 19.3804 6.92351L15.8633 11.271C14.8194 12.5615 14.2499 14.171 14.2499 15.8308V21.3001C14.2499 21.5827 14.091 21.8414 13.8389 21.9691C13.5868 22.0969 13.2843 22.072 13.0564 21.9049L10.0564 19.7049C9.86372 19.5636 9.7499 19.339 9.7499 19.1001V15.8308C9.7499 14.171 9.18038 12.5615 8.13646 11.271L4.61944 6.92351C3.70375 5.79158 4.40054 4.09479 5.84747 3.93308Z" fill="white"/></g></symbol><symbol id="folder" viewBox="0 0 24 24"><g fill="none"><path fill-rule="evenodd" clip-rule="evenodd" d="M20.3612 18.5795C19.9556 18.97 19.4178 19.2212 18.8252 19.2636L17.1873 19.3808C13.7334 19.6279 10.2664 19.6279 6.81252 19.3808L5.29851 19.2725C4.10249 19.1869 3.11598 18.3027 2.90046 17.1232C2.46379 14.7333 2.38904 12.2913 2.6787 9.87915L2.95118 7.61004C3.11289 6.26343 4.25529 5.25 5.61158 5.25H7.90314C9.0209 5.25 9.95217 6.04846 10.1577 7.10612H18.4721C19.7785 7.10612 20.8912 8.05533 21.0971 9.34535L21.1612 9.74679C21.1746 9.83114 21.1876 9.91554 21.2001 10H21.5361C23.0085 10 24.0208 11.4798 23.4871 12.8521L22.2377 16.065C21.8497 17.0626 21.1988 17.9301 20.3612 18.5795ZM19.6158 9.58178L19.6799 9.98322C19.6808 9.98881 19.6817 9.99441 19.6826 10H10.3703C9.23463 10 8.21575 10.6981 7.80577 11.7573L5.47393 17.7812L5.40556 17.7763C4.89208 17.7396 4.46856 17.36 4.37603 16.8536C3.9664 14.6116 3.89627 12.3208 4.168 10.058L4.44048 7.78888C4.51167 7.19611 5.01455 6.75 5.61158 6.75H7.90314C8.34319 6.75 8.69991 7.10672 8.69991 7.54677C8.69991 8.13183 9.1742 8.60612 9.75927 8.60612H18.4721C19.0413 8.60612 19.5261 9.0197 19.6158 9.58178ZM7.03909 17.8931C10.3821 18.1266 13.7375 18.1238 17.0803 17.8846L18.7181 17.7674L18.9127 17.7492L18.9113 17.7468C19.7919 17.25 20.4732 16.4636 20.8397 15.5213L22.0891 12.3084C22.2404 11.9195 21.9535 11.5 21.5361 11.5H10.3703C9.85411 11.5 9.39098 11.8173 9.20462 12.2988L7.03909 17.8931Z" fill="#FFC600"/></g></symbol><symbol id="history" viewBox="0 0 24 24"><g fill="none"><path d="M6.86461 6.88236C8.17813 5.56432 9.99326 4.75 12 4.75C16.0041 4.75 19.25 7.99594 19.25 12C19.25 16.0041 16.0041 19.25 12 19.25C7.99594 19.25 4.75 16.0041 4.75 12C4.75 11.5858 4.41421 11.25 4 11.25C3.58579 11.25 3.25 11.5858 3.25 12C3.25 16.8325 7.16751 20.75 12 20.75C16.8325 20.75 20.75 16.8325 20.75 12C20.75 7.16751 16.8325 3.25 12 3.25C9.57851 3.25 7.38558 4.23462 5.80213 5.82352C5.77668 5.84906 5.75345 5.87597 5.73245 5.90401L4.47488 4.64645C4.33769 4.50926 4.13353 4.46382 3.95111 4.52986C3.76869 4.59591 3.64094 4.76152 3.62338 4.95473L3.26982 8.84382C3.25639 8.9916 3.30929 9.13771 3.41422 9.24264C3.51914 9.34757 3.66526 9.40047 3.81304 9.38703L7.70213 9.03348C7.89534 9.01591 8.06095 8.88817 8.12699 8.70575C8.19304 8.52332 8.1476 8.31916 8.01041 8.18198L6.7823 6.95386C6.81101 6.93235 6.83854 6.90852 6.86461 6.88236Z" fill="white"/><path d="M12.75 7C12.75 6.58579 12.4142 6.25 12 6.25C11.5858 6.25 11.25 6.58579 11.25 7V12C11.25 12.2586 11.3832 12.4989 11.6025 12.636L14.6025 14.511C14.9538 14.7305 15.4165 14.6238 15.636 14.2725C15.8555 13.9212 15.7488 13.4585 15.3975 13.239L12.75 11.5843V7Z" fill="white"/></g></symbol><symbol id="ic_chevron-down" viewBox="0 0 16 16"><g fill="none"><path d="M8 10.9998L3 5.9998L3.7 5.2998L8 9.5998L12.3 5.2998L13 5.9998L8 10.9998Z" fill="white"/></g></symbol><symbol id="ic_code" viewBox="0 0 20 20"><g fill="none"><path d="M19.375 10L15 14.375L14.1187 13.4937L17.6063 10L14.1187 6.50625L15 5.625L19.375 10ZM0.625 10L5 5.625L5.88125 6.50625L2.39375 10L5.88125 13.4937L5 14.375L0.625 10ZM7.7625 15.9275L11.025 3.75L12.2325 4.07313L8.97 16.25L7.7625 15.9275Z" fill="white"/></g></symbol><symbol id="ic_horizontal-rule" viewBox="0 0 20 20"><g fill="none"><rect x="2.5" y="9.375" width="15" height="1.25" fill="white"/></g></symbol><symbol id="ic_image" viewBox="0 0 20 20"><g fill="none"><path d="M11.875 8.75C12.2458 8.75 12.6084 8.64003 12.9167 8.43401C13.225 8.22798 13.4654 7.93514 13.6073 7.59253C13.7492 7.24992 13.7863 6.87292 13.714 6.50921C13.6416 6.14549 13.463 5.8114 13.2008 5.54917C12.9386 5.28695 12.6045 5.10837 12.2408 5.03603C11.8771 4.96368 11.5001 5.00081 11.1575 5.14273C10.8149 5.28464 10.522 5.52496 10.316 5.83331C10.11 6.14165 10 6.50416 10 6.875C10 7.37228 10.1975 7.84919 10.5492 8.20083C10.9008 8.55246 11.3777 8.75 11.875 8.75ZM11.875 6.25C11.9986 6.25 12.1195 6.28666 12.2222 6.35533C12.325 6.42401 12.4051 6.52162 12.4524 6.63582C12.4997 6.75003 12.5121 6.87569 12.488 6.99693C12.4639 7.11817 12.4044 7.22953 12.3169 7.31694C12.2295 7.40435 12.1182 7.46388 11.9969 7.48799C11.8757 7.51211 11.75 7.49973 11.6358 7.45243C11.5216 7.40512 11.424 7.32501 11.3553 7.22223C11.2867 7.11945 11.25 6.99861 11.25 6.875C11.25 6.70924 11.3158 6.55027 11.4331 6.43306C11.5503 6.31585 11.7092 6.25 11.875 6.25Z" fill="white"/><path d="M16.25 2.5H3.75C3.41848 2.5 3.10054 2.6317 2.86612 2.86612C2.6317 3.10054 2.5 3.41848 2.5 3.75V16.25C2.5 16.5815 2.6317 16.8995 2.86612 17.1339C3.10054 17.3683 3.41848 17.5 3.75 17.5H16.25C16.5815 17.5 16.8995 17.3683 17.1339 17.1339C17.3683 16.8995 17.5 16.5815 17.5 16.25V3.75C17.5 3.41848 17.3683 3.10054 17.1339 2.86612C16.8995 2.6317 16.5815 2.5 16.25 2.5ZM16.25 16.25H3.75V12.5L6.875 9.375L10.3688 12.8687C10.603 13.1016 10.9198 13.2322 11.25 13.2322C11.5802 13.2322 11.897 13.1016 12.1313 12.8687L13.125 11.875L16.25 15V16.25ZM16.25 13.2312L14.0063 10.9875C13.772 10.7547 13.4552 10.624 13.125 10.624C12.7948 10.624 12.478 10.7547 12.2437 10.9875L11.25 11.9812L7.75625 8.4875C7.52205 8.25469 7.20523 8.12401 6.875 8.12401C6.54477 8.12401 6.22795 8.25469 5.99375 8.4875L3.75 10.7312V3.75H16.25V13.2312Z" fill="white"/></g></symbol><symbol id="ic_inline-code" viewBox="0 0 20 20"><g fill="none"><path d="M19.375 10L15 14.375L14.1187 13.4938L17.6063 10L14.1187 6.50625L15 5.625L19.375 10ZM0.625 10L5 5.625L5.88125 6.50625L2.39375 10L5.88125 13.4938L5 14.375L0.625 10Z" fill="white"/></g></symbol><symbol id="ic_link" viewBox="0 0 20 20"><g fill="none"><path d="M18.2813 4.22503C17.9329 3.87543 17.5189 3.59804 17.0631 3.40877C16.6073 3.2195 16.1186 3.12207 15.625 3.12207C15.1315 3.12207 14.6428 3.2195 14.187 3.40877C13.7312 3.59804 13.3172 3.87543 12.9688 4.22503L13.8563 5.11253C14.089 4.87984 14.3652 4.69526 14.6692 4.56934C14.9733 4.44341 15.2991 4.37859 15.6282 4.37859C15.9572 4.37859 16.2831 4.44341 16.5871 4.56934C16.8911 4.69526 17.1674 4.87984 17.4 5.11253C17.6327 5.34521 17.8173 5.62145 17.9432 5.92547C18.0692 6.22949 18.134 6.55533 18.134 6.8844C18.134 7.21347 18.0692 7.53931 17.9432 7.84333C17.8173 8.14735 17.6327 8.42359 17.4 8.65628L12.4 13.6563C11.9309 14.1262 11.2944 14.3905 10.6304 14.3911C9.96638 14.3917 9.32935 14.1285 8.85942 13.6594C8.38949 13.1903 8.12515 12.5537 8.12457 11.8897C8.12398 11.2257 8.38719 10.5887 8.85629 10.1188L9.73754 9.23128L8.85629 8.34378L7.96879 9.23128C7.61919 9.57966 7.3418 9.99364 7.15253 10.4495C6.96326 10.9053 6.86583 11.394 6.86583 11.8875C6.86583 12.3811 6.96326 12.8698 7.15253 13.3256C7.3418 13.7814 7.61919 14.1954 7.96879 14.5438C8.67597 15.2419 9.63134 15.6308 10.625 15.625C11.1205 15.6271 11.6114 15.5309 12.0695 15.3421C12.5276 15.1533 12.9437 14.8756 13.2938 14.525L18.2938 9.52503C18.9944 8.82025 19.3866 7.86619 19.3842 6.87244C19.3819 5.87869 18.9852 4.9265 18.2813 4.22503Z" fill="white"/><path d="M2.61879 15.5125C2.38541 15.2802 2.20022 15.0041 2.07386 14.7C1.94749 14.396 1.88244 14.0699 1.88244 13.7407C1.88244 13.4114 1.94749 13.0853 2.07386 12.7813C2.20022 12.4772 2.38541 12.2011 2.61879 11.9688L7.61879 6.96878C7.85109 6.7354 8.1272 6.55021 8.43127 6.42384C8.73534 6.29748 9.06138 6.23243 9.39067 6.23243C9.71995 6.23243 10.046 6.29748 10.3501 6.42384C10.6541 6.55021 10.9302 6.7354 11.1625 6.96878C11.3944 7.2029 11.577 7.48119 11.6994 7.78716C11.8218 8.09313 11.8815 8.42055 11.875 8.75003C11.8769 9.08053 11.8133 9.40813 11.6878 9.71388C11.5623 10.0196 11.3774 10.2974 11.1438 10.5313L9.81879 11.875L10.7063 12.7625L12.0313 11.4375C12.7366 10.7322 13.1328 9.77561 13.1328 8.77815C13.1328 7.78069 12.7366 6.82409 12.0313 6.11878C11.326 5.41347 10.3694 5.01723 9.37192 5.01723C8.37446 5.01723 7.41785 5.41347 6.71254 6.11878L1.71254 11.1188C1.362 11.4673 1.08382 11.8816 0.893994 12.338C0.704168 12.7944 0.606445 13.2839 0.606445 13.7782C0.606445 14.2725 0.704168 14.7619 0.893994 15.2183C1.08382 15.6747 1.362 16.089 1.71254 16.4375C2.42431 17.1303 3.38185 17.5124 4.37504 17.5C5.37698 17.501 6.33862 17.1055 7.05004 16.4L6.16254 15.5125C5.93025 15.7459 5.65413 15.9311 5.35006 16.0575C5.04599 16.1838 4.71995 16.2489 4.39067 16.2489C4.06138 16.2489 3.73534 16.1838 3.43127 16.0575C3.1272 15.9311 2.85109 15.7459 2.61879 15.5125Z" fill="white"/></g></symbol><symbol id="ic_list-bulleted" viewBox="0 0 20 20"><g fill="none"><path d="M4.375 7.5C5.41053 7.5 6.25 6.66053 6.25 5.625C6.25 4.58947 5.41053 3.75 4.375 3.75C3.33947 3.75 2.5 4.58947 2.5 5.625C2.5 6.66053 3.33947 7.5 4.375 7.5Z" fill="white"/><path d="M4.375 16.25C5.41053 16.25 6.25 15.4105 6.25 14.375C6.25 13.3395 5.41053 12.5 4.375 12.5C3.33947 12.5 2.5 13.3395 2.5 14.375C2.5 15.4105 3.33947 16.25 4.375 16.25Z" fill="white"/><path d="M10 13.75H18.75V15H10V13.75ZM10 5H18.75V6.25H10V5Z" fill="white"/></g></symbol><symbol id="ic_list-numbered" viewBox="0 0 20 20"><g fill="none"><path d="M10 13.75H18.75V15H10V13.75ZM10 5H18.75V6.25H10V5ZM5 7.5V2.5H3.75V3.125H2.5V4.375H3.75V7.5H2.5V8.75H6.25V7.5H5ZM6.25 17.5H2.5V15C2.5 14.6685 2.6317 14.3505 2.86612 14.1161C3.10054 13.8817 3.41848 13.75 3.75 13.75H5V12.5H2.5V11.25H5C5.33152 11.25 5.64946 11.3817 5.88388 11.6161C6.1183 11.8505 6.25 12.1685 6.25 12.5V13.75C6.25 14.0815 6.1183 14.3995 5.88388 14.6339C5.64946 14.8683 5.33152 15 5 15H3.75V16.25H6.25V17.5Z" fill="white"/></g></symbol><symbol id="ic_quotes" viewBox="0 0 20 20"><g fill="none"><path d="M7.5 9.375H3.81875C3.93491 8.60146 4.21112 7.86066 4.62974 7.1999C5.04837 6.53914 5.6002 5.97295 6.25 5.5375L7.36875 4.7875L6.68125 3.75L5.5625 4.5C4.6208 5.12755 3.84857 5.97785 3.31433 6.97545C2.7801 7.97305 2.50038 9.08711 2.5 10.2188V14.375C2.5 14.7065 2.6317 15.0245 2.86612 15.2589C3.10054 15.4933 3.41848 15.625 3.75 15.625H7.5C7.83152 15.625 8.14946 15.4933 8.38388 15.2589C8.6183 15.0245 8.75 14.7065 8.75 14.375V10.625C8.75 10.2935 8.6183 9.97554 8.38388 9.74112C8.14946 9.5067 7.83152 9.375 7.5 9.375ZM16.25 9.375H12.5688C12.6849 8.60146 12.9611 7.86066 13.3797 7.1999C13.7984 6.53914 14.3502 5.97295 15 5.5375L16.1188 4.7875L15.4375 3.75L14.3125 4.5C13.3708 5.12755 12.5986 5.97785 12.0643 6.97545C11.5301 7.97305 11.2504 9.08711 11.25 10.2188V14.375C11.25 14.7065 11.3817 15.0245 11.6161 15.2589C11.8505 15.4933 12.1685 15.625 12.5 15.625H16.25C16.5815 15.625 16.8995 15.4933 17.1339 15.2589C17.3683 15.0245 17.5 14.7065 17.5 14.375V10.625C17.5 10.2935 17.3683 9.97554 17.1339 9.74112C16.8995 9.5067 16.5815 9.375 16.25 9.375Z" fill="white"/></g></symbol><symbol id="ic_redo" viewBox="0 0 20 20"><g fill="none"><path d="M7.5 6.25H15.1156L12.8737 4.00875L13.75 3.125L17.5 6.875L13.75 10.625L12.8737 9.74063L15.1137 7.5H7.5C6.50544 7.5 5.55161 7.89509 4.84835 8.59835C4.14509 9.30161 3.75 10.2554 3.75 11.25C3.75 12.2446 4.14509 13.1984 4.84835 13.9017C5.55161 14.6049 6.50544 15 7.5 15H12.5V16.25H7.5C6.17392 16.25 4.90215 15.7232 3.96447 14.7855C3.02678 13.8479 2.5 12.5761 2.5 11.25C2.5 9.92392 3.02678 8.65215 3.96447 7.71447C4.90215 6.77678 6.17392 6.25 7.5 6.25V6.25Z" fill="white"/></g></symbol><symbol id="ic_text-align-left" viewBox="0 0 20 20"><g fill="none"><path d="M7.5 3.75H16.25V5H7.5V3.75ZM7.5 7.5H13.75V8.75H7.5V7.5ZM7.5 11.25H16.25V12.5H7.5V11.25ZM7.5 15H13.75V16.25H7.5V15ZM3.75 2.5H5V17.5H3.75V2.5Z" fill="white"/></g></symbol><symbol id="ic_text-bold" viewBox="0 0 20 20"><g fill="none"><path d="M11.4062 15.625H5.625V4.375H10.9375C11.5639 4.37504 12.1771 4.55435 12.7048 4.89174C13.2325 5.22914 13.6526 5.71052 13.9155 6.27903C14.1784 6.84754 14.2731 7.47942 14.1884 8.10001C14.1037 8.72061 13.8431 9.30399 13.4375 9.78125C13.9673 10.205 14.3528 10.7825 14.5408 11.4344C14.7289 12.0862 14.7102 12.7803 14.4875 13.4211C14.2647 14.0619 13.8488 14.6179 13.297 15.0126C12.7452 15.4073 12.0847 15.6213 11.4062 15.625ZM7.5 13.75H11.3937C11.5784 13.75 11.7613 13.7136 11.9319 13.643C12.1025 13.5723 12.2575 13.4687 12.3881 13.3381C12.5187 13.2075 12.6223 13.0525 12.693 12.8819C12.7636 12.7113 12.8 12.5284 12.8 12.3438C12.8 12.1591 12.7636 11.9762 12.693 11.8056C12.6223 11.635 12.5187 11.48 12.3881 11.3494C12.2575 11.2188 12.1025 11.1152 11.9319 11.0445C11.7613 10.9739 11.5784 10.9375 11.3937 10.9375H7.5V13.75ZM7.5 9.0625H10.9375C11.1222 9.0625 11.305 9.02613 11.4756 8.95546C11.6463 8.88478 11.8013 8.7812 11.9319 8.65062C12.0625 8.52004 12.166 8.36501 12.2367 8.1944C12.3074 8.02378 12.3438 7.84092 12.3438 7.65625C12.3438 7.47158 12.3074 7.28872 12.2367 7.1181C12.166 6.94749 12.0625 6.79246 11.9319 6.66188C11.8013 6.5313 11.6463 6.42772 11.4756 6.35704C11.305 6.28637 11.1222 6.25 10.9375 6.25H7.5V9.0625Z" fill="white"/></g></symbol><symbol id="ic_text-clear-format" viewBox="0 0 20 20"><g fill="none"><path d="M18.3988 10.3575L13.4081 5.36625C13.1736 5.13187 12.8556 5.00021 12.5241 5.00021C12.1925 5.00021 11.8745 5.13187 11.64 5.36625L8.29125 8.715L5.625 1.25H4.375L1.25 10H2.5L3.12438 8.125H6.87437L7.37625 9.63L2.86625 14.14C2.75012 14.2561 2.658 14.3939 2.59515 14.5456C2.5323 14.6973 2.49995 14.8599 2.49995 15.0241C2.49995 15.1883 2.5323 15.3508 2.59515 15.5025C2.658 15.6542 2.75012 15.792 2.86625 15.9081L5.7075 18.75H11.7013L18.3988 12.0519C18.5101 11.9406 18.5984 11.8085 18.6587 11.6631C18.719 11.5177 18.75 11.3618 18.75 11.2044C18.75 11.047 18.719 10.8911 18.6587 10.7457C18.5984 10.6003 18.5101 10.4681 18.3988 10.3569V10.3575ZM3.54063 6.875L4.9975 2.5L6.4575 6.875H3.54063ZM11.1844 17.5H6.225L3.75 15.0238L7.695 11.0794L12.65 16.0337L11.1844 17.5ZM13.5344 15.15L8.57938 10.1956L12.5244 6.25L17.4788 11.2044L13.5344 15.15Z" fill="white"/></g></symbol><symbol id="ic_text-italic" viewBox="0 0 20 20"><g fill="none"><path d="M15.625 5.625V4.375H7.5V5.625H10.7125L7.98125 14.375H4.375V15.625H12.5V14.375H9.2875L12.0187 5.625H15.625Z" fill="white"/></g></symbol><symbol id="ic_text-strikethrough" viewBox="0 0 20 20"><g fill="none"><path d="M17.5 9.37538H11.2225C10.945 9.30076 10.6662 9.23096 10.3863 9.16601C8.63125 8.75101 7.63875 8.44726 7.63875 7.02663C7.6245 6.78139 7.66081 6.53584 7.74542 6.30522C7.83004 6.0746 7.96115 5.86384 8.13062 5.68601C8.6615 5.24944 9.32644 5.00889 10.0137 5.00476C11.7825 4.96101 12.5981 5.56101 13.265 6.47351L14.2744 5.73601C13.8019 5.05748 13.1578 4.51654 12.4078 4.16845C11.6578 3.82036 10.8288 3.6776 10.0056 3.75476C8.99439 3.76121 8.01887 4.12947 7.25563 4.79288C6.96634 5.08632 6.74024 5.4359 6.59125 5.82008C6.44227 6.20426 6.37356 6.61488 6.38937 7.02663C6.36197 7.47718 6.4466 7.92751 6.63572 8.33737C6.82483 8.74723 7.11254 9.10385 7.47312 9.37538H2.5V10.6254H11.0325C12.2619 10.9816 12.9969 11.4454 13.0156 12.7241C13.0359 12.9973 12.9985 13.2717 12.9056 13.5294C12.8128 13.7871 12.6667 14.0223 12.4769 14.2198C11.8155 14.7411 10.9938 15.017 10.1519 15.0004C9.52345 14.9822 8.90738 14.8213 8.35029 14.5299C7.7932 14.2385 7.30966 13.8243 6.93625 13.3185L5.97812 14.121C6.46358 14.768 7.08994 15.2959 7.80972 15.6648C8.52951 16.0338 9.32384 16.234 10.1325 16.2504H10.195C11.3492 16.2636 12.4695 15.86 13.35 15.1135C13.6625 14.7984 13.9054 14.4213 14.0632 14.0065C14.2209 13.5917 14.2898 13.1485 14.2656 12.7054C14.289 11.9474 14.0332 11.2072 13.5469 10.6254H17.5V9.37538Z" fill="white"/></g></symbol><symbol id="ic_text-underline" viewBox="0 0 20 20"><g fill="none"><path d="M2.5 16.25H17.5V17.5H2.5V16.25ZM10 14.375C8.83968 14.375 7.72688 13.9141 6.90641 13.0936C6.08594 12.2731 5.625 11.1603 5.625 10V3.125H6.875V10C6.875 10.8288 7.20424 11.6237 7.79029 12.2097C8.37634 12.7958 9.1712 13.125 10 13.125C10.8288 13.125 11.6237 12.7958 12.2097 12.2097C12.7958 11.6237 13.125 10.8288 13.125 10V3.125H14.375V10C14.375 11.1603 13.9141 12.2731 13.0936 13.0936C12.2731 13.9141 11.1603 14.375 10 14.375Z" fill="white"/></g></symbol><symbol id="ic_undo" viewBox="0 0 20 20"><g fill="none"><path d="M12.5 6.25H4.88438L7.12625 4.00875L6.25 3.125L2.5 6.875L6.25 10.625L7.12625 9.74063L4.88625 7.5H12.5C13.4946 7.5 14.4484 7.89509 15.1517 8.59835C15.8549 9.30161 16.25 10.2554 16.25 11.25C16.25 12.2446 15.8549 13.1984 15.1517 13.9017C14.4484 14.6049 13.4946 15 12.5 15H7.5V16.25H12.5C13.8261 16.25 15.0979 15.7232 16.0355 14.7855C16.9732 13.8479 17.5 12.5761 17.5 11.25C17.5 9.92392 16.9732 8.65215 16.0355 7.71447C15.0979 6.77678 13.8261 6.25 12.5 6.25Z" fill="white"/></g></symbol><symbol id="instagram" viewBox="0 0 24 24"><g fill="none"><path d="M18.437 20.9375H5.56299C4.89995 20.9375 4.26406 20.6741 3.79522 20.2052C3.32638 19.7364 3.06299 19.1005 3.06299 18.4375V5.56348C3.06299 4.90044 3.32638 4.26455 3.79522 3.79571C4.26406 3.32687 4.89995 3.06348 5.56299 3.06348H18.437C19.1 3.06348 19.7359 3.32687 20.2048 3.79571C20.6736 4.26455 20.937 4.90044 20.937 5.56348V18.4375C20.937 19.1005 20.6736 19.7364 20.2048 20.2052C19.7359 20.6741 19.1 20.9375 18.437 20.9375ZM5.56299 4.06348C5.16516 4.06348 4.78363 4.22151 4.50233 4.50282C4.22102 4.78412 4.06299 5.16565 4.06299 5.56348V18.4375C4.06299 18.8353 4.22102 19.2168 4.50233 19.4981C4.78363 19.7794 5.16516 19.9375 5.56299 19.9375H18.437C18.8348 19.9375 19.2163 19.7794 19.4976 19.4981C19.779 19.2168 19.937 18.8353 19.937 18.4375V5.56348C19.937 5.16565 19.779 4.78412 19.4976 4.50282C19.2163 4.22151 18.8348 4.06348 18.437 4.06348H5.56299Z" fill="white" stroke="white"/><path d="M11.9999 16.5943C11.0913 16.5933 10.2033 16.323 9.44833 15.8174C8.69332 15.3119 8.10515 14.5938 7.75816 13.754C7.41117 12.9143 7.32095 11.9905 7.49889 11.0994C7.67683 10.2084 8.11496 9.39011 8.75788 8.74802C9.4008 8.10594 10.2197 7.66889 11.1109 7.4921C12.0022 7.31532 12.9259 7.40675 13.7652 7.75484C14.6045 8.10292 15.3218 8.69203 15.8263 9.4477C16.3309 10.2034 16.6001 11.0917 16.5999 12.0003C16.5983 13.2193 16.113 14.3877 15.2505 15.2491C14.388 16.1105 13.2189 16.5943 11.9999 16.5943ZM11.9999 8.4003C11.2893 8.40128 10.595 8.61284 10.0045 9.00825C9.41409 9.40365 8.95409 9.96516 8.68261 10.6219C8.41114 11.2786 8.34037 12.001 8.47924 12.6979C8.61811 13.3948 8.9604 14.0349 9.46287 14.5373C9.96534 15.0398 10.6054 15.3821 11.3023 15.521C11.9992 15.6598 12.7217 15.5891 13.3784 15.3176C14.035 15.0461 14.5966 14.5861 14.992 13.9957C15.3874 13.4053 15.5989 12.7109 15.5999 12.0003C15.5999 11.0455 15.2206 10.1298 14.5455 9.45471C13.8704 8.77958 12.9547 8.4003 11.9999 8.4003Z" fill="white" stroke="white"/><path d="M17.2 7.90488C17.7937 7.90488 18.275 7.42359 18.275 6.82988C18.275 6.23618 17.7937 5.75488 17.2 5.75488C16.6063 5.75488 16.125 6.23618 16.125 6.82988C16.125 7.42359 16.6063 7.90488 17.2 7.90488Z" fill="white" stroke="white"/></g></symbol><symbol id="link" viewBox="0 0 24 24"><g fill="none"><path fill-rule="evenodd" clip-rule="evenodd" d="M18.6961 5.6154C16.9576 3.87689 14.0424 3.87689 12.3039 5.6154L10.7071 7.21218C10.3166 7.6027 9.68342 7.6027 9.29289 7.21218C8.90237 6.82165 8.90237 6.18849 9.29289 5.79796L10.8897 4.20119C13.4092 1.68163 17.5908 1.68163 20.1103 4.20119C22.6299 6.72075 22.6299 10.9023 20.1103 13.4218L18.5136 15.0186C18.123 15.4091 17.4899 15.4091 17.0993 15.0186C16.7088 14.6281 16.7088 13.9949 17.0993 13.6044L18.6961 12.0076C20.4346 10.2691 20.4346 7.35391 18.6961 5.6154ZM15.7071 8.60442C16.0976 8.99494 16.0976 9.6281 15.7071 10.0186L9.70711 16.0186C9.31658 16.4091 8.68342 16.4091 8.29289 16.0186C7.90237 15.6281 7.90237 14.9949 8.29289 14.6044L14.2929 8.60442C14.6834 8.21389 15.3166 8.21389 15.7071 8.60442ZM6.90066 9.60442C7.29118 9.99494 7.29118 10.6281 6.90066 11.0186L5.30388 12.6154C3.56537 14.3539 3.56537 17.2691 5.30388 19.0076C7.04239 20.7461 9.95761 20.7461 11.6961 19.0076L13.2929 17.4109C13.6834 17.0203 14.3166 17.0203 14.7071 17.4109C15.0976 17.8014 15.0976 18.4345 14.7071 18.8251L13.1103 20.4218C10.5908 22.9414 6.40922 22.9414 3.88967 20.4218C1.37011 17.9023 1.37011 13.7207 3.88967 11.2012L5.48644 9.60442C5.87697 9.21389 6.51013 9.21389 6.90066 9.60442Z" fill="white"/></g></symbol><symbol id="linkedin" viewBox="0 0 24 24"><g fill="none"><path d="M4.75 1.875C3.57639 1.875 2.625 2.82639 2.625 4C2.625 5.1736 3.57639 6.125 4.75 6.125C5.9236 6.125 6.875 5.1736 6.875 4C6.875 2.82639 5.9236 1.875 4.75 1.875Z" fill="white"/><path d="M2.75 7.875C2.68096 7.875 2.625 7.93096 2.625 8V21C2.625 21.069 2.68096 21.125 2.75 21.125H6.75C6.81904 21.125 6.875 21.069 6.875 21V8C6.875 7.93096 6.81904 7.875 6.75 7.875H2.75Z" fill="white"/><path d="M9.25 7.875C9.18096 7.875 9.125 7.93096 9.125 8V21C9.125 21.069 9.18096 21.125 9.25 21.125H13.25C13.319 21.125 13.375 21.069 13.375 21V14C13.375 13.5027 13.5725 13.0258 13.9242 12.6742C14.2758 12.3225 14.7527 12.125 15.25 12.125C15.7473 12.125 16.2242 12.3225 16.5758 12.6742C16.9275 13.0258 17.125 13.5027 17.125 14V21C17.125 21.069 17.181 21.125 17.25 21.125H21.25C21.319 21.125 21.375 21.069 21.375 21V12.3802C21.375 9.9535 19.2644 8.05499 16.8498 8.2745C16.1052 8.34219 15.369 8.52731 14.6815 8.82194L13.375 9.38186V8C13.375 7.93096 13.319 7.875 13.25 7.875H9.25Z" fill="white"/></g></symbol><symbol id="lnkdn-icon" viewBox="0 0 24 24"><g fill="currentColor"><path d="M4.75 1.875C3.57639 1.875 2.625 2.82639 2.625 4C2.625 5.1736 3.57639 6.125 4.75 6.125C5.9236 6.125 6.875 5.1736 6.875 4C6.875 2.82639 5.9236 1.875 4.75 1.875Z"/><path d="M2.75 7.875C2.68096 7.875 2.625 7.93096 2.625 8V21C2.625 21.069 2.68096 21.125 2.75 21.125H6.75C6.81904 21.125 6.875 21.069 6.875 21V8C6.875 7.93096 6.81904 7.875 6.75 7.875H2.75Z"/><path d="M9.25 7.875C9.18096 7.875 9.125 7.93096 9.125 8V21C9.125 21.069 9.18096 21.125 9.25 21.125H13.25C13.319 21.125 13.375 21.069 13.375 21V14C13.375 13.5027 13.5725 13.0258 13.9242 12.6742C14.2758 12.3225 14.7527 12.125 15.25 12.125C15.7473 12.125 16.2242 12.3225 16.5758 12.6742C16.9275 13.0258 17.125 13.5027 17.125 14V21C17.125 21.069 17.181 21.125 17.25 21.125H21.25C21.319 21.125 21.375 21.069 21.375 21V12.3802C21.375 9.9535 19.2644 8.05499 16.8498 8.2745C16.1052 8.34219 15.369 8.52731 14.6815 8.82194L13.375 9.38186V8C13.375 7.93096 13.319 7.875 13.25 7.875H9.25Z"/></g></symbol><symbol id="logout" viewBox="0 0 24 24"><g fill="none"><path d="M12 18.25C11.5858 18.25 11.25 18.5858 11.25 19C11.25 19.4142 11.5858 19.75 12 19.75H18C18.9665 19.75 19.75 18.9665 19.75 18V6C19.75 5.0335 18.9665 4.25 18 4.25H12C11.5858 4.25 11.25 4.58579 11.25 5C11.25 5.41421 11.5858 5.75 12 5.75H18C18.1381 5.75 18.25 5.86193 18.25 6V18C18.25 18.1381 18.1381 18.25 18 18.25H12Z" fill="white"/><path fill-rule="evenodd" clip-rule="evenodd" d="M14.5031 14.3652C15.1934 14.3652 15.7531 13.8056 15.7531 13.1152V10.8747C15.7531 10.1843 15.1934 9.6247 14.5031 9.6247H9.89048C9.88396 9.55128 9.87713 9.47787 9.87 9.40448L9.81597 8.8486C9.73354 8.00049 8.83294 7.49258 8.06451 7.86084C6.43029 8.64403 4.95085 9.71578 3.69736 11.0245L3.59816 11.1281C3.13395 11.6128 3.13395 12.3771 3.59815 12.8618L3.69736 12.9654C4.95085 14.2741 6.43029 15.3459 8.06451 16.1291C8.83293 16.4973 9.73354 15.9894 9.81597 15.1413L9.87 14.5854C9.87713 14.512 9.88396 14.4386 9.89048 14.3652H14.5031ZM9.19511 12.8652C8.92874 12.8652 8.69326 13.0045 8.56008 13.216C8.49523 13.319 8.45464 13.4391 8.44656 13.5685C8.42842 13.8594 8.40524 14.15 8.37703 14.4403L8.36135 14.6017C7.3253 14.0677 6.36316 13.4028 5.49838 12.6239C5.27402 12.4218 5.05622 12.2121 4.84538 11.995C5.86892 10.9409 7.05651 10.0607 8.36135 9.38824L8.37703 9.54959C8.40524 9.83987 8.42842 10.1305 8.44656 10.4214C8.47122 10.8167 8.79902 11.1247 9.19511 11.1247H14.2531V12.8652H9.19511Z" fill="white"/></g></symbol><symbol id="mob-menu-close-btn" viewBox="0 0 24 24"><g fill="none"><path d="M8.46967 8.46966C8.76256 8.17677 9.23744 8.17677 9.53033 8.46966L12 10.9393L14.4697 8.46967C14.7626 8.17678 15.2374 8.17678 15.5303 8.46967C15.8232 8.76256 15.8232 9.23744 15.5303 9.53033L13.0607 12L15.5303 14.4697C15.8232 14.7626 15.8232 15.2374 15.5303 15.5303C15.2374 15.8232 14.7626 15.8232 14.4697 15.5303L12 13.0607L9.53034 15.5303C9.23744 15.8232 8.76257 15.8232 8.46968 15.5303C8.17678 15.2374 8.17678 14.7626 8.46968 14.4697L10.9393 12L8.46967 9.53032C8.17678 9.23743 8.17678 8.76255 8.46967 8.46966Z" fill="#D1D2D3"/><path fill-rule="evenodd" clip-rule="evenodd" d="M7.31673 3.76876C10.4043 3.42368 13.5957 3.42368 16.6832 3.76876C18.5096 3.97288 19.9845 5.41153 20.1994 7.24849C20.5686 10.4054 20.5686 13.5946 20.1994 16.7515C19.9845 18.5885 18.5096 20.0271 16.6832 20.2313C13.5957 20.5763 10.4043 20.5763 7.31673 20.2313C5.49035 20.0271 4.01545 18.5885 3.8006 16.7515C3.43137 13.5946 3.43137 10.4054 3.8006 7.24849C4.01545 5.41153 5.49035 3.97288 7.31673 3.76876ZM16.5166 5.25948C13.5398 4.92677 10.4602 4.92677 7.48334 5.25948C6.33891 5.38738 5.42286 6.29063 5.29045 7.42274C4.93476 10.4639 4.93476 13.5361 5.29045 16.5773C5.42286 17.7094 6.33891 18.6126 7.48334 18.7405C10.4602 19.0732 13.5398 19.0732 16.5166 18.7405C17.6611 18.6126 18.5771 17.7094 18.7095 16.5773C19.0652 13.5361 19.0652 10.4639 18.7095 7.42274C18.5771 6.29063 17.6611 5.38738 16.5166 5.25948Z" fill="#D1D2D3"/></g></symbol><symbol id="more-info-arrow" viewBox="0 0 18 14"><g fill="none"><path fill-rule="evenodd" clip-rule="evenodd" d="M0.460144 11.8188C0.238564 11.589 0.186704 11.2442 0.330904 10.9594L1.0324 9.57403C2.69267 6.29523 6.05562 4.22856 9.73081 4.22856H10.0757C10.1009 3.68218 10.1333 3.13606 10.1731 2.59033L10.241 1.65969C10.2961 0.902865 11.14 0.479795 11.7794 0.888385C13.8771 2.22875 15.7007 3.95583 17.153 5.97762L17.6091 6.61252C17.797 6.87402 17.797 7.22622 17.6091 7.48763L17.153 8.12263C15.7007 10.1443 13.8771 11.8714 11.7794 13.2118C11.14 13.6204 10.2961 13.1973 10.241 12.4405L10.1731 11.5098C10.1256 10.8581 10.0885 10.2058 10.0619 9.55323C7.91207 9.49113 5.76486 9.92513 3.79149 10.8358L1.3143 11.9792C1.02447 12.1129 0.681724 12.0486 0.460144 11.8188ZM2.67838 9.69753L3.16291 9.47393C5.57405 8.36113 8.21961 7.89132 10.8447 8.09293C11.227 8.12232 11.5256 8.43533 11.5369 8.81853C11.5624 9.67992 11.6065 10.5408 11.6692 11.4008L11.6746 11.4752C13.318 10.3136 14.7583 8.88523 15.9348 7.24743L16.0765 7.05013L15.9348 6.85273C14.7583 5.21492 13.318 3.78659 11.6746 2.62493L11.6692 2.69938C11.6132 3.46699 11.5721 4.23541 11.5458 5.00423C11.532 5.40823 11.2004 5.72853 10.7962 5.72853H9.73081C6.83352 5.72853 4.16555 7.24642 2.67838 9.69753Z" fill="#14161B"/></g></symbol><symbol id="raiting-star" viewBox="0 0 14 15"><path d="M13.6317 5.49531C13.444 4.87089 12.8806 4.37134 12.2546 4.3089L9.62541 3.93424L8.43604 1.43653C8.12309 0.74966 7.55968 0.375 6.87108 0.375C6.18248 0.375 5.61914 0.74966 5.30613 1.37409L4.11675 3.8718L1.4876 4.3089C0.86161 4.43379 0.298224 4.87089 0.110426 5.49531C-0.139968 6.18218 0.0478297 6.86906 0.548618 7.36859L2.48918 9.30432L2.05099 12.0518C1.92579 12.7387 2.23878 13.4255 2.80217 13.8002C3.11517 13.9876 3.42816 14.1124 3.80375 14.1124C4.11675 14.1124 4.36714 14.05 4.61754 13.9251L6.99627 12.6138L9.37502 13.9251C9.93843 14.2373 10.627 14.1748 11.1904 13.8002C11.7538 13.4255 12.0668 12.7387 11.9416 12.0518L11.5034 9.30432L13.444 7.36859C13.6944 6.86906 13.8821 6.11975 13.6317 5.49531Z"/></symbol><symbol id="reg-apple" viewBox="0 0 16 19"><g fill="none"><path d="M15.3796 14.2658C15.1119 14.8843 14.795 15.4536 14.4278 15.977C13.9273 16.6906 13.5176 17.1845 13.2018 17.4588C12.7122 17.909 12.1877 18.1396 11.626 18.1527C11.2228 18.1527 10.7365 18.0379 10.1705 17.8052C9.60259 17.5735 9.08069 17.4588 8.60349 17.4588C8.10301 17.4588 7.56625 17.5735 6.99213 17.8052C6.41712 18.0379 5.95391 18.1592 5.59975 18.1713C5.06113 18.1942 4.52427 17.9571 3.98838 17.4588C3.64635 17.1605 3.21854 16.6491 2.70605 15.9246C2.15618 15.1509 1.70411 14.2538 1.34995 13.231C0.970655 12.1262 0.780518 11.0564 0.780518 10.0207C0.780518 8.83429 1.03688 7.81104 1.55036 6.95357C1.95391 6.26481 2.49077 5.72149 3.1627 5.32264C3.83463 4.92379 4.56066 4.72054 5.34252 4.70754C5.77033 4.70754 6.33134 4.83987 7.02851 5.09994C7.72372 5.36089 8.17011 5.49322 8.36582 5.49322C8.51214 5.49322 9.00802 5.33849 9.84867 5.03001C10.6436 4.74392 11.3146 4.62547 11.8642 4.67213C13.3537 4.79233 14.4726 5.37947 15.2168 6.43724C13.8847 7.24435 13.2258 8.37479 13.2389 9.82497C13.2509 10.9545 13.6607 11.8945 14.4661 12.6409C14.831 12.9873 15.2386 13.255 15.6921 13.4451C15.5938 13.7303 15.49 14.0035 15.3796 14.2658ZM11.9637 0.823918C11.9637 1.70927 11.6402 2.53592 10.9955 3.30106C10.2175 4.21066 9.2764 4.73628 8.25589 4.65334C8.24288 4.54712 8.23534 4.43533 8.23534 4.31786C8.23534 3.46793 8.60535 2.55832 9.26241 1.8146C9.59046 1.43804 10.0077 1.12494 10.5136 0.875167C11.0185 0.629125 11.496 0.493058 11.9451 0.469757C11.9582 0.588115 11.9637 0.70648 11.9637 0.823907V0.823918Z" fill="white"/></g></symbol><symbol id="reg-google" viewBox="0 0 19 19"><g fill="none"><path fill-rule="evenodd" clip-rule="evenodd" d="M17.7338 9.52236C17.7338 8.89471 17.6775 8.29119 17.5729 7.71182H9.23639V11.1357H14.0001C13.7949 12.2422 13.1713 13.1796 12.2338 13.8073V16.0282H15.0945C16.7682 14.4873 17.7338 12.218 17.7338 9.52236Z" fill="#4285F4"/><path fill-rule="evenodd" clip-rule="evenodd" d="M9.23633 18.1726C11.6262 18.1726 13.6299 17.38 15.0944 16.0281L12.2338 13.8072C11.4412 14.3383 10.4273 14.6521 9.23633 14.6521C6.93091 14.6521 4.97956 13.095 4.2835 11.0029H1.32629V13.2962C2.78277 16.1891 5.77619 18.1726 9.23633 18.1726Z" fill="#34A853"/><path fill-rule="evenodd" clip-rule="evenodd" d="M4.28358 11.0031C4.10655 10.472 4.00596 9.90472 4.00596 9.32133C4.00596 8.73793 4.10655 8.17063 4.28358 7.63954V5.34619H1.32637C0.726878 6.54115 0.384888 7.89301 0.384888 9.32133C0.384888 10.7496 0.726878 12.1015 1.32637 13.2965L4.28358 11.0031Z" fill="#FBBC05"/><path fill-rule="evenodd" clip-rule="evenodd" d="M9.23633 3.99018C10.5359 3.99018 11.7027 4.43678 12.62 5.31389L15.1588 2.77511C13.6259 1.3468 11.6222 0.469696 9.23633 0.469696C5.77619 0.469696 2.78277 2.45324 1.32629 5.34608L4.2835 7.63942C4.97956 5.54725 6.93091 3.99018 9.23633 3.99018Z" fill="#EA4335"/></g></symbol><symbol id="reply" viewBox="0 0 14 13"><g fill="currentColor"><path d="M0.227189 4.31583L5.0398 0.159982C5.46106 -0.203822 6.125 0.0915222 6.125 0.656646V2.8456C10.5172 2.89589 14 3.77618 14 7.93861C14 9.61864 12.9177 11.283 11.7214 12.1532C11.348 12.4247 10.816 12.0839 10.9536 11.6437C12.1935 7.67857 10.3655 6.62588 6.125 6.56484V8.96878C6.125 9.5348 5.46056 9.82883 5.0398 9.46545L0.227189 5.30918C-0.0755195 5.04772 -0.0759395 4.57766 0.227189 4.31583Z"/></g></symbol><symbol id="reset-btn" viewBox="0 0 21 20"><g fill="none"><path d="M18.9999 10C18.9999 5.58172 15.4182 2 10.9999 2V0C16.5227 0 20.9999 4.47715 20.9999 10C20.9999 15.5228 16.5227 20 10.9999 20C5.47706 20 0.999902 15.5228 0.999902 10C0.999902 7.35486 2.02729 4.9501 3.70287 3.1625H0.524902V1.1625H7.5249V8.1625H5.5249V4.16678C3.96962 5.62702 2.9999 7.70051 2.9999 10C2.9999 14.4183 6.58163 18 10.9999 18C15.4182 18 18.9999 14.4183 18.9999 10Z" fill="white"/></g></symbol><symbol id="search-btn" viewBox="0 0 20 20"><g fill="none"><path fill-rule="evenodd" clip-rule="evenodd" d="M11.9876 12.8714C9.77903 14.6403 6.54617 14.5011 4.49884 12.4538C2.30214 10.2571 2.30214 6.69554 4.49884 4.49884C6.69554 2.30214 10.2571 2.30214 12.4538 4.49884C14.5011 6.54616 14.6404 9.77901 12.8714 11.9876L17.1679 16.2839C17.4119 16.528 17.4119 16.9238 17.1679 17.1678C16.9238 17.4119 16.528 17.4119 16.2839 17.1678L11.9876 12.8714ZM5.38273 11.5699C3.67418 9.86134 3.67418 7.09127 5.38273 5.38273C7.09128 3.67418 9.86136 3.67418 11.5699 5.38273C13.2772 7.09002 13.2784 9.85726 11.5737 11.5662C11.5724 11.5674 11.5712 11.5686 11.5699 11.5699C11.5686 11.5712 11.5674 11.5724 11.5662 11.5737C9.85728 13.2784 7.09002 13.2772 5.38273 11.5699Z" fill="#474C53"/></g></symbol><symbol id="select-control" viewBox="0 0 16 16"><g fill="none"><path d="M12.5 5.75L8 10.25L3.5 5.75" stroke="#999CA0" stroke-linecap="round" stroke-linejoin="round"/></g></symbol><symbol id="skype-icon" viewBox="0 0 18 18"><g fill="currentColor"><path fill-rule="evenodd" clip-rule="evenodd" d="M6.9767 0.74228C7.6252 0.58395 8.3028 0.5 9 0.5C13.6944 0.5 17.5 4.30558 17.5 9C17.5 9.6972 17.4161 10.3748 17.2577 11.0233C17.7269 11.7337 18 12.585 18 13.5C18 15.9853 15.9853 18 13.5 18C12.585 18 11.7337 17.7269 11.0233 17.2577C10.3748 17.4161 9.6972 17.5 9 17.5C4.30558 17.5 0.5 13.6944 0.5 9C0.5 8.3028 0.58395 7.6252 0.74228 6.9767C0.27312 6.26631 0 5.41505 0 4.5C0 2.01472 2.01472 0 4.5 0C5.41505 0 6.26631 0.27312 6.9767 0.74228ZM10.5042 8.2725C10.8776 8.3839 11.2335 8.5472 11.5614 8.7577C11.8964 8.9779 12.1756 9.2737 12.3772 9.6202C12.5859 10.004 12.6917 10.4353 12.6841 10.8722C12.7016 11.4356 12.5338 11.9893 12.2062 12.4481C11.8616 12.9191 11.3886 13.2808 10.8438 13.4898C10.2577 13.7237 9.6303 13.8365 8.9994 13.8212C8.257 13.8421 7.5206 13.6829 6.85307 13.3572C6.41437 13.1263 6.03772 12.7932 5.75495 12.386C5.47201 11.9945 5.31348 11.5268 5.29999 11.044C5.29999 10.827 5.3862 10.6188 5.53965 10.4654C5.69311 10.3119 5.90124 10.2257 6.11826 10.2257C6.33528 10.2257 6.54341 10.3119 6.69687 10.4654C6.85032 10.6188 6.93653 10.827 6.93653 11.044C6.95334 11.1936 7.0105 11.3359 7.1018 11.4556C7.232 11.6426 7.4047 11.7961 7.6059 11.9032C8.0413 12.1066 8.5191 12.2031 8.9994 12.1847C9.4147 12.1982 9.8285 12.1281 10.2162 11.9785C10.4762 11.885 10.704 11.7189 10.8724 11.4998C10.9971 11.3258 11.0589 11.1145 11.0475 10.9008C11.0561 10.7357 11.0229 10.571 10.951 10.4221C10.8766 10.3001 10.7749 10.197 10.6539 10.121C10.4599 9.9987 10.2498 9.9039 10.0296 9.8395C9.8504 9.7847 9.6548 9.7315 9.4519 9.6791L9.4372 9.6775C9.4281 9.6745 9.4154 9.6714 9.4042 9.6687C9.4002 9.6678 9.3964 9.6669 9.393 9.666C9.2604 9.6325 9.1279 9.5989 8.9863 9.5678C8.6246 9.4901 8.3742 9.4271 8.2171 9.3796C8.2136 9.3787 8.2105 9.3766 8.2074 9.3745C8.2048 9.3727 8.2021 9.3709 8.1991 9.3698C7.8358 9.2817 7.4786 9.1702 7.1296 9.036C6.66788 8.8507 6.26234 8.5484 5.95297 8.1588C5.63251 7.7382 5.4651 7.221 5.47837 6.69243C5.47848 6.16152 5.65203 5.64518 5.97261 5.22199C6.30731 4.79639 6.75424 4.47274 7.263 4.28752C7.8256 4.08534 8.4205 3.98827 9.0182 4.00113C9.4884 3.99593 9.9567 4.06102 10.4076 4.19424C10.7983 4.30815 11.1643 4.49379 11.4869 4.74167C11.7662 4.95362 11.9993 5.22037 12.1718 5.52557C12.2236 5.62025 12.2562 5.72423 12.2676 5.83154C12.279 5.93884 12.2691 6.04735 12.2384 6.15081C12.2077 6.25427 12.1569 6.35064 12.0888 6.43437C12.0208 6.51811 11.9368 6.58755 11.8418 6.6387C11.7468 6.68985 11.6426 6.7217 11.5352 6.73242C11.4278 6.74314 11.3194 6.73251 11.2161 6.70115C11.1129 6.66979 11.0168 6.61832 10.9335 6.54969C10.8503 6.48107 10.7814 6.39665 10.7309 6.30129C10.6611 6.19149 10.5708 6.09619 10.4649 6.02062C10.3012 5.90125 10.1175 5.81202 9.9224 5.75714C9.6283 5.67286 9.3233 5.6326 9.0174 5.63767C8.6221 5.62602 8.2279 5.68589 7.8538 5.81442C7.6314 5.89017 7.4336 6.02444 7.281 6.2031C7.172 6.34259 7.113 6.51459 7.1133 6.69161C7.0999 6.8567 7.1464 7.0211 7.2442 7.1547C7.3779 7.3181 7.5515 7.4441 7.7483 7.5205C8.13 7.6675 8.5229 7.7835 8.9233 7.8675C9.2588 7.9411 9.5305 8.0066 9.7596 8.0704C10.0214 8.135 10.2751 8.203 10.5042 8.2725Z"/></g></symbol><symbol id="skype" viewBox="0 0 24 24"><g fill="none"><path fill-rule="evenodd" clip-rule="evenodd" d="M9.9767 3.74228C10.6252 3.58395 11.3028 3.5 12 3.5C16.6944 3.5 20.5 7.30558 20.5 12C20.5 12.6972 20.4161 13.3748 20.2577 14.0233C20.7269 14.7337 21 15.585 21 16.5C21 18.9853 18.9853 21 16.5 21C15.585 21 14.7337 20.7269 14.0233 20.2577C13.3748 20.4161 12.6972 20.5 12 20.5C7.30558 20.5 3.5 16.6944 3.5 12C3.5 11.3028 3.58395 10.6252 3.74228 9.9767C3.27312 9.26631 3 8.41505 3 7.5C3 5.01472 5.01472 3 7.5 3C8.41505 3 9.26631 3.27312 9.9767 3.74228ZM13.5042 11.2725C13.8776 11.3839 14.2335 11.5472 14.5614 11.7577C14.8964 11.9779 15.1756 12.2737 15.3772 12.6202C15.5859 13.004 15.6917 13.4353 15.6841 13.8722C15.7016 14.4356 15.5338 14.9893 15.2062 15.4481C14.8616 15.9191 14.3886 16.2808 13.8438 16.4898C13.2577 16.7237 12.6303 16.8365 11.9994 16.8212C11.257 16.8421 10.5206 16.6829 9.85307 16.3572C9.41437 16.1263 9.03772 15.7932 8.75495 15.386C8.47201 14.9945 8.31348 14.5268 8.29999 14.044C8.29999 13.827 8.3862 13.6188 8.53965 13.4654C8.69311 13.3119 8.90124 13.2257 9.11826 13.2257C9.33528 13.2257 9.54341 13.3119 9.69687 13.4654C9.85032 13.6188 9.93653 13.827 9.93653 14.044C9.95334 14.1936 10.0105 14.3359 10.1018 14.4556C10.232 14.6426 10.4047 14.7961 10.6059 14.9032C11.0413 15.1066 11.5191 15.2031 11.9994 15.1847C12.4147 15.1982 12.8285 15.1281 13.2162 14.9785C13.4762 14.885 13.704 14.7189 13.8724 14.4998C13.9971 14.3258 14.0589 14.1145 14.0475 13.9008C14.0561 13.7357 14.0229 13.571 13.951 13.4221C13.8766 13.3001 13.7749 13.197 13.6539 13.121C13.4599 12.9987 13.2498 12.9039 13.0296 12.8395C12.8504 12.7847 12.6548 12.7315 12.4519 12.6791L12.4372 12.6775C12.4281 12.6745 12.4154 12.6714 12.4042 12.6687C12.4002 12.6678 12.3964 12.6669 12.393 12.666C12.2604 12.6325 12.1279 12.5989 11.9863 12.5678C11.6246 12.4901 11.3742 12.4271 11.2171 12.3796C11.2136 12.3787 11.2105 12.3766 11.2074 12.3745C11.2048 12.3727 11.2021 12.3709 11.1991 12.3698C10.8358 12.2817 10.4786 12.1702 10.1296 12.036C9.66788 11.8507 9.26234 11.5484 8.95297 11.1588C8.63251 10.7382 8.4651 10.221 8.47837 9.69243C8.47848 9.16152 8.65203 8.64518 8.97261 8.22199C9.30731 7.79639 9.75424 7.47274 10.263 7.28752C10.8256 7.08534 11.4205 6.98827 12.0182 7.00113C12.4884 6.99593 12.9567 7.06102 13.4076 7.19424C13.7983 7.30815 14.1643 7.49379 14.4869 7.74167C14.7662 7.95362 14.9993 8.22037 15.1718 8.52557C15.2236 8.62025 15.2562 8.72423 15.2676 8.83154C15.279 8.93884 15.2691 9.04735 15.2384 9.15081C15.2077 9.25427 15.1569 9.35064 15.0888 9.43437C15.0208 9.51811 14.9368 9.58755 14.8418 9.6387C14.7468 9.68985 14.6426 9.7217 14.5352 9.73242C14.4278 9.74314 14.3194 9.73251 14.2161 9.70115C14.1129 9.66979 14.0168 9.61832 13.9335 9.54969C13.8503 9.48107 13.7814 9.39665 13.7309 9.30129C13.6611 9.19149 13.5708 9.09619 13.4649 9.02062C13.3012 8.90125 13.1175 8.81202 12.9224 8.75714C12.6283 8.67286 12.3233 8.6326 12.0174 8.63767C11.6221 8.62602 11.2279 8.68589 10.8538 8.81442C10.6314 8.89017 10.4336 9.02444 10.281 9.2031C10.172 9.34259 10.113 9.51459 10.1133 9.69161C10.0999 9.8567 10.1464 10.0211 10.2442 10.1547C10.3779 10.3181 10.5515 10.4441 10.7483 10.5205C11.13 10.6675 11.5229 10.7835 11.9233 10.8675C12.2588 10.9411 12.5305 11.0066 12.7596 11.0704C13.0214 11.135 13.2751 11.203 13.5042 11.2725Z" fill="white"/></g></symbol><symbol id="slider-arrow" viewBox="0 0 26 16"><g fill="none"><path d="M0.292893 7.29289C-0.0976314 7.68342 -0.0976315 8.31658 0.292892 8.7071L6.65685 15.0711C7.04738 15.4616 7.68054 15.4616 8.07107 15.0711C8.46159 14.6805 8.46159 14.0474 8.07107 13.6569L2.41421 8L8.07107 2.34314C8.46159 1.95262 8.46159 1.31946 8.07107 0.928931C7.68054 0.538406 7.04738 0.538406 6.65686 0.92893L0.292893 7.29289ZM26 7L1 7L1 9L26 9L26 7Z" fill="black"/></g></symbol><symbol id="smile" viewBox="0 0 24 24"><g fill="none"><path d="M11.9999 16.0001C10.8375 16.0001 9.79003 15.5045 9.05839 14.711C8.68402 14.305 8.08465 14.1124 7.59884 14.3751C7.11305 14.6378 6.92631 15.2513 7.26596 15.6868C8.36303 17.0935 10.075 18.0001 11.9999 18.0001C13.9247 18.0001 15.6367 17.0935 16.7338 15.6868C17.0734 15.2513 16.8867 14.6378 16.4009 14.3751C15.9151 14.1124 15.3157 14.305 14.9414 14.711C14.2097 15.5045 13.1622 16.0001 11.9999 16.0001Z" fill="white"/><path d="M8 9.75C8 9.05964 8.55964 8.5 9.25 8.5C9.94036 8.5 10.5 9.05964 10.5 9.75C10.5 10.4404 9.94036 11 9.25 11C8.55964 11 8 10.4404 8 9.75Z" fill="white"/><path d="M14.75 8.5C14.0596 8.5 13.5 9.05964 13.5 9.75C13.5 10.4404 14.0596 11 14.75 11C15.4404 11 16 10.4404 16 9.75C16 9.05964 15.4404 8.5 14.75 8.5Z" fill="white"/><path fill-rule="evenodd" clip-rule="evenodd" d="M12 2C6.47715 2 2 6.47715 2 12C2 17.5228 6.47715 22 12 22C17.5228 22 22 17.5228 22 12C22 6.47715 17.5228 2 12 2ZM4 12C4 7.58172 7.58172 4 12 4C16.4183 4 20 7.58172 20 12C20 16.4183 16.4183 20 12 20C7.58172 20 4 16.4183 4 12Z" fill="white"/></g></symbol><symbol id="sort" viewBox="0 0 24 24"><g fill="none"><path d="M13.4697 7.53033C13.7626 7.82322 14.2374 7.82322 14.5303 7.53033L15.25 6.81066V17C15.25 17.4142 15.5858 17.75 16 17.75C16.4142 17.75 16.75 17.4142 16.75 17V6.81066L17.4697 7.53033C17.7626 7.82322 18.2374 7.82322 18.5303 7.53033C18.8232 7.23744 18.8232 6.76256 18.5303 6.46967L16.5303 4.46967C16.2374 4.17678 15.7626 4.17678 15.4697 4.46967L13.4697 6.46967C13.1768 6.76256 13.1768 7.23744 13.4697 7.53033Z" fill="white"/><path d="M8.75 17.1893L9.46967 16.4697C9.76256 16.1768 10.2374 16.1768 10.5303 16.4697C10.8232 16.7626 10.8232 17.2374 10.5303 17.5303L8.53033 19.5303C8.23744 19.8232 7.76256 19.8232 7.46967 19.5303L5.46967 17.5303C5.17678 17.2374 5.17678 16.7626 5.46967 16.4697C5.76256 16.1768 6.23744 16.1768 6.53033 16.4697L7.25 17.1893V7C7.25 6.58579 7.58579 6.25 8 6.25C8.41421 6.25 8.75 6.58579 8.75 7V17.1893Z" fill="white"/></g></symbol><symbol id="star" viewBox="0 0 24 24"><g fill="none"><path fill-rule="evenodd" clip-rule="evenodd" d="M10.4864 4.11437C11.1608 2.9521 12.8392 2.95211 13.5136 4.11437L15.579 7.67373C15.7694 8.00182 16.0984 8.22571 16.4735 8.28236L19.9031 8.80036C21.3981 9.02617 21.9225 10.9138 20.7582 11.8783L18.2593 13.9487C17.9086 14.2392 17.7437 14.6976 17.8289 15.1451L18.5289 18.821C18.8031 20.261 17.2914 21.3798 15.9944 20.6968L12.5824 18.9003C12.2178 18.7083 11.7822 18.7083 11.4176 18.9003L8.00554 20.6968C6.70853 21.3798 5.1969 20.261 5.4711 18.821L6.17108 15.1451C6.25628 14.6976 6.09136 14.2392 5.74062 13.9487L3.24172 11.8783C2.07743 10.9138 2.60184 9.02617 4.09683 8.80036L7.52648 8.28236C7.90154 8.22571 8.23059 8.00182 8.42096 7.67373L10.4864 4.11437ZM12.2162 4.8672C12.1199 4.70116 11.8801 4.70116 11.7838 4.8672L9.71836 8.42656C9.29954 9.14835 8.57563 9.64091 7.75049 9.76553L4.32085 10.2836C4.10728 10.3158 4.03236 10.5855 4.19869 10.7233L6.69759 12.7936C7.46922 13.4329 7.83205 14.4413 7.6446 15.4256L6.94462 19.1016C6.90545 19.3073 7.12139 19.4672 7.30668 19.3696L10.7188 17.573C11.5207 17.1507 12.4793 17.1507 13.2812 17.573L16.6933 19.3696C16.8786 19.4672 17.0945 19.3073 17.0553 19.1016L16.3554 15.4256C16.1679 14.4413 16.5307 13.4329 17.3024 12.7936L19.8013 10.7233C19.9676 10.5855 19.8927 10.3158 19.6791 10.2836L16.2495 9.76553C15.4243 9.64091 14.7004 9.14835 14.2816 8.42656L12.2162 4.8672Z" fill="#FFC600"/></g></symbol><symbol id="team-close" viewBox="0 0 44 44"><g fill="none"><path d="M15.5277 15.5277C16.0647 14.9908 16.9353 14.9908 17.4723 15.5277L22 20.0554L26.5278 15.5277C27.0648 14.9908 27.9352 14.9908 28.4722 15.5277C29.0092 16.0647 29.0092 16.9353 28.4722 17.4723L23.9446 22L28.4722 26.5278C29.0092 27.0648 29.0092 27.9352 28.4722 28.4722C27.9352 29.0092 27.0648 29.0092 26.5278 28.4722L22 23.9446L17.4723 28.4722C16.9353 29.0092 16.0647 29.0092 15.5277 28.4722C14.9908 27.9352 14.9908 27.0648 15.5277 26.5278L20.0554 22L15.5277 17.4723C14.9908 16.9353 14.9908 16.0647 15.5277 15.5277Z" fill="white"/><path fill-rule="evenodd" clip-rule="evenodd" d="M13.4139 6.90942C19.0744 6.27677 24.9253 6.27677 30.5858 6.90942C33.9342 7.28364 36.6381 9.92117 37.0321 13.2889C37.709 19.0766 37.709 24.9235 37.0321 30.7111C36.6381 34.0789 33.9342 36.7164 30.5858 37.0907C24.9253 37.7232 19.0744 37.7232 13.4139 37.0907C10.0655 36.7164 7.36154 34.0789 6.96765 30.7111C6.29073 24.9235 6.29073 19.0766 6.96765 13.2889C7.36154 9.92117 10.0655 7.28364 13.4139 6.90942ZM30.2803 9.64241C24.8229 9.03244 19.1769 9.03244 13.7193 9.64241C11.6212 9.87689 9.9418 11.5329 9.69904 13.6084C9.04695 19.1838 9.04695 24.8162 9.69904 30.3917C9.9418 32.4673 11.6212 34.1231 13.7193 34.3576C19.1769 34.9676 24.8229 34.9676 30.2803 34.3576C32.3786 34.1231 34.0579 32.4673 34.3006 30.3917C34.9528 24.8162 34.9528 19.1838 34.3006 13.6084C34.0579 11.5329 32.3786 9.87689 30.2803 9.64241Z" fill="white"/></g></symbol><symbol id="team-email" viewBox="0 0 26 26"><path fill-rule="evenodd" clip-rule="evenodd" d="M3.03737 9.0494C2.73388 11.8692 2.74742 15.1214 3.16972 17.9297C3.4034 19.4836 4.67162 20.6749 6.23711 20.811L7.8732 20.9532C11.2847 21.2498 14.7154 21.2498 18.1269 20.9532L19.763 20.811C21.3285 20.6749 22.5967 19.4836 22.8304 17.9297C23.2527 15.1214 23.2662 11.8694 22.9627 9.04956C22.9235 8.72266 22.8794 8.39619 22.8304 8.07027C22.5967 6.51635 21.3285 5.32506 19.763 5.18898L18.1269 5.04675C14.7154 4.7502 11.2847 4.7502 7.8732 5.04675L6.23711 5.18898C4.67162 5.32506 3.4034 6.51635 3.16972 8.07027C3.12072 8.39613 3.07661 8.72255 3.03737 9.0494ZM8.01392 6.66566C11.3317 6.37724 14.6684 6.37724 17.9862 6.66566L19.6222 6.80788C20.4394 6.87891 21.1014 7.50077 21.2234 8.31191C21.2361 8.39615 21.2484 8.48042 21.2605 8.56474L15.236 11.9117C13.8455 12.6842 12.1546 12.6842 10.764 11.9117L4.73968 8.56478C4.75166 8.48046 4.76399 8.39616 4.77665 8.31191C4.89863 7.50077 5.56065 6.87891 6.37784 6.80788L8.01392 6.66566ZM21.4592 10.3132C21.6694 12.7699 21.5908 15.2452 21.2234 17.688C21.1014 18.4992 20.4394 19.121 19.6222 19.1921L17.9862 19.3343C14.6684 19.6227 11.3317 19.6227 8.01392 19.3343L6.37784 19.1921C5.56065 19.121 4.89863 18.4992 4.77665 17.688C4.4093 15.2452 4.3307 12.77 4.54083 10.3132L9.97485 13.3321C11.8563 14.3773 14.1438 14.3773 16.0251 13.3321L21.4592 10.3132Z"/></symbol><symbol id="team-linked" viewBox="0 0 26 26"><path fill-rule="evenodd" clip-rule="evenodd" d="M5.41667 1.35413C3.77132 1.35413 2.4375 2.68795 2.4375 4.33329C2.4375 5.97864 3.77132 7.31246 5.41667 7.31246C7.06201 7.31246 8.39583 5.97864 8.39583 4.33329C8.39583 2.68795 7.06201 1.35413 5.41667 1.35413ZM4.0625 4.33329C4.0625 3.5854 4.66878 2.97913 5.41667 2.97913C6.16456 2.97913 6.77083 3.5854 6.77083 4.33329C6.77083 5.08118 6.16456 5.68746 5.41667 5.68746C4.66878 5.68746 4.0625 5.08118 4.0625 4.33329Z"/><path fill-rule="evenodd" clip-rule="evenodd" d="M2.4375 8.66663C2.4375 8.2179 2.80127 7.85413 3.25 7.85413H7.58333C8.03206 7.85413 8.39583 8.2179 8.39583 8.66663V22.75C8.39583 23.1987 8.03206 23.5625 7.58333 23.5625H3.25C2.80127 23.5625 2.4375 23.1987 2.4375 22.75V8.66663ZM4.0625 9.47913V21.9375H6.77083V9.47913H4.0625Z"/><path fill-rule="evenodd" clip-rule="evenodd" d="M10.021 8.66663C10.021 8.2179 10.3848 7.85413 10.8335 7.85413H15.1668C15.6155 7.85413 15.9793 8.2179 15.9793 8.66663V9.13681L16.4509 8.93473C17.2616 8.58728 18.1286 8.36941 19.0054 8.2897C22.0115 8.01641 24.646 10.3787 24.646 13.4118V22.75C24.646 23.1987 24.2822 23.5625 23.8335 23.5625H19.5002C19.0514 23.5625 18.6877 23.1987 18.6877 22.75V15.1666C18.6877 14.8075 18.545 14.463 18.2911 14.2091C18.0371 13.9551 17.6926 13.8125 17.3335 13.8125C16.9744 13.8125 16.6299 13.9551 16.3759 14.2091C16.122 14.463 15.9793 14.8075 15.9793 15.1666V22.75C15.9793 23.1987 15.6155 23.5625 15.1668 23.5625H10.8335C10.3848 23.5625 10.021 23.1987 10.021 22.75V8.66663ZM11.646 9.47913V21.9375H14.3543V15.1666C14.3543 14.3766 14.6682 13.6188 15.227 13.0601C15.7856 12.5013 16.5434 12.1875 17.3335 12.1875C18.1236 12.1875 18.8814 12.5013 19.44 13.0601C19.9988 13.6188 20.3127 14.3766 20.3127 15.1666V21.9375H23.021V13.4118C23.021 11.3489 21.2216 9.71992 19.1525 9.90803C18.4439 9.97243 17.7434 10.1487 17.091 10.4283L15.4868 11.1158C15.2358 11.2234 14.9476 11.1976 14.7195 11.0474C14.4916 10.897 14.3543 10.6421 14.3543 10.369V9.47913H11.646Z"/></symbol><symbol id="team-logo" viewBox="0 0 39 23"><g fill="none"><path d="M6.44818 16.2255L3.55019 6.44366L12.082 9.03816L19.3675 3.94823L26.8007 9.03816L34.9048 6.62017L32.8191 12.5962H35.2299L38.3161 3.64654L37.2786 3.25931L29.4393 0.423462L28.6315 2.6001L33.9304 4.51738L26.8007 6.49319L19.3675 1.2907L12.082 6.49319L0.299194 2.77931L4.17428 16.2255H6.44818Z" fill="#131000"/><path d="M5.44857 21.3434L5.73675 22.162H32.3004L32.5606 21.3434L33.0388 19.8547H4.98389L5.44857 21.3434Z" fill="#131000"/></g></symbol><symbol id="team-tg" viewBox="0 0 26 26"><path fill-rule="evenodd" clip-rule="evenodd" d="M6.26978 15.1879C6.31719 15.204 6.36506 15.2152 6.41287 15.2222C6.46502 15.3448 6.5324 15.5033 6.611 15.6887C6.80284 16.1411 7.06131 16.753 7.32811 17.3913C7.87221 18.6932 8.42104 20.0351 8.54225 20.4192C8.6923 20.8941 8.85091 21.2169 9.02406 21.4374C9.1136 21.5513 9.21715 21.6508 9.33831 21.7262C9.3993 21.7641 9.46373 21.7952 9.53099 21.8184C9.53395 21.8195 9.5369 21.8204 9.53986 21.8214C9.88655 21.9523 10.2026 21.8978 10.4005 21.8312C10.5064 21.7954 10.5921 21.7524 10.6528 21.7175C10.6838 21.6996 10.7099 21.6831 10.7308 21.669L10.7357 21.6657L13.7974 19.7564L17.334 22.4677C17.3862 22.5077 17.4431 22.5413 17.5034 22.5676C17.9283 22.753 18.3396 22.8176 18.7267 22.7648C19.113 22.712 19.4198 22.5497 19.6482 22.367C19.8718 22.1881 20.0233 21.9877 20.1178 21.8388C20.166 21.7628 20.2022 21.6955 20.2277 21.6441C20.2406 21.6182 20.2508 21.5959 20.2588 21.578L20.269 21.5544L20.2728 21.545L20.2745 21.5411L20.2752 21.5393L20.2759 21.5376C20.2945 21.4911 20.3087 21.443 20.3184 21.3939L23.5471 5.11634C23.5574 5.06429 23.5626 5.01133 23.5626 4.95826C23.5626 4.48158 23.383 4.02832 22.9607 3.75327C22.5997 3.51819 22.1976 3.50807 21.9434 3.52735C21.6694 3.54816 21.4162 3.61584 21.2462 3.66991C21.1578 3.69805 21.0837 3.7252 21.0303 3.74591C21.0034 3.75633 20.9813 3.76526 20.965 3.77208L20.9526 3.77726L2.84613 10.8802L2.84379 10.881C2.83225 10.8853 2.81743 10.8908 2.79983 10.8976C2.76477 10.9113 2.71779 10.9304 2.66291 10.9554C2.5559 11.0039 2.40577 11.0796 2.25171 11.1851C2.00559 11.3537 1.43956 11.8153 1.53487 12.5772C1.61091 13.1851 2.02732 13.5584 2.28103 13.7379C2.42033 13.8365 2.55269 13.9069 2.64907 13.9528C2.69378 13.9741 2.78662 14.0118 2.8269 14.0282L2.83707 14.0323L6.26978 15.1879ZM21.5864 5.27356L21.5838 5.27466C21.5748 5.27858 21.5657 5.28233 21.5566 5.28593L3.42804 12.3975C3.41857 12.4012 3.40904 12.4047 3.39944 12.4081L3.38936 12.4119C3.37775 12.4164 3.35823 12.4244 3.33373 12.4354C3.31983 12.4417 3.30532 12.4486 3.29053 12.456C3.31086 12.4675 3.33029 12.4773 3.34757 12.4856C3.36416 12.4935 3.37681 12.4989 3.38373 12.5017L6.78825 13.6479C6.85056 13.6689 6.90865 13.6966 6.96197 13.7302L18.2035 7.14948L18.214 7.14326C18.2222 7.13842 18.2329 7.1322 18.2458 7.12491C18.2714 7.11044 18.3066 7.09119 18.3484 7.06991C18.4264 7.0302 18.5512 6.97126 18.6918 6.92779C18.7898 6.89754 19.0785 6.81229 19.3906 6.9124C19.5832 6.97418 19.7826 7.10701 19.9123 7.33202C19.9768 7.44381 20.0111 7.55611 20.0277 7.6589C20.0719 7.82084 20.0649 7.98075 20.0304 8.1188C19.9559 8.41619 19.7469 8.64815 19.5568 8.82558C19.3939 8.97769 17.2864 11.0098 15.2074 13.016C14.1705 14.0163 13.1443 15.0069 12.3773 15.7473L11.8734 16.2337L18.2348 21.1106C18.3806 21.1628 18.4668 21.1602 18.5068 21.1547C18.5543 21.1482 18.5932 21.1299 18.633 21.0982C18.6774 21.0626 18.7163 21.0145 18.7453 20.9687L18.7465 20.9669L21.8779 5.17948C21.8314 5.19065 21.7844 5.20395 21.7391 5.21836C21.6878 5.23469 21.6455 5.25024 21.6175 5.26111C21.6036 5.26649 21.5936 5.27058 21.5882 5.27283L21.5864 5.27356ZM12.42 18.7003L11.1508 17.7273L10.8433 19.6834L12.42 18.7003ZM9.98661 15.7966L11.2487 14.5781C12.0158 13.8377 13.0421 12.8471 14.079 11.8465L15.1325 10.8301L8.06918 14.965L8.10708 15.0544C8.29958 15.5084 8.55922 16.123 8.82743 16.7647C9.02799 17.2445 9.23771 17.7498 9.42873 18.2176L9.73535 16.2672C9.76491 16.0791 9.85678 15.9164 9.98661 15.7966Z"/></symbol><symbol id="telegram" viewBox="0 0 24 24"><g fill="none"><path fill-rule="evenodd" clip-rule="evenodd" d="M18.483 19.7902L18.4837 19.7884L18.5011 19.7449L21.4999 4.62592V4.57681C21.4999 4.20011 21.3607 3.87125 21.0578 3.67399C20.7927 3.50133 20.488 3.48904 20.2743 3.50526C20.0482 3.52241 19.8351 3.57883 19.6876 3.62579C19.6117 3.64995 19.5482 3.67322 19.5027 3.69083C19.4799 3.69967 19.4614 3.70717 19.448 3.71275L19.4348 3.71831L2.71502 10.2772L2.71042 10.2788C2.70139 10.2821 2.68945 10.2866 2.67502 10.2922C2.64627 10.3034 2.60713 10.3194 2.56115 10.3403C2.47087 10.3812 2.34613 10.4443 2.21963 10.5309C2.00478 10.6781 1.59566 11.0264 1.66474 11.5786C1.72196 12.036 2.03727 12.3265 2.24984 12.4769C2.36378 12.5576 2.4728 12.6157 2.55263 12.6537C2.59307 12.673 2.62743 12.6877 2.65302 12.6981C2.66585 12.7033 2.67657 12.7075 2.68487 12.7107L2.6955 12.7146L2.70229 12.7172L5.62753 13.702C5.61766 13.8855 5.63586 14.0726 5.68453 14.2573L7.14982 19.8157C7.32355 20.4747 7.91978 20.9338 8.60135 20.9333C9.21228 20.9329 9.75411 20.5633 9.98429 20.0119L12.2719 17.5658L16.2009 20.578L16.2568 20.6024C16.6137 20.7582 16.9473 20.8075 17.2522 20.7659C17.5567 20.7243 17.7986 20.5966 17.9804 20.4512C18.1593 20.3081 18.2818 20.1466 18.3589 20.025C18.3981 19.9632 18.4273 19.9089 18.4475 19.868C18.4577 19.8475 18.4657 19.8302 18.4717 19.8166L18.4793 19.7992L18.482 19.7928L18.483 19.7902ZM7.13493 13.8749C7.10163 13.7486 7.15391 13.6152 7.2642 13.5452L17.1862 7.24432C17.1862 7.24432 17.7698 6.89002 17.7489 7.24432C17.7489 7.24432 17.8531 7.30688 17.5403 7.59861C17.2437 7.87569 10.4687 14.4167 9.78316 15.0786C9.74359 15.1168 9.71997 15.1606 9.70602 15.2138L8.60022 19.4333L7.13493 13.8749Z" fill="white"/></g></symbol><symbol id="tg-icon" viewBox="0 0 21 18"><g fill="currentColor"><path fill-rule="evenodd" clip-rule="evenodd" d="M17.483 16.7902L17.4837 16.7884L17.5011 16.7449L20.4999 1.62592V1.57681C20.4999 1.20011 20.3607 0.871249 20.0578 0.673989C19.7927 0.501329 19.488 0.489039 19.2743 0.505259C19.0482 0.522409 18.8351 0.578829 18.6876 0.625789C18.6117 0.649949 18.5482 0.673219 18.5027 0.690829C18.4799 0.699669 18.4614 0.707169 18.448 0.712749L18.4348 0.718309L1.71502 7.27725L1.71042 7.27885C1.70139 7.28215 1.68945 7.28665 1.67502 7.29225C1.64627 7.30345 1.60713 7.31945 1.56115 7.34035C1.47087 7.38125 1.34613 7.44435 1.21963 7.53095C1.00478 7.67815 0.595662 8.02645 0.664742 8.57865C0.721962 9.03605 1.03727 9.32655 1.24984 9.47695C1.36378 9.55765 1.4728 9.61575 1.55263 9.65375C1.59307 9.67305 1.62743 9.68775 1.65302 9.69815C1.66585 9.70335 1.67657 9.70755 1.68487 9.71075L1.6955 9.71465L1.70229 9.71725L4.62753 10.702C4.61766 10.8855 4.63586 11.0726 4.68453 11.2573L6.14982 16.8157C6.32355 17.4747 6.91978 17.9338 7.60135 17.9333C8.21228 17.9329 8.75411 17.5633 8.98429 17.0119L11.2719 14.5658L15.2009 17.578L15.2568 17.6024C15.6137 17.7582 15.9473 17.8075 16.2522 17.7659C16.5567 17.7243 16.7986 17.5966 16.9804 17.4512C17.1593 17.3081 17.2818 17.1466 17.3589 17.025C17.3981 16.9632 17.4273 16.9089 17.4475 16.868C17.4577 16.8475 17.4657 16.8302 17.4717 16.8166L17.4793 16.7992L17.482 16.7928L17.483 16.7902ZM6.13493 10.8749C6.10163 10.7486 6.15391 10.6152 6.2642 10.5452L16.1862 4.24432C16.1862 4.24432 16.7698 3.89002 16.7489 4.24432C16.7489 4.24432 16.8531 4.30688 16.5403 4.59861C16.2437 4.87569 9.46874 11.4167 8.78316 12.0786C8.74359 12.1168 8.71997 12.1606 8.70602 12.2138L7.60022 16.4333L6.13493 10.8749Z"/></g></symbol><symbol id="thumbs-down" viewBox="0 0 24 24"><g fill="none"><path fill-rule="evenodd" clip-rule="evenodd" d="M13.2977 18.7502C13.4639 18.7502 13.6174 18.661 13.6997 18.5166L17.0457 12.6434C17.4892 11.8648 17.6753 10.966 17.5774 10.0754L17.2243 6.86167C17.1615 6.28989 16.7126 5.83698 16.1414 5.76903L14.0243 5.51719C12.6268 5.35094 11.2098 5.49505 9.87426 5.93925C9.21472 6.15862 8.68645 6.65921 8.43194 7.306L6.72785 11.6366C6.68619 11.7425 6.65739 11.853 6.64209 11.9657C6.51285 12.9178 7.34632 13.721 8.29299 13.5565L11.7088 12.9633C12.7878 12.7759 13.7197 13.7281 13.5091 14.8028L12.8437 18.1986C12.7877 18.4844 13.0065 18.7502 13.2977 18.7502ZM15.003 19.2591C14.6539 19.8718 14.0029 20.2502 13.2977 20.2502C12.0623 20.2502 11.1342 19.1225 11.3717 17.9102L12.0371 14.5143C12.04 14.4998 12.0384 14.4909 12.0364 14.4845C12.034 14.4767 12.0289 14.4674 12.0205 14.4589C12.0122 14.4504 12.0031 14.4451 11.9953 14.4425C11.989 14.4403 11.9801 14.4386 11.9655 14.4411L8.54967 15.0344C6.60349 15.3724 4.89002 13.7213 5.15572 11.7639C5.18719 11.5321 5.24638 11.305 5.33203 11.0873L7.03612 6.75674C7.4534 5.69631 8.31951 4.87558 9.40084 4.51591C10.9457 4.00208 12.5849 3.83538 14.2015 4.02769L16.3186 4.27953C17.5828 4.42992 18.5763 5.43232 18.7153 6.69783L19.0685 9.9115C19.2009 11.1165 18.9491 12.3325 18.349 13.3859L15.003 19.2591Z" fill="#FFC600"/></g></symbol><symbol id="thumbs-up" viewBox="0 0 24 24"><g fill="none"><path fill-rule="evenodd" clip-rule="evenodd" d="M10.7024 5.25C10.5362 5.25 10.3827 5.33919 10.3004 5.48362L6.95444 11.3569C6.51091 12.1354 6.32478 13.0342 6.42265 13.9249L6.77579 17.1385C6.83863 17.7103 7.2875 18.1632 7.85869 18.2312L9.97574 18.483C11.3733 18.6493 12.7903 18.5051 14.1258 18.0609C14.7854 17.8416 15.3136 17.341 15.5682 16.6942L17.2722 12.3636C17.3139 12.2578 17.3427 12.1473 17.358 12.0345C17.4872 11.0824 16.6538 10.2792 15.7071 10.4437L12.2913 11.0369C11.2123 11.2243 10.2804 10.2722 10.491 9.19744L11.1564 5.80158C11.2124 5.51581 10.9936 5.25 10.7024 5.25ZM8.99708 4.74111C9.34616 4.12836 9.99716 3.75001 10.7024 3.75C11.9378 3.74999 12.8659 4.87768 12.6284 6.09001L11.963 9.48587C11.9601 9.50042 11.9617 9.50931 11.9637 9.51569C11.9661 9.52355 11.9712 9.53276 11.9796 9.5413C11.9879 9.54984 11.997 9.5551 12.0048 9.55774C12.0111 9.55988 12.02 9.5616 12.0346 9.55906L15.4504 8.96579C17.3966 8.62777 19.1101 10.2789 18.8444 12.2363C18.8129 12.4681 18.7537 12.6952 18.6681 12.9129L16.964 17.2435C16.5467 18.3039 15.6806 19.1246 14.5992 19.4843C13.0544 19.9981 11.4152 20.1648 9.79856 19.9725L7.68151 19.7207C6.4173 19.5703 5.42383 18.5679 5.28477 17.3024L4.93163 14.0887C4.79921 12.8837 5.05103 11.6677 5.65111 10.6143L8.99708 4.74111Z" fill="#FFC600"/></g></symbol><symbol id="up-btn" viewBox="0 0 10 7"><g fill="none"><path fill-rule="evenodd" clip-rule="evenodd" d="M9.5303 6.0303C9.2374 6.3232 8.7626 6.3232 8.4697 6.0303L5 2.5607L1.53033 6.0303C1.23744 6.3232 0.762558 6.3232 0.469668 6.0303C0.176777 5.7374 0.176777 5.2626 0.469668 4.9697L4.4697 0.969668C4.7626 0.676777 5.2374 0.676777 5.5303 0.969668L9.5303 4.9697C9.8232 5.2626 9.8232 5.7374 9.5303 6.0303Z" fill="white"/></g></symbol><symbol id="wysiwyg-b" viewBox="0 0 14 17"><g fill="none"><path d="M3.67688 7.37H8.16488C8.82488 7.37 9.37488 7.18667 9.81488 6.82C10.2549 6.43867 10.4749 5.896 10.4749 5.192C10.4749 4.4 10.2769 3.84267 9.88088 3.52C9.48488 3.19733 8.91288 3.036 8.16488 3.036H3.67688V7.37ZM0.926883 0.791999H8.56088C9.96888 0.791999 11.0982 1.11467 11.9489 1.76C12.7996 2.40533 13.2249 3.38067 13.2249 4.686C13.2249 5.478 13.0269 6.16 12.6309 6.732C12.2496 7.28933 11.6996 7.722 10.9809 8.03V8.074C11.9489 8.27933 12.6822 8.74133 13.1809 9.46C13.6796 10.164 13.9289 11.0513 13.9289 12.122C13.9289 12.738 13.8189 13.3173 13.5989 13.86C13.3789 14.388 13.0342 14.85 12.5649 15.246C12.0955 15.6273 11.4942 15.9353 10.7609 16.17C10.0275 16.39 9.15488 16.5 8.14288 16.5H0.926883V0.791999ZM3.67688 14.256H8.53888C9.37488 14.256 10.0202 14.0433 10.4749 13.618C10.9442 13.178 11.1789 12.562 11.1789 11.77C11.1789 10.9927 10.9442 10.3987 10.4749 9.988C10.0202 9.56267 9.37488 9.35 8.53888 9.35H3.67688V14.256Z" fill="#DCDCDC"/></g></symbol><symbol id="wysiwyg-i" viewBox="0 0 11 16"><g fill="none"><path d="M6.92188 15.5664L6.79297 16H0.253906L0.417969 15.5664C1.07422 15.5508 1.50781 15.4961 1.71875 15.4023C2.0625 15.2695 2.31641 15.0859 2.48047 14.8516C2.73828 14.4844 3.00391 13.8281 3.27734 12.8828L6.04297 3.29688C6.27734 2.5 6.39453 1.89844 6.39453 1.49219C6.39453 1.28906 6.34375 1.11719 6.24219 0.976562C6.14062 0.835938 5.98438 0.730469 5.77344 0.660156C5.57031 0.582031 5.16797 0.542969 4.56641 0.542969L4.70703 0.109375H10.8477L10.7188 0.542969C10.2188 0.535156 9.84766 0.589844 9.60547 0.707031C9.25391 0.863281 8.98438 1.08594 8.79688 1.375C8.61719 1.66406 8.38281 2.30469 8.09375 3.29688L5.33984 12.8828C5.08984 13.7656 4.96484 14.3281 4.96484 14.5703C4.96484 14.7656 5.01172 14.9336 5.10547 15.0742C5.20703 15.207 5.36328 15.3125 5.57422 15.3906C5.79297 15.4609 6.24219 15.5195 6.92188 15.5664Z" fill="#DCDCDC"/></g></symbol><symbol id="wysiwyg-link" viewBox="0 0 20 20"><g fill="none"><g clip-path="url(#clip0_116_2048)"><path d="M8.33325 10.8335C8.69113 11.3119 9.14772 11.7078 9.67204 11.9943C10.1964 12.2807 10.7762 12.4511 11.3721 12.4937C11.9681 12.5364 12.5662 12.4504 13.126 12.2416C13.6858 12.0328 14.1942 11.706 14.6166 11.2835L17.1166 8.78347C17.8756 7.99763 18.2956 6.94512 18.2861 5.85263C18.2766 4.76014 17.8384 3.71509 17.0658 2.94256C16.2933 2.17002 15.2482 1.73182 14.1558 1.72233C13.0633 1.71283 12.0108 2.13281 11.2249 2.8918L9.79159 4.3168" stroke="#DCDCDC" stroke-width="1.8" stroke-linecap="round" stroke-linejoin="round"/><path d="M11.6666 9.16653C11.3087 8.68809 10.8521 8.29221 10.3278 8.00575C9.80347 7.71928 9.22367 7.54893 8.62771 7.50625C8.03176 7.46357 7.4336 7.54956 6.8738 7.75838C6.314 7.9672 5.80566 8.29397 5.38326 8.71653L2.88326 11.2165C2.12426 12.0024 1.70429 13.0549 1.71378 14.1474C1.72327 15.2399 2.16148 16.2849 2.93401 17.0574C3.70655 17.83 4.7516 18.2682 5.84408 18.2777C6.93657 18.2872 7.98908 17.8672 8.77492 17.1082L10.1999 15.6832" stroke="#DCDCDC" stroke-width="1.8" stroke-linecap="round" stroke-linejoin="round"/></g></g></symbol><symbol id="wysiwyg-paperclip" viewBox="0 0 20 20"><g fill="none"><path d="M17.8667 9.2081L10.2084 16.8664C9.27017 17.8046 7.99769 18.3317 6.67087 18.3317C5.34405 18.3317 4.07157 17.8046 3.13337 16.8664C2.19517 15.9282 1.66809 14.6558 1.66809 13.3289C1.66809 12.0021 2.19517 10.7296 3.13337 9.79144L10.7917 2.1331C11.4172 1.50763 12.2655 1.15625 13.15 1.15625C14.0346 1.15625 14.8829 1.50763 15.5084 2.1331C16.1338 2.75857 16.4852 3.60689 16.4852 4.49144C16.4852 5.37598 16.1338 6.2243 15.5084 6.84977L7.84171 14.5081C7.52897 14.8208 7.10481 14.9965 6.66254 14.9965C6.22027 14.9965 5.79611 14.8208 5.48337 14.5081C5.17064 14.1954 4.99494 13.7712 4.99494 13.3289C4.99494 12.8867 5.17064 12.4625 5.48337 12.1498L12.5584 5.0831" stroke="#DCDCDC" stroke-width="1.8" stroke-linecap="round" stroke-linejoin="round"/></g></symbol><symbol id="wysiwyg-s" viewBox="0 0 12 16"><g fill="none"><path d="M1.996 10.464C2.25733 11.7147 2.724 12.6013 3.396 13.124C4.08667 13.628 5.06667 13.88 6.336 13.88C6.952 13.88 7.484 13.8053 7.932 13.656C8.38 13.5067 8.744 13.3107 9.024 13.068C9.32267 12.8067 9.54667 12.5173 9.696 12.2C9.84533 11.8827 9.92 11.5467 9.92 11.192C9.92 10.4827 9.68667 9.96 9.22 9.624C8.772 9.26933 8.20267 8.99867 7.512 8.812C6.82133 8.60667 6.07467 8.43867 5.272 8.308C4.46933 8.15867 3.72267 7.944 3.032 7.664C2.34133 7.384 1.76267 6.98267 1.296 6.46C0.848 5.93733 0.624 5.2 0.624 4.248C0.624 3.03467 1.06267 2.04533 1.94 1.28C2.836 0.496 4.096 0.104 5.72 0.104C7.288 0.104 8.55733 0.458666 9.528 1.168C10.5173 1.85867 11.1147 3.02533 11.32 4.668H9.612C9.46267 3.548 9.03333 2.764 8.324 2.316C7.63333 1.84933 6.756 1.616 5.692 1.616C4.628 1.616 3.816 1.84933 3.256 2.316C2.696 2.764 2.416 3.36133 2.416 4.108C2.416 4.76133 2.64 5.26533 3.088 5.62C3.55467 5.956 4.13333 6.236 4.824 6.46C5.51467 6.66533 6.26133 6.852 7.064 7.02C7.86667 7.188 8.61333 7.43067 9.304 7.748C9.99467 8.04667 10.564 8.45733 11.012 8.98C11.4787 9.50267 11.712 10.2307 11.712 11.164C11.712 11.8547 11.5627 12.4707 11.264 13.012C10.9653 13.5347 10.5547 13.9733 10.032 14.328C9.50933 14.6827 8.884 14.944 8.156 15.112C7.44667 15.2987 6.66267 15.392 5.804 15.392C4.94533 15.392 4.18 15.2613 3.508 15C2.85467 14.7573 2.29467 14.412 1.828 13.964C1.36133 13.516 0.997333 12.9933 0.736 12.396C0.474667 11.7987 0.325333 11.1547 0.288 10.464H1.996Z" fill="#DCDCDC"/><path d="M-1 6.208H13V7.608H-1V6.208Z" fill="#DCDCDC"/></g></symbol><symbol id="wysiwyg-smile" viewBox="0 0 30 30"><g fill="none"><path d="M14.9998 23.3337C19.6022 23.3337 23.3332 19.6027 23.3332 15.0003C23.3332 10.398 19.6022 6.66699 14.9998 6.66699C10.3975 6.66699 6.6665 10.398 6.6665 15.0003C6.6665 19.6027 10.3975 23.3337 14.9998 23.3337Z" stroke="#DCDCDC" stroke-width="1.8" stroke-linecap="round" stroke-linejoin="round"/><path d="M11.6665 16.667C11.6665 16.667 12.9165 18.3337 14.9998 18.3337C17.0832 18.3337 18.3332 16.667 18.3332 16.667" stroke="#DCDCDC" stroke-width="1.8" stroke-linecap="round" stroke-linejoin="round"/><path d="M12.5 12.5H12.51" stroke="#DCDCDC" stroke-width="1.8" stroke-linecap="round" stroke-linejoin="round"/><path d="M17.5 12.5H17.51" stroke="#DCDCDC" stroke-width="1.8" stroke-linecap="round" stroke-linejoin="round"/></g></symbol><symbol id="youtube" viewBox="0 0 24 24"><g fill="none"><path fill-rule="evenodd" clip-rule="evenodd" d="M6.989 4.89006C10.3247 4.62909 13.6756 4.62909 17.0113 4.89006L19.252 5.06536C20.5001 5.163 21.5211 6.0984 21.7274 7.33317C22.2436 10.4226 22.2436 13.5764 21.7274 16.6659C21.5211 17.9006 20.5001 18.836 19.252 18.9337L17.0113 19.109C13.6756 19.3699 10.3247 19.3699 6.989 19.109L4.7483 18.9337C3.50023 18.836 2.47921 17.9006 2.2729 16.6659C1.75669 13.5764 1.75669 10.4226 2.2729 7.33317C2.47921 6.0984 3.50023 5.163 4.7483 5.06536L6.989 4.89006ZM10.0001 14.4696V9.5294C10.0001 9.29621 10.2545 9.15217 10.4544 9.27215L14.5714 11.7423C14.7656 11.8588 14.7656 12.1402 14.5714 12.2567L10.4544 14.7269C10.2545 14.8469 10.0001 14.7028 10.0001 14.4696Z" fill="white"/></g></symbol></svg>